<mxfile host="65bd71144e">
    <diagram id="pyFOITWGm1L5QSNy7el4" name="Page-1">
        <mxGraphModel dx="358" dy="669" grid="0" gridSize="10" guides="1" tooltips="1" connect="1" arrows="1" fold="1" page="0" pageScale="1" pageWidth="850" pageHeight="1100" background="#ffffff" math="0" shadow="0">
            <root>
                <mxCell id="0"/>
                <mxCell id="1" parent="0"/>
                <mxCell id="31" value="CosmosDB for NoSQL" style="aspect=fixed;html=1;points=[];align=center;image;fontSize=12;image=img/lib/azure2/databases/Azure_Cosmos_DB.svg;" parent="1" vertex="1">
                    <mxGeometry x="479" y="203" width="64" height="64" as="geometry"/>
                </mxCell>
                <mxCell id="43" value="格納" style="edgeStyle=none;html=1;verticalAlign=bottom;entryX=0.945;entryY=0.188;entryDx=0;entryDy=0;entryPerimeter=0;exitX=0.029;exitY=0.143;exitDx=0;exitDy=0;exitPerimeter=0;" parent="1" source="42" target="31" edge="1">
                    <mxGeometry relative="1" as="geometry"/>
                </mxCell>
                <mxCell id="42" value="StaticWebApps&lt;br&gt;" style="aspect=fixed;html=1;points=[];align=center;image;fontSize=12;image=img/lib/azure2/preview/Static_Apps.svg;" parent="1" vertex="1">
                    <mxGeometry x="766" y="207" width="70" height="56.00000000000001" as="geometry"/>
                </mxCell>
                <mxCell id="44" value="問い合わせ内容や推論結果を&lt;br&gt;蓄積＆ベクトル化" style="text;html=1;strokeColor=none;fillColor=none;align=center;verticalAlign=middle;whiteSpace=wrap;rounded=0;fontStyle=1;fontColor=#f10909;" parent="1" vertex="1">
                    <mxGeometry x="457" y="131" width="158.5" height="53" as="geometry"/>
                </mxCell>
                <mxCell id="47" value="Webアプリ&lt;br&gt;（例：チャットアプリ）" style="text;html=1;strokeColor=none;fillColor=none;align=center;verticalAlign=middle;whiteSpace=wrap;rounded=0;fontStyle=1;fontColor=#000000;" parent="1" vertex="1">
                    <mxGeometry x="777" y="119" width="138" height="53" as="geometry"/>
                </mxCell>
                <mxCell id="50" value="Azure OpenAI" style="shape=image;verticalLabelPosition=bottom;labelBackgroundColor=default;verticalAlign=top;aspect=fixed;imageAspect=0;image=data:image/svg+xml,PHN2ZyB4bWxucz0iaHR0cDovL3d3dy53My5vcmcvMjAwMC9zdmciIHZpZXdCb3g9IjAgMCAxOCAxOCIgaGVpZ2h0PSIxOCIgd2lkdGg9IjE4IiBpZD0idXVpZC1hZGJkYWU4ZS01YTQxLTQ2ZDEtOGMxOC1hYTczY2RiZmVlMzIiPjxkZWZzPjxyYWRpYWxHcmFkaWVudCBncmFkaWVudFVuaXRzPSJ1c2VyU3BhY2VPblVzZSIgZ3JhZGllbnRUcmFuc2Zvcm09InRyYW5zbGF0ZSgtMTc5MzkuMDMgMjAzNjguMDI5KSByb3RhdGUoNDUpIHNjYWxlKDI1LjA5MSAtMzQuMTQ5KSIgcj0iLjQ1IiBjeT0iNzkzLjE5OSIgY3g9Ii02Ny45ODEiIGlkPSJ1dWlkLTJhNzQwN2FhLWI3ODctNDhkZC1hOTZhLTBkODFhYjZlOTNiYiI+PHN0b3Agc3RvcC1jb2xvcj0iIzgzYjlmOSIgb2Zmc2V0PSIwIi8+PHN0b3Agc3RvcC1jb2xvcj0iIzAwNzhkNCIgb2Zmc2V0PSIxIi8+PC9yYWRpYWxHcmFkaWVudD48L2RlZnM+PHBhdGggc3Ryb2tlLXdpZHRoPSIwIiBmaWxsPSJ1cmwoI3V1aWQtMmE3NDA3YWEtYjc4Ny00OGRkLWE5NmEtMGQ4MWFiNmU5M2JiKSIgZD0ibTAsMi43djEyLjZjMCwxLjQ5MSwxLjIwOSwyLjcsMi43LDIuN2gxMi42YzEuNDkxLDAsMi43LTEuMjA5LDIuNy0yLjdWMi43YzAtMS40OTEtMS4yMDktMi43LTIuNy0yLjdIMi43QzEuMjA5LDAsMCwxLjIwOSwwLDIuN1pNMTAuOCwwdjMuNmMwLDMuOTc2LDMuMjI0LDcuMiw3LjIsNy4yaC0zLjZjLTMuOTc2LDAtNy4xOTksMy4yMjItNy4yLDcuMTk4di0zLjU5OGMwLTMuOTc2LTMuMjI0LTcuMi03LjItNy4yaDMuNmMzLjk3NiwwLDcuMi0zLjIyNCw3LjItNy4yWiIvPjwvc3ZnPg==;" parent="1" vertex="1">
                    <mxGeometry x="775" y="351" width="50" height="50" as="geometry"/>
                </mxCell>
                <mxCell id="51" value="推論" style="edgeStyle=none;html=1;exitX=0.471;exitY=1;exitDx=0;exitDy=0;exitPerimeter=0;entryX=0.5;entryY=0;entryDx=0;entryDy=0;" parent="1" source="42" target="50" edge="1">
                    <mxGeometry relative="1" as="geometry">
                        <mxPoint x="776" y="245" as="sourcePoint"/>
                        <mxPoint x="628.5" y="245" as="targetPoint"/>
                    </mxGeometry>
                </mxCell>
                <mxCell id="52" value="" style="shape=image;verticalLabelPosition=bottom;labelBackgroundColor=default;verticalAlign=top;aspect=fixed;imageAspect=0;image=data:image/png,iVBORw0KGgoAAAANSUhEUgAAAw0AAAM3CAIAAADwYit8AAAAAXNSR0IArs4c6QAAIABJREFUeAHsnf9zVcd99/sv3dGM+MVwPTHSJCPx1OCnQZoUEw8qaVSESxwqR6lpbiGVq4wZMVYhKSqDFYPBdnCc2MKpRhormJAH1yWyjWUoAcJgxzQixGCCrhCcZz57zn7fPV+u7pdzxdvDWHvO2S+ffe1nd99nz55z/yLAfyAAAiAAAiAAAiAAAi4Cf+E6iXMgAAIgAAIgAAIgAAIBdBKcAARAAARAAARAAATcBKCT3FxwFgRAAARAAARAAASgk+ADIAACIAACIAACIOAmAJ3k5oKzIAACIAACIAACIACdBB8AARAAARAAARAAATcB6CQ3F5wFARAAARAAARAAAegk+AAIgAAIgAAIgAAIuAlAJ7m54CwIgAAIgAAIgAAIQCfBB0AABEAABEAABEDATQA6yc0FZ0EABEAABEAABEAAOgk+AAIgAAIgAAIgAAJuAtBJbi44CwIgAAIgAAIgAALQSfABEAABEAABEAABEHATgE5yc8FZEAABEAABEAABEIBOgg+AAAiAAAiAAAiAgJsAdJKbC86CAAiAAAiAAAiAAHQSfAAEQAAEQAAEQAAE3ASgk9xccBYEQAAEQAAEQAAEoJPgAyAAAiAAAiAAAiDgJgCd5OaCsyAAAiAAAiAAAiAAnQQfAAEQAAEQAAEQAAE3AegkNxecBQEQAIGGE5j79ZGBr69d0VIstBRXtPcOvPDe3GLDjYIBIPBgEYBOerDaG7UFARBoFgKz+3sKTCFp/98wOnOzWWoAO0FgORCATloOrYg6gEDTEpgesKRA9/7LTVud6hn+/ug6RqZ7z6mr5SAIyldPjm5cSQtLqwdPVa8Y5AQCIJBAADopARAugwAIJBKYHKD5W/vXPXYxMRlFgE5yYzox2EE8t72hLh7dfP0ZOvnI8Al3IpwFARCoPgHopOozRY4g8KARaKxOmt3fu3rD0NEzn9Kyy3L5L0RqLq1dGOsmPbpzcmnVvGg/0Uura5dWMFKDQBMSgE5qwkaDyS4C5RuXZ6aO7C7t3PzVrs72Nm1t4+G1nWu6Nm4bGtx/bPLMp2XshHUBXMq5Ruqkc2PdrdFS1opH+0cmLtdcLUViRV8/M5bTlnLYOjQZBJWvJ7nMG5jQmhc6ScOBAxCIJQCdFIsHFzMRKF8e39O/cU1X55rHNw8dm5nLlLjSyHMfju/fudEQRgmzVFtn79DoxHkIpkqhm+kappMWP9z9mKVX1tRYLbmEiKbLE9zPMtiM37X7TBBUvD/JZR50kumyOAaB1ASgk1KjenAjXh7r6+ok9aP8G7J2kt6cLq3RJ4D2nZM3akitfGl6ZFtX+Mp0hbPUwz2lN+utlk4MKRhDpH1H0m3lqSHMJWbdIJ10a7K01tf0Kx7tH/319SXWy53cJUR8ZlR2ftUu6l8Vvu/mMg86yd2UOAsCKQjkVieVb167Phf+u1HzdfQUoB7kKJdHu3UB1FIsDEwbROaObLOnhM49HxrRqnO4+On4rp4lKST1Dn7NM0cvLc3HyrciX712/WZSTkuQFNWBV4tcllCpyvdxl08Od6rt6Aqv6B4aX2Lj2rxcQsR2/qWdWTswcSsIgkq+n+QyDzrJbkacAYGUBHKmk8qfzrwyvPmr0XfV5ECzcu06PChJ2aTVj5ZKJ53YpW8JCictS05VwborbzxlLFy5JkjpPKmurt185HxW28rnpkdL29ZZj/xWtPf27fE+dlyCpMhqYP3iL6FSleskkhHvHyttYO+FxbZyZ9/Y6So+BXYJkYz+Zt142PazXUqVNKHLPOikSkgiDQgwAvnRSeXZF/o72ddB4kaclT2lN337NK9PjgyVSvLfyFRtVt0fONdJpZMuHnB8E2+V80Mv16ZHlGYqlUYnr6VlenN6eB3ftOvwk5VrN3Z3mecHpoPb1+fOnho/tLcvdk7t3vOe+g52jE3lSxOlbpcuVGe71o7uXRNXrT3jS5AUMRYt7dISWiQseAmVWpJOCksntZTcHF19+6v0MWuXEDG9TvWECsOVvtTmMg86aWk9BKkfaAL50EmLn772be8+A3sAWtE9fMKx8cUccM1Xah/ohl5K5VPppODG9EC7fpfc2jN6wVXuxE69TT3RrKRzb+1c7ZlyVonXws3MrUeEcx8e9T+z696fuKp06/RIb4ZHfmueee2KVpMlSAotn2oemNDStoiwYQmVMrttoaVYWc+lR1SJainuRkvUpv4BB4RCxS/qQyfVvwFR4rImkAeddGtyIINIiqbYNXtnjIa5dmyzPolWNtoaueIwCNLppCAIrkwM9j6+qrVYaO1Y/XXvvhBrJ1OqWfnmhEckrdG269rLWs49UuVLxzwP79aWpmhfiOe/inx15c7x2zK/JUgKmUl1Q+lbxPE+ud7pdAWs6+alxkyzvlK+enKsL+mxbE02LS2lSayxizD266/yp88fOik9K8QEgRQEGq+Tbk4N+RYJ/GNutMlRq+CZvcamTugkjU/lB6l1UroiZvYYj8ZS6CTlGzmqV6z+9rGL+r5peyL3ukH5/MgG10TePnzCeljGalaRSGoxfTWHOil9i9h41eaocTiNTgpdsHzxzaHuh12NK7Ra+9AJRbym89yaxbLGrkJL0anvU1kAnZQKEyKBQFoCDddJn45tcg1na3pL+4+Nvzkx/ubE2J4hY1uJ++GI+eygwtX7tOQeoHhV1kmWUEjSSYvnR+wX7lqK6wZP2duJrMyLfcf860P2s0I2j2584VO7eb0LWi3FVRv6ByN3PbJ7oLdT2UFl+6ptYeVPWGwrKzpjmeRtkSbRSYzC4vXT+/vVtpAyrrVn9FwaUpdHN/WO1OjjAkr5N4/1S9u4ktt8pNLtldBJClsEQWDpBBqtk1wLzqu2HbN3v9LHcvrYOsQG9+9G2SO4dyEhBTb2ceeJ8TenZy7d0hcsjMTlm9cuz0yRnps8c3mugk8Y3L4+d+38CaYIx0+en7sWX5xRuvuwPBeZdOJs3Gvq5bmw3OmZS9djv7hYXZ1k5+adlcPqze5z7BBfPTBti6QguH70G6bsLk25KUVnz+wNf21Um6geGzWf6t6cLhm7r8L5rH2b4yM95cvjpcfp90pdRlqipFj4xjH1ZayUzeeu1WJ57tr12ZPkkONvnppN8Z0C13NVb4vYvUzjxuf42pxMv56ksJl7bzQcN6Rt5gqfElsLCvnS2W8uW2rxlnwQfXpbWlgstHQMnqw0X+ikSskhHQg4CTRaJ00NWUNqzABRvvjmMX0H94dHS0OlgW3r1nSttpfZ2a9VyK8jql/zu3SkT/1q4pr+sUsRH3qVSX8rqvuA69fLaTtw72r7Bb2HewZeSH6tpvzJh0f39Lu/Ir1y7cZd3rfKycrpYVkpqsXwJH9OdPUt+3FDW+e2sdPatnfXUwnPy1kMiq1srM3RQRCYSOlrioPiK0vvHyuVhgZ6H+9cs5Y2MGlTQnHVV7RPL/YdUoB/cmyzFb+wYWyWV1l36w93m3tTvFM+T3jrtW+b9hRa2AeReYwgCNz6IPZDmlenpp1GOnRS+PWExeunX9hpPS2ym08xSwTpgxp7+75ufVCDOLet/vrQ0fetxYmKWsTNQW9No3Grd1iRTmKI5n4tNy3ZK3yCoha4MfHUI4pjrKzdwpKrf7VsO5r6JVDN7CAIoJNMIjgGgSURaLROsh6WFVqKxiussfVzvSfiG7XV90esoSRcdbh67Bl7s5S1IHHLu54vil4zNK4uESh1SPnFl8LKnsFpzwMjExqTAoufvtZv7PtRRnkxo5fPj5m310o0t/5wjeP2h5EspFpTmjYrhQpoPKAuBM6M0MKM9s/3Gl0QBDff6DMip/nF0OmhVWYq46HtqUF1yowiP04/LpH9P4dOKk0HVyZK9u9vCKtE89nFsdf3bOmpEaN82rqH9MeUFbVIk+okwsYew3WXnMuQNlb3XrTuA4mvQ9pZJZ1xrakX7PdUkrKR1+N7IovnaEd1eJR5IQQCIBA0Wie5NjAWNuzV1z9i2qlqOqnv2C3PjnL9xm7x+njKt/Mcc9v18Wf8UkZMiiLg20VhzXADr7y327klWWTVQg93rt44NRgzGbPI6xxf0G6cTlo8VbIEistC7iEnh03F89XRWX7R+3dxesBeslLfNrKzbSkWvv2G68GftxBxwdZJnRu0LU2WxGEycZujuLm3drr336jtroS1pRTLi9zlsuSqchUVUQN2pVJvunJ04cTi1KJrEXbvRWvtf01bl61OyeLpnsrf/eGxlAVCJ6UEhWggkI5Ao3WSYwGAzQqtXRuHJmaTX0hxDLLqcKOF1Rsmayjp3nds0LkBRbuxi/s9Ka2scHL6xrGrejM4x0RHQjG32RtlgiDIMsOpma+wnxKKgkSg9ZnXzPm/cTrJFigO8yRi+6MA9u+ryNgydHnUVpmKt8zus9a0WjpK4pGizCdVyCEpBPy4wOMj71v533ijz1Z4KTPJ4kWJwsVRKQWgZbd6wtGFE4tT01c/bDxx4zzdz9+XWvyt17bpy6WsuCxr6pYFjs0M5tPnStaTpoc3lhzfTbWKxwkQWG4EGq2TAufuEDFwtHX2Dh8986l/J7VjkFWVgRZWB25LJ2kx+chIJ5X7ePeCU2tH9zb6CPhAr/2brB3hjzQpXmNrjrbVbKeUY6sTmeGaj7PMcN56qXXUw9YLYrbNrv1JLqRyuM9is5gmrffVXeVKuI4pJ+VLQ45pXtHH4/3CIXmgdafYEybLTxdylKXz9zWZ80Vxe8Jb0c42e1m/phJmG/7AKllaUYv4quiolNrdfMnovKMLCweIS1eja4vnHaK5pVjoHnXuNluqFZ8c2Wi3fuzNQHKJjpZduk7iLyav6R876x+Pk41DDBBoPgIN10ls12HiPfGa3sFXPrzq6J7i53KPPWUNN+v2vCd+nZQCc0p616Qu5qfOTcNj4Qtor4yNTohXxD8csR5are49MqvkGlw51mc8J1JkVuQdJ4fDLVCdm5gElPuRyxdfceyOcqzAO8ZBNn+v7BnYPz1LPx58PnzfStRIC6zsKb3y4cVr1+cunRrtdX3h01wqqYZOEr8U+8ozmjHUao/v/jX/zePwl4+jdUSH7rE0nNLlHI/PzO3YSmwt6Jjm5cYmV/XTigCtlPDAVRZrvjX9IxPnmcd6mk9/LS7KevFUtA4a9hFlCZa+pWkvkT4yfCJMWUmLOKrjrVRaRLnSSe5tSeSiFe1F8/LiF2b22EuVRallebRMf23pXGjpNxaJHXFi2+vmxE7lifbazfvT/sJPJssRGQTySSAHOikI3LsBLN1TYO9kGd8V5FgzjrY+ndTas/vdlLuni4XH9s5IlRMZcvWFXl0HmCNUENya3DPs+Q1z1+qavcPGqZMeG57Udo47VF2hpbhi05gm7FwbgArmlxdcQiHrPm7eTq5lDPNml8e1y318JOazN/Z2bKEJeI6+vw7tIteTpku2jrer78vaOu8oq6XY2f+G/i0Mfvuu9gJPdW5O7B30/OjhzdcdqtRk6HAnX4tYleEnHJWKnXd5Os96kvMNUyVNbYK3Tu9xfIGi0FKM2xK3FFOc73K2uB6wZillssRXPYXzWD+pm00nLX6427pFXLHpyMUsViEuCDQvgVzoJPrd76nY3zcVHb6lWGjf5lr4rYpOivuwij36OL9GGFwa61atzfgdFOsXJIoFubDB3cwxsTkEhOOhVcsz45awczxUMmc4W6+4nn+5pKd87sZtz6KT7LfM9D31Ik8WOLHL+t341GomFoLDtdJte9Lt40cOSWFL4SBwNV/2F+Nd71KZjeJwpzrqJNcORdNCjq6Wf2+dGHQs7dA9j/sl0KXbcmu83/LYlmJh0xFjU2PGklyb7cw7H9d3LsxeL4ud3e+Qj+7RTyZCCASWD4G86CQi6vginHVjFEoQx4tgjsksbpeDa1KPfYPp/MhXDWOsp0XhM6Nr5hPAuEdFQcA+9nhkd2nn5q+6PgFF9bXETbqJzXHLaEuuIHB8484cMRulk+w29QsFx0O34lOve5YGzf5rN666L802wyUTzTy9xw6dZAKntCmbzyzmNn1kcmwP+1TVV1zTcEvxqbf0ROncSU9jHqWslJksCAJ7q37GWwtHnllPxfwO9yPPjNfgHbcgCJziw70fMVN1XB2hYD5Jd3mXywmpZOdPBnl/2yeTrYgMAs1BIE86iRGjDzDu6kn+HozZUR2TWVadZM4fWgs68tefrxkqSh66zZj78OjQtnX2tzG1tagwE+vmPt3ElnKidUQzR8xG6SR7PalnlH8OVGucIHC8SJh+q7Vr0UXZNG1/u9L8grZhTPxhSknhaBeXzI3KWrw+88rw5sfcwshwVNMh07lTVSplZ+KQ6Uv5xKJdQOKZGzHf1IhbYE7MOCaCd6eB9YZsTCbuS64vrdhvMzi8y+z1LHvPrvb4ez+3YTgLAk1LIHc6KSJJ3xce3mh+W1mKj0JLUe/8Dh1jzgdqI7nWk+JW+11PB4zpx3domrH46fiunhUOPaTVTsntgdVJtj7z7ct2bMZKvxnW2lJGDaE4g21GcSmfAay6TqKPsKf54gN3OdMhG6iTbr7xlL33S+4MU3tsTcI33x3d6EVXK5E099aQ56tXVdgt7npcaw0gztVKh07y7Gq3nuLVpG2QKQjkhkBedVIEqHz15JGB7jZFNChiQnuVrMY6ybXk4LaKz0biqqbn4m5eqWqrHrYraw1z6SY2xy2ja0HCEc0cMV1Cwd76k1J6pjM+bH9725AGk/cix2JS+s2wrj2qBf3FbIeyWcKahyM3EzhVzNEujubzbj2O3O/hDluR50cnnRh0vG7peMGTN3Q1/y5ePz3Sa8Ph3bZtYy0+vR3ciil0ddpvhcdgcK19unSnw7ssJ3Q/GXTseYixB5dAYDkQyLlOihDPvbXT/jkR/Z6+xjrJ9ZUXPqQq0s0SSfrKhHvn5opHtw0e4j+4m0ZGpImTdqJ1zcfmiNkwneQYzTVxzNzD+VVAO5qnt7onA10FujbXFyvex1pFnXTzrWeUt7W5H67s2jx0ZPLM5Zv0xYoU/SKdO3n4VX7a8+xpqW97pTGIfsPReoFL6c5rNx+pwe+TzE0P+m75qvR9JtfrjUXlCbJk4+hZeq+fPeAWkdon3WV+CIHAcibQHDopCByf0tFfBEsxH6jtmHLxQyaxb9Rifq9XJtNC74/aP03fvUf/EkmaSStNnGWhkwLHZgt9dc29fyLt84u0U7XLWwrmDjmtqWMOqqeTHE8brd/8SdEv0rlTTI0quOR99rTUt70SbCl/cmo05vcN6T5n7VPHxCfTEnJLe7l8eXwo9qdp2rcdjfngRcpinCujnoXVWJ3kX6RMffuR0mREA4GmIJAPnXRubPMG4/M/Jj37EUxB+5yM4yM36/b5bwpdM5+yJcUs3SnU0u+ACbNz/PxF3zHzN0LSTFpp4uRWJzl+VMHxUQPeAC4p8Njw5CflICjfPOteFUj5/MI3Va8asH8q1fU1o8TP6sxNH33LMeNWTSeds2V3/1Hz5awUOilbi/CWqfhv3AOvtYMnK843IWH53MSg44v5fBEuXAle2Tvi+3xaQvaey7fPJyiklmKhSk+yZvc53t6nX3V0mebVSXPvjWyyH/0zSo4frHRljXMgsOwI5EAn3ZgeCL8a3NrVt/+9OesDP8Tc+WxF+zyx69lQzN1PZp0UOB6+ZBzg7AnSVnI3X+lX1v/DQVxfQXH/4oQVJ7c6yUU+5vUZ5yZrC5Ey26UZzW+fP9rv+UFiT3LnE41CS9FcDuQDxNyvww3Cjr3Aths4fzLWMZMZ+5NsuWx/h+nGsT7rWbC5Pylji/AqZv+7WJ6dGO3zv5yxevBU9kwTUpQ/+XB8/86Nnl9xUR1pRXfCrVpCSerlxfLsySPJsox9Da4KK0neT/V6dafDu746fHR/v2eDebHQ/sxrV9QaIgwCDxCBRusk+7kJ211x4uz1OfYLDOW5676xVd8g4nww12N+eli0rGtuiF1PCgLnuzkre0d+fV3kKgJz7x8rDZk/8O6aILUfjfJ8bNPSQPYE2WLFqaZOun70G4oQCedd+/lISqTONwdjfjxL/C6HNd+rkxwPO3SJaBQK0OcY/E9AWrtKE75PLrk+38dMWtG9c/TNDy+yX8Up37h+8cyxwU2KCLPEtMsNxuxPGztmskSd1KI7/Nz0oGsXjqmTsraIBjTFQfnWxTMTo6Vtnd43y5h3Ve9zjuUb12dPHhstbVuXQh6R58TcoaWon4hC30J7ZazU+3jyZ01Cz9k0etpc/xOZZQk4P3HUUlztWBmNsnV5l9XHRY9b2Tu69MeCWSqEuCCQKwKN1Ume905F/4wJPLJzUn9k5e758kdqH9+4X3kMl3JS19vK8XP04Xj36LaBPUfG6Sfhjuwu9XdHX0Uyb+acyVewtEf3D/dt8H38xtJA9dZJgf0tcvoJlPauziFlASAtUtfKX0ux8HBPX2moVNq5+TFzUHb//LDDN7zvKJVvnD9xaK+fcDhDJGmsC2Pd9kvsDjOs+UZfo6qaTjK//M7KXdm1eWDv2Ctjg9u8HyEzdVKQuUX0biGPyjfY7/SdPTX+Jn3rsrSttzOlUtmwt0LFwH6l7uKZ6fFXxgbDj7XGqzGrvVZtGBqvaKWkPHd9jmoafiR2bUptJAT9Zt/aucSZKlQ+O+b+tIHudUZe7tHSgkPWVmXvlFE8DkGgqQg0VCed2etd5nX2WHnSNaU5f3lbJlG/sMx+fFe9xMIJ60lBENirX1YmfBxkk5b+Ckng2setxXfn1nid5HrxnlVQ/ZJKWp0UJD5Ksx/Dud9K03Cp7yjRryPT3Hlob2lb7+o0H/NMtzHl5oTvyzeWNtJsK2584bIYFqqmkwLX5i29XKd3WTqpkhYR1WEB1wfNU1gSmtfZd2zW+bRdL8Nx5NihldAQKpAVj/aPuhaDHQWZp5yr12mLXtE95Pl5R7OYpOPy7AueJ2XWKqaRVVqdtGZoXPvVSCMbHILAA0GgoTopCMpnj8TsV1AHNTXseTf11mTJ8TkWmVD9McjUk7rpBTdOOZ9lyFL06UGf8tMMr20rzBvixusk9zNHemAxNCkApUd6c7pk/469ys36mQX6nYcjnimhpbji0X71J/9cn3iOm8NWbBo9nXoyuDmd+ocIoxqZq1zV00mur5CrGFl4xUpzW66tk4KKWkS0fBAEjtcsLEscfaS166lXLtPnCyr8z/5ie1xDCwNWbdg5dvLTJZTr2q2Yor6kzJZWruBEnzbwfmXAdRspUrJAGp3U2X/M86Pjel44AoHlTqDBOonwLl4/HbN/0Bh9VvaUXO8QRc10Y7rk3yVaaFHeq0o/qdseUL7s3QWsW+u4cRSb1vWY0Qi+smdw6rr1eC4HOsn7c1TKD4lkQZqwMGPvRw5bIfyxF/6zZSvauzZu23v0jDXhOX4yzDN9rukdfDP7PJ3+hwhd29eqqJOCIP7JdVv30PSc1S4OnUQbgWOXynwtwnuH6zPQHuaR57d17zo2k1qe8nKMv2luPBQzaO/jsRl6WXLJ/1lUhQhzBdo6e4cdjlq5Fbde+7ZSL20wWTvwlmPHpFFUgk5a2VOqoF8YZeAQBJYLgRzopBAl+6GSuB+oevjxvpHp5Pub8vmxbV3uz+y2dgxM8CHSNcwlP3dTWn3u/WPe91laO9b1Dh993zNa3XjP9QWXtu6BI9GqhjnN50InBcGtE0OOn1spTXEoGZHSUuKj5lJHNMc8vHOS7eLnWWf9m7zMsGrDztGJ7ApJMYQ5gH/H7sM9Ay+cusrdTUkXVFUnBUFwy3mbsaJ751j0UMmk4dRJQbi4W2mLeJ/MalM4m9of7hnYPz27pPaVOB1voTpKfHxzaWzc1tMymwpC9gfVHMJl1Yb+3YdOVauympWu7lZI9/jY87X30H5lINLKwwEIPLgEcqOTRBPcZjtL3jw2OjRUKg2PvjIx/uapWfYykYiSHGC/mk7bU0pDJdphPT1z6Xq5sj0Q8YXRuzzTbC/nUGlo7OibEyfOpiqIdhaHddxzZHzqw6tVmjbija3C1dufzkyxLbqlvWOpKxtTLr0iFO75LQ3tPjQxPhW9OBaTJM2lE7ucm+LbVn+dzVs3XPolTb52nMUy28wbMqlmFeyi4s6Ub82enDi6f7hE7TI9c6XyClbYIo4vgqq6oW31V+ldhxNnb1VumbP+vnIfXrtx2/DoK9mHDmcprpO+x7urvtLbNzR29OR59j10V8rqnLs1OaA5ebbvGpw7ttl89t3WuW108lKV26c6dUUuINBQAvnTSQ3FgcKXCQF6JbBt9Zquzq/3R9KhRkJ5mfBacjXEDyCuXNu5pqtzTS+9vUi3KKdmr1VbG2nG0gdmV30lbGi6rRKfFNFi1eLg5PCq1o7Va7o2bgvvkU7NXkt1j1Q1W8SSUmWPyfhvTa54dFupeit8VasdMgKB3BCATspNU8AQEAABEMhA4NZkqWfj0ETybgRfnovlm82yku2rAs6DQO0JQCfVnjFKAAEQAAEQAAEQaE4C0EnN2W6wGgRAAARAAARAoPYEoJNqzxglgAAIgAAIgAAINCcB6KTmbDdYDQIgAAIgAAIgUHsC0Em1Z4wSQAAEQAAEQAAEmpMAdFJzthusBgEQAAEQAAEQqD0B6KTaM0YJIAACIAACIAACzUkAOqk52w1WgwAIgAAIgAAI1J4AdFLtGaMEEAABEAABEACB5iQAndSc7QarQQAEQAAEQAAEak8AOqn2jFECCIAACIAACIBAcxKATmrOdoPVIAACIAACIAACtScAnVR7xigBBEAABEAABECgOQlAJzVnu8FqEAABEAABEACB2hOATqo9Y5QAAiAAAiAAAiDQnASgk5qz3WA1CIAACIAACIBA7QlAJ9WeMUoAARAAARAAARBoTgLQSc3ZbrAaBEAABEAABECg9gSgk2rPGCWAAAiAAAiAAAg0JwHopOZsN1gNAiAAAiAAAiDe4paRAAAgAElEQVRQewLQSbVnjBJAAARAAARAAASakwB0UnO2G6wGARAAARAAARCoPQHopNozRgkgAAIgAAIgAALNSQA6qTnbDVaDAAiAAAiAAAjUngB0Uu0ZowQQAAEQAAEQAIHmJJALnXTv3v2Fu4vz5bt35hfwDwRAAARAAARAAATuzC/Ml+8u3F28d+9+AyVW43XSwt1FeAMIgAAIgAAIgAAI+Ags3F1slFRqsE4qL2ANCUtoIAACIAACIAACCQTKC3cbIpUaqZOwkuQTzjgPAiAAAiAAAiBgEGjIqlLDdNK9e/eN+uMQBEAABEAABEAABGII1H+vUsN0EhaTYvwAl0AABEAABEAABGwC9V9SaphOwtttdvPjDAiAAAiAAAiAQAyB+XK9dyk1TCfFUMAlEAABEAABEAABEHASqPNubuikhA32zkbCSRAAARAAARAAgYYQgE6CcAEBEAABEAABEAABNwHoJDeXhohWFAoCIAACIAACIJArAtBJ0EkgAAIgAAIgAAIg4CYAneTmkisxC2NAAARAAARAAAQaQgA6CToJBEAABEAABEAABNwEoJPcXBoiWlEoCIAACIAACIBArghAJ0EngQAIgAAIgAAIgICbAHSSm4sqZsvnzi8eOny/VAq2bg22bMn2b+vW+6XS4qHD5XPn1TwRBgEQAAEQAAEQyD8B6KQEnbR46HA2YeQXUouHDuffIWAhCIAACIAACICAIACdFKeT7j0/Ui2RFOZz7/kRgR4BEAABEAABEACBnBOATvLqpCquJKliC6tKOe8SMA8EQAAEQAAEBAHoJLdOKp87r4qb6oaxV0n4HwIgAAIgAAIgkGcC0ElunVSjxaRQb2FJKc9dAraBAAiAAAiAgCAAneTWSfR2m39H9hIv3S+VRAMgAAIgAAIgAAIgkFsC0ElunZThEwB///fBs8/SvyefTKuftm7NrUPAsOVCYKq/pdg/7nbv5VJH1A4EQAAEak4AOsmNOFnx9PUFL74YnD8f3L8fQbx3Lzh3Ljh4MOjrS0zepBPV8aeL6/ddyJfx46VCS7HQsmnfR+6mvDN/YV9XkcXx///pqXxVal7UheROgvFRhNJxmWphdt+mQtfBWeVMjStIkONkGTWTZmGN7REAEQABEACBJRGATnLjSxA63/tecPWqZPcf/xH8+78HP/95cP06nbxyJXjmmfgcajdJpJogPzq4Pk5YuJmEgiNuLhSz8njJM0lP9VdSrs+ehTtUEZqeqdbenGkKj5F3x58uFgydVDf7BbEsgWS1yrDEq6sYIBU5J3SS30uzNG5F8FE0CIBADQnIub4uob+oSymOQrKOPnEqZ9eu4M4dWkYSUumDD6LndH19wcsvB4uLwa1bwY4dMZkk2ZO0iuBdKkj3tEXRAaQSXCsWfB5NskSmlasFDuURTRVV1UlsJUnqNuNQTk6ZdVI2+0mUyLrrLeuqb9b4siLRQJCkk6i+pvKzMonsTKGoQvfg/sAyl43udp4wiWya+YU7+noS07VRWp5zDYc5vVFQEAiAAAhkIOCQFLU81fw66amnaNHoz38ORkaCzz8PbtwITp0iYpcvB2Lr9w9+ECwsBJ98ErNjqcKBm0kB/8JJ2qctNEsZKyi+eVQ9HzfBqz4Xs7Tg0g1qEanDTN5Z6iSc9c2qZdVJGe3XFYDRskwQ6HZmjW8xiddJRKbr4GzkKk4dE/OMMmxHJo5NjGoT22EfNFVnMw6hYVLoUwRIJcNtcAgCIJAfArUURY68m18nvf02VevnPw9mZykwwj7Yffw4LS/dvx+8+27w0kvBD38YXLhAV3/2M9+SUgUeEM1/1qypZEVTjnYT746coBuUDPXpUFmF8sahEqUYUpcNrFWrxNlaL13UhU20MTMrk1Aqh4T6UnxNE2S0PwGLVXrW+KLiPBCnkxIy9yDlObNmtYRLjD6WamzT+vj9SSyTfc7Ho1WwOU29EAcEQAAEKiHg0DK1PNXkOqmvj1aS7twJLl0iSidPShk0NBR8/LGJ7to1GUH/ykCszqikIe/Mh3t09KULbf4T2fpu/UUEdyBuelYLiplWFQlVGQFFLKoLFeqqSSi/2NVI/VhKRbV2fsHUSRntT16cIzEh26WS+Gmec2lSz92CaZirNISp7qYnUFzsUljVppYBLILKQRqj5qM3jYyD8yAAAiDQIALmzF7j4ybXSUNDEZ/794Nf/MLxWO2f/znYsyf691//RZEHBpxSqQYTQIIaUEqU6yXKSWtiMzySJrPScde7Y+bSThTTmWFFRRuWZD4kMtZqln5GFRkZ7Rdiwg9TW+fLGt/MlswrugUHkUmurNleKk+z7ry9Pjq4Xj4pi1pWF0+sXBWjmm2CiOel6EnMiuMqCIAACDSCQI11kZl9k+ukH/6QKvS//xsMDZH62bo1+P735VcAjMPDhynynj0V6SSadVI8QVO0CC1a0LMPJgj4Xb7bpSqZlmiZga1qWLMsmyDVSTTuMUolRZvzZSQUdKFjrrjI9ZtQOlhmS3TqCgqVldH+FLpHW7LKGt+sPjNvX7YPNEgRo4sbCSEsxbbNPiPs0bNiC3iqG6i+l6DtquEVanEIgwAIgED1CJhCpsbHTa6T9u4lPj/+cSR9fvITOjx61H146BBd/bd/q0An0eTkm3Lcbc8mQv4QxDW3UQSuFfRpSX8qJGZBPaAnMW3Qr2bUGXpB5syd/apa0zA3+4xWyhJ1EukqdR3FVX2tQbPG12hTXUhAmws/Wo2Ml8uYxo2Eoy5u9FTsESR3EvOSoyEUz6Fsu7xOG11VHj7quen+o9U3hRmIDwIgAAK1JFBjXWRm3+Q66dlnqUL/+Z+R9PnBD4Jr14J//Vf34eQkRf7+97PrJD4Xpm94tpgkP7TomKrVRz/qtJS9LIdVeibK9EnTobn8E7/WteR50SidrCXzYqZ/h05SZ/RE+3XJ4hYiqlVZ4yvAVb3lUsMRvdmPLnDspX5aCJSra27zeBHxV3VxQ2WRDeFK3tNTvnW4yGaVgJqQXnY7WOWvavHq2AbjDAiAAAhkJWAKmRofN7lO2ro1uH2bnrslfnG7r48+H3Dzpi9mbDvpsiPFoG/O9PpMTGVps5Sqk9RwpRpFy9xY6lD1WfgqHD0vUx8pxsz3sZRc1jJNo2bOcsiokzR6yfZrn9/U0ioWaoiU9k0Vn+dDmWgqM0nWUEEF/a17QXt23yZbO0aaJoXL2U3jNoYqyGxWCajhaEOVVHLsfUn2UDXbkiqnVJHxdnVwBgRAAARCAjXWRWb2Ta6TtmwJpqaoTvv3O1eJ5Mkf/5iivfWWPJPlfTearnQxEeevYiqSM4Shfth8KZ8NKfN0OEvJS1knm2gm1qWJUrq5shVeMvay0KE9Z8dVWdZUMZg4OPMhI2PyN1Wm+lJeKvuFDFXBKobZ1kZCIXX8aAFGE0mMD+PvbD5Ggz0QZHGEwOI1cuqkUKPEsPI1CvNYVetE1T/+NNfEijYSWi3MjT0WlL88I/SWx8JYsDZqnAEBEACBpREwhUyNj5tfJz39dFAu06rS977n00DBv/xLMD9PXxDYvt0XxzffKOeZmDC3J8vNy2IyM2YdOffw6dOew8RUJCNbBYn8pUk01UkDPNu6o+dckXJis7VUUcpkqdlA520RkGFGZHXkU7LZJUgoOKrDo1k6SZEvKe0XD5I4cwmNl2KcCQ3WNjZ5YrK1QO3ZmZEV0xmaRgmVh8QeLSiGhKPaSQVjlBsKLOVRnVGcdajrMCM3cag0vba6Kc7zbVvCMaCTLNQZegTSggAIVItAjXWRmX3z66QtW2gxKQjoK0rOVaWXXqKPcd+/Hzz/vE8kBVu2VKv91I866nmqMkubRCkaX1TQk1RtFNaURzTvhgLLK4a0JGJyTRcgzRH3jCacyE2Fp2k+Xd9oxqSzv0YkmaTwQpOFCj3HAjGikJJENbK8QqEdybhIFnsNyKj2ZIlK/vIkrw533bg2rZqv8kKRIQiAAAi4CZhCpsbHy0InbdkSHDgQ3L1LrP7nf+hDSvv3BwcPBhMTwe9+F0movXtjRFJVdZK7XTH6KwRIJ8VIB00VKVpByQGQQQAEQAAEHlACNdZFZvbLRSdt2UI/c3v6dKSWRDXn5+kj3Z5vS6rKCXMwCIAACIAACIBA/gmIGb4+gebRSVu3qrLGG/7Wt4Lh4egD3Lt3O77QrW/fjvLZujX/ngELQQAEQAAEQAAE6iOPRClNo5Pul0pebeSUPllO3i+V4HkgAAIgAAIgAAL5JyAUTH0CTaOTFg8drp1OWjx0OP+eAQtBAARAAARAAATqI49EKU2jk8rnztdOJ5XPnYfngQAIgAAIgAAI5J+AUDD1CTSNTrozv1CjJSUsJuW/V8BCEAABEAABEAgJ1EceiVKaSSfdmV+49/xIdVeV7j0/As8DARAAARAAARBoFgJCwdQn0GQ6qbqrSlhJapZeATtBAARAAARAICRQH3kkSmk+nXRnfqF87vziocP0BlzKjwWo775t3Xq/VFo8dBh7ktDlQAAEQAAEQKDpCAgFU59AU+qkpmtUGAwCIAACIAACIFAVAvWRR6IU6KQH9LvvVXFWZAICIAACIAACdSYgFEx9AtBJ0EkgAAIgAAIgAAJNQ6A+8kiUAp3UNJ5RZ8GO4kAABEAABEAghwSEgqlPADoJOgkEQAAEQAAEQKBpCNRHHolSoJOaxjNyKOphEgiAAAiAAAjUmYBQMPUJQCdBJ4EACIAACIAACDQNgfrII1EKdFLTeEadBTuKAwEQAAEQAIEcEhAKpj4B6CToJBAAARAAARAAgaYhUB95JEppmE6aL9/NoUqFSSAAAiAAAiAAArklMF++KxRMfQIN00kLdxdz2wwwDARAAARAAARAIIcEFu4u1kceiVIappPu3bufwwaASSAAAiAAAiAAArklcO/efaFg6hNomE4KggBLSrl1RBgGAiAAAiAAAnkjUP/FpCAIGqmTgiAoL2CXUtNsnctbh4E9IAACIAACDw6B8kK9dyaF61UN1klYVXpwXBw1BQEQAAEQAIHKCDRkJSkvOikIgnv37i/cXcQbcJV5D1KBAAiAAAiAwLIkMF++u3B3sf57ktSdT41fT1KtQRgEQAAEQAAEQAAE8kMAOik/bQFLQAAEQAAEQAAE8kUAOilf7QFrQAAEQAAEQAAE8kMAOik/bQFLQAAEQAAEQAAE8kUAOilf7QFrQAAEQAAEQAAE8kMAOik/bQFLQAAEQAAEQAAE8kUAOilf7QFrQAAEQAAEQAAE8kMAOik/bQFLQAAEQAAEQAAE8kUAOilf7QFrQAAEQAAEQAAE8kMAOik/bQFLQAAEQAAEQAAE8kUAOilf7QFrQAAEQAAEQAAE8kMAOik/bQFLQAAEQAAEQAAE8kUAOilf7QFrQAAEQAAEQAAE8kMAOik/bQFLQAAEQAAEQAAE8kUAOilf7QFrQAAEQAAEQAAE8kMAOik/bQFLQAAEQAAEQAAE8kUAOilf7QFrQAAEQAAEQAAE8kMAOik/bQFLQAAEQAAEQAAE8kUAOilf7QFrQAAEQAAEQAAE8kMAOik/bQFLQAAEQAAEQAAE8kUAOilf7QFrQAAEQAAEQAAE8kMAOik/bQFLQAAEQAAEQAAE8kUAOilf7QFrQAAEQAAEQAAE8kMAOik/bQFLQAAEQAAEQAAE8kUAOilf7QFrQAAEQAAEQAAE8kMAOik/bQFLQAAEQAAEQAAE8kUAOilf7QFrQAAEQAAEQAAE8kMAOik/bQFLQAAEQAAEQAAE8kUAOilf7QFrQAAEQAAEQAAE8kMAOik/bQFLQAAEQAAEQAAE8kUAOilf7QFrQAAEQAAEQAAE8kMAOik/bQFLQAAEQAAEQAAE8kWgOXXSn84GHw8Hp54Ipr4cTLZl+zf1ZUr48XDwp7P5agpYAwIgAAIgAAIgkDMCTaiTPh7OJoxihNTHwzlrDpgDAiAAAiAAAiCQIwLNppPOfKdqIinUT2e+k6PWgCkgAAIgAAIgAAJ5ItBUOqmKK0nqIhNWlfLkkbAFBEAABEAABPJDoHl00p/OVnklSZVK2KuUH5eEJSAAAiAAAiCQGwLNo5NqtJgUqiUsKeXGI2EICIAACIAACOSHQPPopFNP1HA96dQT+WkSWAICIAACIAACIJATAs2jkzJ9AuDkXwcn/zqDrpr6ck7aA2YsXwLTAy3FgYnlWz+jZhM7Cy07J42TTXR4Yay7pWf0QhNZDFNBAARqQqB5dJK6nSgmPNUefPZ2hOr3E8Fke1q1VBO8Nc90cqDYvf9yzYtBAZIAyZ1Cqn+aSri4v6fQPXZR5lPr0OXR7lhZVmMdQ/UdmKb/x7AamFYokMEZndmqY0ZxI82zm2ZiJ7UXUfI0t2a8Uo86BKmamnfVoUxfETUdgtJnHvqbz8iE85XwtHzPLKMCfzazwHFOCCw7nfThoEb2/X9quE6iDmyPwpqVQZBxfOepE/sqjxgO+vxI+Ts9kHzTTKUkrA0sKX/FnOYMJo/m1L6e6ZafzygREkkl+UZtdVJ86c6rdNIBYWJnwatIrHwuXA6VjZaPX+to0XSiyW2qx6/vUdLapL/KhRYX5CVYnwpUheODxyVc1qpmSPmbcgW3njopzp+Ne7C8SGEX7wfr3LLQSb98LLjyk+DGDP378++1Bvzz76Pzv3s1mF4bp5m0ZPaB4cHWnOdVQkkjWliUMo5MDliZs6mUj+lJlvB5V1U2lKd7skmtk7wVpApkyz9uVEpjj906+pms+WeNr5cWVp+3jnWNTtBw7+FvxSdj3A5gLGzwElnm6ZJoT/10naROLTxny7b0J/TMrXSWvqEYzpPBxQtjA/rU7usgigJgfcTt8MwWpbtZtrET1AqpH7pl8p/M7RsEQZoun2ZOjcGSVIS/+6dZyMk0PsS0r+wCVuNyncS6g7SW6qW5fRCori4ztHtQlEml/Su1P0sPvDDWLS1ng2puVg2lkQ9kaFnopKs/o7YLdZLv/0FAWirmgV1lzR/dt3mHVOqTiuv7Ckkz1jjSxg3QanT3DMRipNIlNHLF1SJj/rGTKBvF0gz6agX1cNb8s8bXS0vUSRG9yFWcGsjrP7yomBmORzH/+hpFnREZ59Aw2b4UYYlSiU9apk38WLVNtUeHI0zyNpCaD887+kvZGhOkjJGkk/zzusxDhrzmUZR0/swgWHO/LMIOJVXBTMH0mReIGZsfR04b55/62MVbU7Qd5RTfTDGZxyTkFkZ/o5gOx0sDKu1Aqhbqs40T8AqvIIh1GKWMWB9W4iFYawLLQidd+yVhitFAk20U4dp0XJzspJPUQ3QjmGJsoi5XycyUZgigekkxxEZtfTaS/dk7YCXVNGP+CWZXSkO0YNb8s8YXBfGAY3Tml2hM1OYMcSF9gIZLzT1ihvVoYisWWnq64/cnsUxGaf+Q1e5LtJlNyVGtpT2h14UK2DnHSC9iaDQ38BB25mOCJe+VTu4PC5mi2m9m5jpOwKVVxJU+S/vK9AYuecERSjsxa0mTen0UmYaU7h6xCOoa7qSpGcefVO3L7Lg82t0zut/Z12TpWvXUg5gOpUYLQokTulBS/1JGXW6h7MUefzYKg04ygDTssPl10n//Q3CL7Y5N1Em3Lgb//Q9eqVSDJmCDQpqlkfTDgWZlus4Wbn7ymZFiEAkfq8VM9nGjjCN/wiLmJK1C/KCiYZ0nZnfwWfLPak/sWK9Mw/E2CHOTAjRd8ayEqe6mp4bgoodN9q5Ji5fHIqgPZ/mFinfLRRlEuiR0GLUppZ+4HF5ejfIRlaVjNR9pKOVjaqAYRxUJY5UNse0Ol4Fd+SuSK8Sr2SmKUANu46MYye1Lya1q2me4k6glxz4TNyJWdBjZxr3OmYfVskosx/igXHXydw5lpJO6u51muJxNKYOCcRYqUSkaL4LC/gVLV56an8S6RFgkxRfFKVYgWH8CTa6TPnlTIptsC2Z20NO3mX+MxJB6KOJdOeaWSiJC1QLUP7VlAG/O8YOFJ1nUtx1DiVlo3CiQquiEO8uM+WvjhbtyS7qRypp/1vimyWzEdAsOiupoIGPaM9tLLcBky9tL38oQptDFEyvXM3cmPQ/ipaiWpAyzCYCWqbLqJEu76O1iugRdZVrB1IJs5o5DGqoun5wKzbCMUdWMQUK307gYHprGy0hZ2lemikKJzUTlGs625NVNYUXo2E7VIuKwgFlH9aq/CpECk1qEOIs3EE3HZsa425Qu6f7gwmKC4npIMTZT/7IXknU/8btEWGIaN1ZsQ7CmBJpZJ/1ynYZmsi2Y+3905g+/ipSQeqhGffv/OKSSGsERps5mjsiOaMopcnRam2XjlKPXKVH9g4USyQhGd+3GExmKZA0Z1qCvZJWq6ASdlDF/fbxQbFGCMdOSEssdzJp/1vhmqaz6o9k+0MDaiI31+uBr5m3bZp8RafSs2GTgnjnCG+iYdxhTeYUoVw1MDlA3ISMz6iTdeMrSqKniEsLDPb2SJubYHuf32MkBltCMEDerGXaqNERYMV6cc9TRrrUW2zqQnK1LbAXOsa2QkjgWQjwk7WyjM9KBvVHEBROmuKBtCVDPEi7WgopXqE1ApevSJ8YeO7JaFAvHKTkZWTGGb6739S+2Bq9bGOPPsggWYnVxtJERDYf1I7C8dNLMP9F60m8G+HqScqgidb74pkawwnHjkRWZnQh9PRqsXSOp2nv1aYkEVuJdmp7EtEG/mn2cMvLzjfJRtKz5G2/GupJnB66YnDX/rPGVouQe1fihVm9TNg1ETawPvlrWiTvEzdhKKZRt9PDIjBVl293jdzPdfxwZJJySzaeYpDzdIOfX7zocJbp6DZVL9KL5yc4nMkxSJQOsNRXPGWmS4ZNqLeyqL8F/pJ12tuYZJnwNy7t3DpiKgZKpDmZm43qIKdvLEdtxKlt8A6aWn6Pd1Wesgo9ZopmnOpxqBcgeapxWD+M7r4ipuEF8/1K3hIrUPn8WEXhAVYT8HP42lEAz66TJtsB47hazRUlQruS5m3c4FrmaAepRyh2t2auNLd7qYJG9LLNs6wUTpXtTXBoU1JlDsdORVYpTWfPXRyUxFGolGXlq15IOsuafNb5Svjp8x4yDFy9c5th3DtC9stTB7urzIuKv8ljyL9kQNu7AtL3yH8aLbNYJy4S0QjmW4qtaslA7FBWh7XsNXS6suOnkMr6Sl6fuqTqLJy3P3dEf+aXwrx5By03nRtGX4D9azroJ2hEVaihLdp2KFqoxSnFxf4+xkqFlRQcqQ2u4sGLbJ9KaHaY0iIU2yyHIGH803yDHCD1Z6TKUq8487o6CYhpF8EV3aYPWJe36ijOym/j7V7QoaC01pYYGnSR45yXQ5Dppsi0487Tcx/3rnuDimPnv1z20vBQEFO2/v+144haqq7gW0bpuXER+zVyAsXq1es+kD1vGEMZzzPTXMTCJidnohNFNqryTzlRQGFmrXZr8FZ5aWqVspQrRWKlcTApmy1+740xhjyydjNSG4KShkAxTPvNDOYnaOac3umoNuNKA2JDbGKogs1khrHtjaKRwGP6IwZqPYwqXZqulyARKA9FJw2fCeL6OoJ438hEFODMUV9mu8Hiqmk5SS6RMzN6tvveeyX/C1o+3hAr0VVOpkTNI8Pkdkbahx6hR5vyF0zqLNU9qTIymoUNdAuq2RVXQehnlrzWQWaB6rKw+itNUqC4lIzOM7iwSOAPu/kVRjTqGqfV6OXPEybwSaH6dNNkWiO8CfLDLwfmDnZFOWsJ3AWhccN7POcoL73WMjm10EhqYxEtM+jhoXHIWEHOSJTdNVUo3x5fwEhsmvOM1y9N7Vb89TZl/NH1Szikkmj2uxRBgl7LlL16nSmkPFcFcwmhlfp+qzUncVJotwkYP24in5cScOikcc/UxnWcY+5eZp2qdKHa4f4gOIkQUNKY99tQm2iCi3ql7LHTYQRnGOYzGWZUdwryYHJSZT8uH28HwxpWeYpbljeJeGxBakxfJYTrtEZGcgTS+XUG25iikQGPNrfNh3pKmJ4oqxI8YIloYyDT+UM58TGBNaawkUZZqHKMs7ZB5Mu9o4oqm28Kz0wNRKWGJwgCRxgwwYo7+ZcjoNP5sZs0Gigq6vJkPjqtHYHnoJPaDbpNtwS//L60YGf9++X+5Tnrbu5gULjglYGVDg7g/swLCs6kLWTOlOhnYfcy4NWHdm98I8oJE/tLM6GZLi+mIpt6Psk7IhyFtsjRskKXYG8OVayyojOOp8w+HZhuUmXd4TDW1xjt31Ohstvwj3aOKV3/uEXb3KBkNlPrgHjaoxB7JlLBGET0xpJoFM6TqozozgnkcjvVJuBSdxKd5lpE4z7fdCMeoiU6i2gmSly9eEL0szn6lg7C0ESLeEazeZxJSZJB5KTyWEUzflis0LqmR1p/VUlO0b+jMmv+oOTjDlK3KULkjksDVlII8x8hHnrDK9sCitIIjiRLfZCgrIpxN3fgc9S/KU8aMLA1921gNUmsRhqNonl5DNVXM04ZBlp4iWEWLUsLMVbbikvFAMK0/K+nDHHTztMs4aACBZaGTwh++NeSRcRgE9Pu4aTYwLbUVlJsnLSt1GBITA48hx2V+pqp/aUQTk4c2qXh6e8bSa52/cZeW0bqqRqdBPAU0BpmGWhbQBmXbnKhFLK9QYkayL5q6vAZkUIfKFMWXx8LZzjaDu66uDBTrzCCZ4YqszKx2KWYmNTjmFTGmSbuksD9qPUUusFF00b522orOpGhfabzUaqE/uFALI43I/um/IrvTJVrq+KAop/iuJDH6mEQGCyHl83l3xTL0L3cGONuUBJaFTrrwH6nY/8+/10UnpbIFkUAABEAABEAABPJPYFnopKn24P3vmdu3jQ3dv/nHYLIdOin/HgkLQQAEQAAEQCA/BJpHJ019OU7lxDxQS3Np6sv5aRJYAgIgAAIgAAIgkBMCzaOTTj1RQ5106omctAfMAAEQAAEQAAEQyNJM5R4AACAASURBVA+B5tFJHw/XUCd9PJyfJoElIAACIAACIAACOSHQPDrpT2drqJP+dDYn7QEzQAAEQAAEQAAE8kOgeXRSEAQ1WlLCYlJ+/BGWgAAIgAAIgECeCDSVTgqC4Mx3qryqdOY7eWoO2AICIAACIAACIJAjAs2mk6q7qoSVpBy5IkwBARAAARAAgdwRaEKdFATBn87SM7hTTwQVfCxg6suU8ONhygT/gQAIgAAIgAAIgICfQHPqJH99cAUEQAAEQAAEQAAEqkUAOqlaJJEPCIAACIAACIDAciMAnbTcWhT1AQEQAAEQAAEQqBYB6KRqkUQ+IAACIAACIAACy40AdNJya1HUBwRAAARAAARAoFoEoJOqRRL5gAAIgAAIgAAILDcC0EnLrUVRHxAAARAAARAAgWoRgE6qFknkAwIgAAIgAAIgsNwIQCcttxZFfUAABEAABEAABKpFADqpWiSRDwiAAAiAAAiAwHIjAJ203FoU9QEBEAABEAABEKgWAeikapFEPiAAAiAAAiAAAsuNAHTScmtR1AcEQAAEQAAEQKBaBKCTqkUS+YAACIAACIAACCw3AtBJy61FUR8QAAEQAAEQAIFqEYBOqhZJ5AMCIAACIAACILDcCEAnLbcWRX1AAARAAARAAASqRQA6qVokkQ8IgAAIgAAIgMByIwCdtNxaFPUBARAAARAAARCoFgHopGqRRD4gAAIgAAIgAALLjQB00nJrUdQHBEAABEAABECgWgSgk6pFEvmAAAiAAAiAAAgsNwLQScutRVEfEAABEAABEACBahGATqoWSeQDAiAAAiAAAiCw3AhAJy23FkV9QAAEQAAEQAAEqkUAOqlaJJEPCIAACIAACIDAciMAnbTcWhT1AQEQAAEQAAEQqBYB6KRqkUQ+IAACIAACIAACy40AdNJya1HUBwRAAARAAARAoFoEoJOqRRL5gAAIgAAIgAAILDcC0EnLrUVRHxAAARAAARAAgWoRgE6qFknkAwIgAAIgAAIgsNwI5EIn3bt3f+Hu4nz57p35BfwDARAAARAAARAAgTvzC/Pluwt3F+/du99A8dV4nbRwdxHeAAIgAAIgAAIgAAI+Agt3FxsllRqsk8oLWEPCEhoIgAAIgAAIgEACgfLC3YZIpUbqJKwk+YQzzoMACIAACIAACBgEGrKq1DCddO/efaP+OAQBEAABEAABEACBGAL136vUMJ2ExaQYP8AlEAABEAABEAABm0D9l5QappPwdpvd/DgDAiAAAiAAAiAQQ2C+XO9dSg3TSTEUcAkEQAAEQAAEQAAEnATqvJsbOilhg72zkXASBEAABEAABECgIQSgkyBcQAAEQAAEQAAEQMBNADrJzaUhohWFggAIgAAIgAAI5IoAdBJ0EgiAAAiAAAiAAAi4CUAnubnkSszCGBAAARAAARAAgYYQgE6CTgIBEAABEAABEAABNwHoJDeXhohWFAoCIAACIAACIJArAtBJ0EkgAAIgAAIgAAIg4CYAneTmoorZ8rnzi4cO3y+Vgq1bgy1bsv3buvV+qbR46HD53Hk1T4RBAARAAARAAATyTwA6KUEnLR46nE0Y+YXU4qHD+XcIWAgCIAACIAACICAIQCfF6aR7z49USySF+dx7fkSgRwAEQAAEQAAEQCDnBKCTvDqpiitJqtjCqlLOuwTMAwEQAAEQAAFBADrJrZPK586r4qa6YexVEv6HAAiAAAiAAAjkmQB0klsn1WgxKdRbWFLKc5eAbSAAAiAAAiAgCEAnuXUSvd3m35G9xEv3SyXRAAiAwINA4PjTxUJLsfD01INQWdQRBEBgORGATnLrpAyfAPj7vw+efZb+PflkWv20dety8qHc1GWqv6XYP6406EcH17ds2veRcmYe4UYQ+Ohg/74Ld+YXZveV0BxL7y8kOiPFafl8oofzTjG7bxPPpBEukWgnIuSFwIV9Xfq4Or9wh7yodDwvFtbcgaGT3IiTFU9fX/Dii8H588H9+xHEe/eCc+eCgweDvr7E5EsfKx+gHMZLha6Ds4l90u66fEqoGiu7iESrXBHY4kpjRhmaHes/wLl0ElniadaYS9SUKf3BRb5qntDIzBVtVIGHyySUz3qmX+OxVF9R5bAFk7s24aI10RT/DKqKrnVPN/H86SqZFxat3PiNl5jSnepnPXp236b1+y5EC7e6kYY9YXGpm1XTSWHfPO7vvMl1aWTfqZA/dJIbXILQ+d73gqtXJbv/+I/g3/89+PnPg+vX6eSVK8Ezz8TnsCydqUaVOv50htGcurE+RmiHnok5reXJg6nbne7MG4Ns6fj8hdlGLHQxPkkSbbykQYvhyQfotPGV527hgOuUvzGX7swvpPSHtG1a/VH7jzOTb0198MfIgNtffH7b5xUVnafWiVowHpSbgNRJbPZN0SOoFKXh9GwNx9ZlhC/zJemkqf64RWKa1J2yQDfbQZ6qqedMmsNXBWUoiOVDBbk81lkLP0ynGS6dJKp5/GlrEUhzdU39iFRawBoH+scjs101ipC6hFrSgKMZ5mgazapGRJZzfV1Cf1GXUhyFZAUdp3J27Qru3KFlJCGVPvggek7X1xe8/HKwuBjcuhXs2BGTSaI9f3j74I4dPzp+pV5Oc+Oj4/ue27Hj2R07nts3fuHz2vrihZcHn93x4m80CFem9sj6+scLPmdrz9fIWkpinlSnhKXUiPLRJwD10DmFOJM4BzvFsMQBVyOmJEx/nk0G1Rm2Ut8lu6cussQDxLqU3R9uf/buS88zf3526KXfXK2uUkkgr9b3wr6vFQtfc66GUrRU+lKnpExRfixRkrRFhB2H+UY6k5w+r2Bhk6XlZta8q1bfI25sPWGfUQdJ5aqvOJ2n1ndYkmgYYV3YHFJEHemqolZjgShNppiqliWyNQNKdcxLbGGVytXWk3h1XAmdg5I6lOkykWdFXhRy4F3ecrwYpOECMCvFgOlSVE73sxzJRlHjMw5JUctTza+TnnqKFo3+/OdgZCT4/PPgxo3g1CkidvlyILZ+/+AHwcJC8MknMTuWuAsq3UZr6T++vLW44qFiz4ufJcX05ZDl/AcHNzxUXNG1fde+w/sGt69/qLjiiYMztZtaTj/f8VDbii89N6VWmfqwsqTML9HYHTsGRXxo0LG6kyfPypEu4T6YBoX40aTSJ0p88FJa3G8nmwstUJy2j4wlXNgY7WovVw6qbpBGOvLkZiRcSvaHKy/+bVuh85v9zx0+8Fyp5y/bCl0/mmGZz+5P507cEld1ZBU8V7X6zrz83K6XP4pi/uLZRB9gk4e/gVSX5j5PuNxM5AwnTVVzSFdNf/5OFFSox54ofpYMNZisFi4FICpCtfPTE9FiAhFVZy0sfaCJDD7H87agajoiKOYlS6XYyrrXk2wjlRJ5xd3SjV+V3kJnuBeJUUUEKh2y9Pw1L2LQHBNBTJI6XKqlKHLk3fw66e23qVo//3kwO0uBEfbB7uPHaXnp/v3g3XeDl14KfvjD4MIFuvqzn/mWlBKadu713pbtB17YXnji8G/dvqv5VkJu8TncfmdXe3H101N/ENGuTfW3F9c+p6/3iKtLDrz73PqO5w4PdXbsmFRq4Ry+nSdDA2iIEd2JDWrhISXhA5YZEPFFuWFCLb7nvpaSZBnfRRFRIJVOMkZ5vS7a3Zg6VFmUYuxUx24tw9hmpVSayKOxOAaU7pAU2S7LylMS816yaioLUv3h9PMdLd88cIlnePuzmXPRUzDKmU9jMm1s3bNHI6dyw1FbzVWo5SR8iuKRmYoK3ViW4q+UmZzVJXbq5QWpT4rXd6WH5m5rg2GWSVp2OlZ3ravaTen1HFkv7hXaGRMU5ePQWwo6pauq/MlI08GUVFqhZAkriI9LTDa5pJVea2GYVyfxDH0brqkgh3ji9oSXiInDmK5SP53nyXWXdrSROgibZMy28GA3oxnuVIdDh5ap5akm10l9fbSSdOdOcOkSUTp5UsqgoaHg449NdNeuyQj6Vwbim/bqi08W/ubVq1de7VGH+3OHezvXd8h/2w+cW5h9YXvH3x0WmzymBtd3DL4TZj41uH7byx+9s297x0PFtSPsjvaT0/u2rl/RUiwUN/Qe+Ch8uPaHn3y30LL95TnNF3974JuF1tJxtqRE+bxE+awtFgutHetLb/1WLjV9MfvTZ9cXi4WWttWPP3f8kzCTCwf+bsPQ25+FRRceWt/7Ir+fpmHinV1f6tj19sLUro6VpchUMtgxBbKZoEu9J6POybuiMhZE4ws7o+ajhml1WiZxZBINYWx00DSBJKOM7/ZNmzJ2WKNhuEdBlxoyW+kMxkDJzaDhg4d5ZG1kN0ZnxU6zFHUk4hD4kOcyOyyOUskxjtVdHppFcAv5ec+g7KpUlMRzKbU//OLZgtpxeMse+Lv1q4vFwkNrqROFveY299LWjrVbD8/cZAbc/mLmp8/1rOugSaK4acfPr0Q1One496+en/pkatfX6NLKrz03dW3hD7862PuXbdQvBt/hdxrMTr4/WnRJCrRTzNXUhfXF1NBCFZSYhtV5SPFzFRGF1dlIqlLmzOol8qI4z+Ftp1aBZZKmuVX7/b4k1ye07cnKlGy4OqGgq5H0VIAwB5adegl3MhoTORZpA0j4cJ8XJxpIv30yeiLxVGJyvNpwF9NbmVrlJdpIvTpJgUnojA5O/Ze0r3AM7hXsjBGZegQ5mHCAjw6uZ1IpvPPRLtkWRmeYC5lm8PFBpDJpWxFEzLoHzJm9xsdNrpOGhiI+9+8Hv/iF47HaP/9zsGdP9O+//osiDww4pZLsMI4m/+zFvwmfuFFgwwE+TN/+4uqVz9i/jw78XVu4AqQOl9FkzB36+NPFjq5Na791+N1zF357beHO3NSO9uL659757Y0vPv/g1W3tHf3jdJM9tavDsX/igx+tbVk/dJo8lXp+6/qe4amZK5/Nvn2wR1lqoqcY7d998Td//PzmlannxFxOvWJ1+6aefe/MXvnsnZFN2qT19nMrwyduFHh2Skguq5NEszivTji8Uk+WZ8KOFI5xXAap+ahhXSfF8vfdE1/Y1+Ufs2Q7hoOCMVR5DvmUEFWWDUDWUoTbHq3pqaZigOMopElyxKFUMiY7T2mLyuKcjCwoKaN/RpEU+g+vpsgwGnxd532XUvvDwp3bvxlaVyx0bt+j77T7/JPPXvxWsfCtV6kTffLFnfk/Ht+xtvC156cufPH5jY9e/NbaleGq6rXXdzzx3IunL1y98tnMi9tXtj75Yrg0RaDWru56ct/bF67+5tVt7cWV6zas/9uDU+c+m/1paXWLWB8lBxCNKNB9fu2zd57bUPir59+hXvxHawtg6MYSPp8+hdex6W3fQSb3tSb2z1V6nlxh8Jz1iV/1Fh4zbC+Hz6iRWThqHTH1xnlUtJ9GdQZ/mPmbVH7WnmhdnClVkyT9mQs+ImDsdKTzoinVNTYpMrQqs26uD1Du1tGGphhTtYY2K+LVScowpY0M0UM0KTqp7SLCSjWlPazp9bGL9VlRqWTgTNw7M9erY6CWNujRGnO+xrrIzL7JddIPf0gV+t//DYaGSP1s3Rp8//vyKwDG4eHDFHnPnsw6SVlGonUd69HbH17eXmgvHb9GHkP+qkw2YlCO9M2659/lQoRiKlnRktX2twxpJT2SHvwZe/ciByWTQqFze6q/VcwN4ULRhj0fRF0xWsGaX7hz+61tPKtQlkXLSLff2fElJbk+cLBhV0z84eq0Ywwigz86uJ4GJj6gqPmoYRHBGuJlrfklFaO8ao442XqsO09eoijFjkZnlCYWMWWVKRNllNEnOSU+dxhDJ0U2hNMwfeXI+icyFwE7ju8MZWs/dLNdVy3U8OrISxWzKUI4P+lzkszk2ukDT29iS6eb+g+cFvu4NbzUoMrjOep3332d9xee1dSOVm4/xQ89nCo7M7Kh8Fc/4tv4VDJqmN1mcCPtevFSXKsOhr/JSVGZBVljUba8CJkh9woJnzuGMMObkMcMcyNoylqsXoSYaE2r2DqKfVeT6bMOkU8Kg3WfD12OaIs6Jk/bmnvzQUOusWltRzXVdZisu++8lr+yucc4T41rETPi0KGw0NW/pEvQUBl+F4Al0ZWN7DhUO3UwYS1LkR06hizUzlMriKwi54w1L1r7T1NNbYFNQnYAcXGofTRTyNT4uMl10t69xOfHP46kz09+QodHj7oPDx2iq//2b1l1EimYdc9PhUtHbz+/Vh3K5xfuXHu9t3VtuBRkTzbqNKCG78zTxvCVX/tu+AYQ/f9v14cdhqJtfZ0/MuBeyDrJjl/QoZ5POHA8+eKVhTu0C2R9D70iF/777vovhQOWMdaoM+U7u75U7H3xClsVu/Li1qJ89KYOHFH/D41hfZv1T2W45HbKHsJ7LLPcc7eXrsfaVWaleCcVaYNtlTxjYvSl0qcobWyykrjyNOBLA8LRJz5DzwiltqCZoSdJFI0sdIs8U+Ir+bAWVyf+SvyBGXDjo9cHv9nRSm+chYJGJUb3G1/atE068JMdYuq6eeXdnx7ctfWbHZ1rV4jZQnVR8xZFxa6Gte4T58B6uys0DODczxVnYG2qTY182tMjiyKoIqXjenX0EpUWp1SbvJM6Wy0QMkXPxFibkS7BzTOqZh5SvSI3iOxxAlS1kRoOFYPfNlWbUpP1j1uOR5AFCgp4BhbrvPBen5xywM+cP+djvO+mN3rY1sxbuJAKObPiWN9UO4XVgiwyZWJ0ZObkXdpdup5Wq05cK4SeLJxTcWw9Q9M96nm1xrrIzL7JddKzz1KF/vM/I+nzgx8E164F//qv7sPJSYr8/e9n1En0rG1Fu9yHtPoh5dHb/JUX/6a4eofcc20MHKrHq+E785Tt6u0HX//pW/Lf5Ed/mF+gZ2fGq2fRXRQTQ7ZooJ7PLr393MqWb+76iZLhT996h55QaPOEMtAs3Hn7uZXR/gxWwa90FMSjN8fAQR2DasEnWqOyej+RowMfPvz3ggldMRw0jW6pnYy1xEgYHtKokWp6UMY1hi6ttoto+MZlXmWyXNwU8pM6SdP+CpIoxsh7/fhS5FU2KPsG1tT+oNTigx+tbynaop9uSL7y3X1qj/jpOzNzC3c+erWnvW196dV3z/3xc9WZdRfVfUD1eTVcL50kJmatTbUnXIrBZKF7FUEkZ63AZEHpuG9Vg7aqOD95IOHrwsVcINHHKJmKOYPW49i6jnNZy6QtehnV140lKsgG4oyvulzopc6cXXXRbONVEKIqTdeWw5rsILyNuO5Jq5OUHJgDcDguy/W2kM7AjA8Txkhkdkk0RHL+Met2vLKK8bptdYlgCpkaHze5Ttq6Nbh9m567JX5xu6+PPh9w86YvprfVafF/w573pCu8+9x68bzsty8+WWh/9riy55p67F9F7zwbaz+Gd9I+pL971Vw3ml+4c+nwhpaObT/nn8Ujt6PFJ1GokY987kamrt/1K2kqr5Q+OsgbMrYX6lvK2hU93eOP3vRJKMpKP6mMa3ah2oBCNrdsWp/0fjI3WMuN0tqjv3a7QxX0TeTOPMnytOqEFFWmzGWJbDiLT5vFkhBLaoWnD1isoAoqwkZwm3+YeUp/MD/tSFXofZk8XHNmEvrbX2TPryXDcMceeyTNTirOHFe6Ek2VVnqJcQ6sZ67ao4c1Pw8vUbZ8ztMia07LFvB4NNZBoufafLrVekFMPtqlqNGJMF9rkY/LQ+BivozWv7kNSbcBRk1ZETItt1bnpsoyNeyymZyB28a8zsycG2Dce1CJ5vNEd7dSE1JYEUZhJsn3TtwGvXOF1eFfkrR1kmiLMKC1CKVVDdNdVAHFmHiaNepKFgd+XqmpsQ3cVRFWaFxNFat4u3vzqUmEGusiM/sm10lbtgRTU1Sn/fudq0Ty5I9/TNHeekueSfe+G93jdj7/ruoE4iXnjw6ub127623dD2is38R2BS1c/cVz6x+SHVibEsJ9PK1rt70UfUPy80sfzfIZ4t3hDYXWTUNvX6G9peGO7NZN+2inEf2jfP7y2eOXvrgzv/D5bw72fKm4fn+4iyXaBvtO+Jrb7S9mPgi3nKtzhrpwzR66semK+z17Ghi+9aaPd1EEOml1chWODJvdjM0EkgYvUacnk0fLYDTWOyZpqpGiP4wKxuRJlzIqhmyZi3qlLMU9oGsc1Op4JidvfJY2mgO0sVLYGRsIp1t/i6fyhy+mdq1f0fXs6x+Qx965/cW7I5sKfC82bSqSm/boI5Crv/XqbPia280r4ecDwjsKtqXpi9mXvtvRymdT3UWJpHQVtdXUsK7Mfv7dQuv2l3m/M1CQx8oM1VZQw6afW+JDRtYFkLQqtHwfVwl6NJk8Mo+1puL8VgRdF7I5mDe9TswSRtTc/pylweFWp/VPl6zRwPRPqhqXO0muLkiGXmdbIiLYVQ6lhipHbKcl+0XtHKMxySaKE9voMTaoG/ypdNmOYp1Pe2Ct1EIX0IYfOg6tfhf5qukbjKTtw+mKS+f/Si3iR6GqXjWFTI2Pm18nPf10UC7TqtL3vufTQMG//EswP09fENi+3RfH4YvUrlcOPFHsMD9cRPKCfrhnh9otxRL0hQNPtIV3ch3bX595absYJsyeOb/wh1/9qCd8L7q9rVDcNPQrNpFQuX+kd/hbo/xX/OX2fb+Sy0vMfZ/s7Qyvtq0fnBK7Yu/cvvLy0/ShgZVfWbuyta1j++vsCwXKAEeZ89Fw8tmV1gcISBeGHyAwh9SwP5jjoIebvp5Pd0t89AnD6p2c1n/YOMXvmfjNpdUVHf08Glv5PXSEzsyBjSOFuMnAKst7e+eIGdKgBqIq2CO1I0nS5CGTRNnyWcdP3kqSfJcsk4TZMqtYLRKKS+cPNy+8Xtq0kvtzofjkHuHPl17teahYKK5d2c7ezL92es/fdNBXLTrXrmjtWP/cabpV+ODVnnaKs7rYsX5w6sC3suqkhaldawsPRXcaWje8/c6uTvowweqHoofaOtXIG8Xkql8NoTkmTlUcKEl4TO6E4XzMunP4sCyKwJclzEYREt/0aq0H2c/Zo3Wa0H/UujjsFLbxPhh2qCiVvMqFlyya91zDYYyuGnX/qHtGvVWdyFmEcGeSWU0q3S5XUJIjAPs1j4Q+aPQ79VDqG1k7tRSPDWSe1uXDfFjOxf59F8KPxSjNLfIMN2Zxr3YUqsQMr2plsYoLhgQwtNAY9tVMeGOJVjZajdtg+4ziz2qG9Q7XWBeZ2Te/TtqyhRaTgoC+ouRcVXrpJfoY9/37wfPP+0RSsGVLdZv/808+u3pNiJ4EH6LI9FK0FS387oCVD/kuc2tKeMNKRUtQf7x65bM/hDfldrZLPhN2HkORWMogHPTDDmmPLKKj2pdcNVqyzXz9Wd5QOoD7SjHGel+0UFG5lr5jylIH6JhojLk2CsdEjt5symgJZRg3EXrbJZ0/0EoSf/9fz4qd19z1Bn1uQ/sVNjuOvxVcZL74g5GhTE6X3P0ojCOZ0NRrTt6urULUpvbEM16y0rJVEC1mONm7OkVkRkofEP1LUSRaQXoTSBrZzwvp486fq8MURRA3bb5XjA9ndKMIUbTvtiSEZqQSlmjJXcxFTNG1xf2ecin0N6e60mrEkzhPys+sCO0iAoIJ5cDlYHSSDlXtS8akHq9cPcV2AF6iswl4pdJlZWde4RlTyNT4eFnopC1bggMHgrt3idX//A99SGn//uDgwWBiIvjd7yIJtXdvjEiquk6qqdMInVTTUpA5CIAACIAACOSQQI11kZn9ctFJW7bQz9yePh2pJVHN+Xn6SLfn25KqcsqhK/hMgk7ykcF5EAABEACBZU9AzPD1CTSPTtq6VZU13vC3vhUMD0cf4N692/GFbn37dpTP1q1N5FifX8vwUK+J6gVTQQAEQAAEQCCRQH3kkSilaXTS/VLJq42c0ifLyfulUmLDIAIIgAAIgAAIgEDDCQgFU59A0+ikxUOHa6eTFg8dbnjDwwAQAAEQAAEQAIFEAvWRR6KUptFJ5XPna6eTyufOJzYMIoAACIAACIAACDScgFAw9Qk0jU66M79QoyUlLCY13OlhAAiAAAiAAAikJFAfeSRKaSaddGd+4d7zI9VdVbr3/EjKhkE0EAABEAABEACBhhMQCqY+gSbTSdVdVcJKUsPdHQaAAAiAAAiAQCYC9ZFHopTm00l35hfK584vHjpMb8Cl/FiA+u7b1q33S6XFQ4exJymTXyIyCIAACIAACOSBgFAw9Qk0pU7KQzvBBhAAARAAARAAgfoTqI88EqVAJ1X4+zL19wyUCAIgAAIgAAIgIBRMfQLQSdBJIAACIAACIAACTUOgPvJIlAKd1DSegXsIEAABEAABEAABoWDqE4BOgk4CARAAARAAARBoGgL1kUeiFOikpvEM3EOAAAiAAAiAAAgIBVOfAHQSdBIIgAAIgAAIgEDTEKiPPBKlQCc1jWfgHgIEQAAEQAAEQEAomPoEoJOgk0AABEAABEAABJqGQH3kkSilYTppvnwXohgEQAAEQAAEQAAE0hOYL98VCqY+gYbppIW7i+m5ICYIgAAIgAAIgAAILNxdrI88EqU0TCfdu3cf7Q0CIAACIAACIAAC6Qncu3dfKJj6BBqmk4IgwJJSes9ATBAAARAAARB4wAnUfzEpCIJG6qQgCMoL2KXUNFvnHvD+ieqDAAiAAAg0kEB5od47k8L1qgbrJKwqNdDnUDQIgAAIgAAINAWBhqwk5UUnBUFw7979hbuLeAOuKZwVRoIACIAACIBAfQjMl+8u3F2s/54kdedT49eTVGsQBgEQAAEQAAEQAIH8EIBOyk9bwBIQAAEQAAEQAIF8EYBOyld7wBoQAAEQAAEQAIH8EIBOyk9bwBIQAAEQAAEQAIF8EYBOyld7wBoQAAEQAAEQAIH8EIBOyk9bwBIQAAEQAAEQAIF8EYBOyld7wBoQAAEQAAEQAIH8EIBOyk9bwBIQAAEQAAEQAIF8EYBOeyBvpgAAIABJREFUyld7wBoQAAEQAAEQAIH8EIBOyk9bwBIQAAEQAAEQAIF8EYBOyld7wBoQAAEQAAEQAIH8EIBOyk9bwBIQAAEQAAEQAIF8EYBOyld7wBoQAAEQAAEQAIH8EIBOyk9bwBIQAAEQAAEQAIF8EYBOyld7wBoQAAEQAAEQAIH8EIBOyk9bwBIQAAEQAAEQAIF8EYBOyld7wBoQAAEQAAEQAIH8EIBOyk9bwBIQAAEQAAEQAIF8EYBOyld7wBoQAAEQAAEQAIH8EIBOyk9bwBIQAAEQAAEQAIF8EYBOyld7wBoQAAEQAAEQAIH8EIBOyk9bwBIQAAEQAAEQAIF8EYBOyld7wBoQAAEQAAEQAIH8EIBOyk9bwBIQAAEQAAEQAIF8EYBOyld7wBoQAAEQAAEQAIH8EIBOyk9bwBIQAAEQAAEQAIF8EYBOyld7wBoQAAEQAAEQAIH8EIBOyk9bwBIQAAEQAAEQAIF8EYBOyld7wBoQAAEQAAEQAIH8EIBOyk9bwBIQAAEQAAEQAIF8EYBOyld7wBoQAAEQAAEQAIH8EIBOyk9bwBIQAAEQAAEQAIF8EWhOnfSns8HHw8GpJ4KpLweTbdn+TX2ZEn48HPzpbL6aAtaAAAiAAAiAAAjkjEAT6qSPh7MJoxgh9fFwzpoD5oAACIAACIAACOSIQLPppDPfqZpICvXTme/kqDVgCgiAAAiAAAiAQJ4INJVOquJKkrrIhFWlPHkkbKkPgcmBYqGlWBiYrk9xKAUEQAAEmpRA8+ikP52t8kqSKpWwV6km/js90FIcmFCyvjDW3dIzekE5g2BDCFwYG9h/OQiCi/t3ojlq0AKK50/sLLTsnMxSxsX9PYXusYvB5dFuvftkyQRxQSAzgYmddONEo3Q2j81cULMlaB6dVKPFpFAtYUkpk+NO7GTjeFIau79VXSfZRSQZ5bzOFlcaMzTQpFj/Ucmlk/j07CAUc4lip/QHR8bL9JSijRLQuQDIJJRPmvuK6iuqyYFiN1PSLgOX07l4dHQ1JxzIK1rYGjBp6Oi/yQGmpEN9Q8K6Z/QCafQopgwYXuSr9fQA8zdn65MB8cvP5K520c4zhj28Pnn92zw66dQTNVxPOvVEXhsoj3Y5e5FtaNivZPd2diGlz9s5JJ+pXCcZo8nOyeDyxUYsdDE+SRItwwBEWSUwVxtCGfgolac5Yi4FQZDSH5Jbs24xbp4/8eap2ZtReeVyubolk+yOwFYy0aq0L+7vSTFP+6Y9Vq1Y5/FlvqQ2jdfNWW+WvLlFk/rS2k6iU7HzPPXmI8uds759slId4G8sZ0u5dBK3PZge8N6AyVqL2OEy0mgohi6MdTuGAkqlDxE0ijoNY2vVQle5ipMFN0GoeXRSpk8AnPzr4ORfZ9BVU19ObKubJ8dKpdHJa4kRqxTh9vnJ/cOl0lCpNDw6cbnKA7lp4+XXhoZKRz7UTl+bHpH1NVSFPS7YDwgoifbQLQhYV6x0BFGNix+wlLlfJnImcYwFMoXe1bXzVTyg0dk7nGUrR5me4xPqoz+P65onomvWpez+sHh95pW9zJ+Hdr/y4dwiL7Uhf9Wpemqo0FIsTbnscPqMa6bUpwpl/k6c9tIWESppNlG5DLDv482uZ9aPtaDVU6Jda+4iPD3X1jH2GbV05aqvOJWn36sVzmr+2cLqFE5M1KID9uhTP6PnTu2bdJMjUljOEJezmso/TMXpJIWzyIwH1Frzc+yGR5dB8pIIsSaLqhw/dtFV5W7B4ZBpnd9oFGFL/QLNo5PU7UQx4an24LO3I36/nwgm29OqpQTmt17bVlyxsrj5yPWEiFW5fG5s48riiu7+wf1HRof6u1cWV2wam63d1HJmb+fKthWPDJ9QjVfnEuW84v3KWTvoHEE8edqp056JGwsS8qAO7x+AosQV5e8Y2f35xI81vjpQKsN4Au6Zycxclq6TZI7p/OHTo71thTW9A3uOjO3ZufnRtkL36CzL4+IBMZjKPGseUv3wxqnR0tiJG2GZl0c3WOLetMatMEQstWm4J7inJUpClpgTrZqDyDY24M/fmYwKja9mlgxVmGFxfm/Pfu8RY0nVdRJ7gqx1opjSWVWdo5zNnAEPFZXaX5jmiG+IhIfabp1kCbJIr0RmOO5y+WBCvu0QNHqNIq92epFdtEtzxxaR0L90W+p0tOx00oeDGrn3/6k6OunmG30t/WOH+gubjlzVCqjBweKpwfbi6oFp/lggCG5MD7QX1+3R13uqV/LMnq7OPUd2r+koqS8/2cNf/IKQNk/T+BJN2zGdUxuSwvqECbWeHHPXpQ46WXlQbzekhp0FGa9MY3pdtN6uzg0Wuhg76RIfSrQMbWOUM5RKM96+FVZim0H3aGjlKZN5L1k1lWlUfzizt7Old+wTfnHx+uylW+EB5WytavB4NfvrNTtpXqRnGfrdLWWleAiLEDWNLMWfrZmcVVn1pRgGck7q6U6/45tSqQY7C8gkQUTt2AzHnTn0asulKXJMj7askZaQq+iZK4cp7xCs7K3N8vqw4O4pMpc0MFkzCQ7mA01yAClNQuWk1EsbCeV53mW8OkkZHBxdTHpmWBXZKLE9XXUbSuLouYrrKuUKDwkC1kEEDUkyCiX2LytFXU4sC530y8eCKz8JbszQvz//XuP2599H53/3ajC9Nk4zacnMg7kj2wrfODZ37dhmdbi/dKRvTVen/Nc/dim4eKi/s++I2Gd3Yqirc+hUmN2Joa6njp0/vb+/c2Vx3b7zdHLuvdFtXStaioWHH+974Xz4cO3m688UWvpfkyqJIl59obfQunOSLSlRPq9QPuseLhZaO7p3TVyVS03li28OdT9cLLS0rf768ORcWPLlsb7Hd5+8HhZdWNnVd4SVHl4MTg0+0jF4Mjgx2LFqV2QqXTH7UhCtQneroxX1HN63laEqGsHZGTUfNUwdRiZxZBKZxzqk0u2j0+yPMug4xuj4+UAfENVclXBUET5acTNco4k6FjAmfCyL38FDWfF5i0NQxyPFGCWojEHR0OMYs5T4WtAzuLsqFaXzXKIqd6fxB3q2peikKNfLY31dqx8uFlaupU7Eek3KPhKUPz3xws6N7W2FluKKR/tH341UVzA93Nn/xsWzR/oebSu0tHVuOza7GFx9i/UI1e1VP6ReTD03oMDaVa3FFe3UqfsO0fuAxn/UQLxZRRMoTsj7AvkJgxNthWY+rM3xvInJEu5dLEAagk7yCL55Ra0Cy8Q/98hKqPbLs3ZIMYCqqVtYMJSi3A8XdWcFCOuVvNewcrRuYpdsnlEsMS/pA4h1NeUJ2x5FG3l6isw6Gh9EY8krUchsGtUreOT4UhTlwRPIv16dZDQZd9oopVWicGavjtEbQgwIIiBz5s2t5KlCVvDKekQh1T9FcsWdrAT1OrEsdNLVnxGuUCf5/h8EpKViHtjFEb9+9BvhEzcKbHzh0yjuYnnu2nX27/xYX1u4AmT4jdrwkwPFzu6edd8+MnPp8tUbQXBzutRe7N5z6urtcvncsafaOwYmaLg/MdhR2CDfaIjKOje6rqVr9xk6ojxbuzaPTM9eu37x5NhmZamJnmK0P3P07K1y+dMTe8SSA7np6vaezftPXbx2/fS+Hm3SOjm8KnziRoGhE0JyUceQOiYqV/viDmVLY6jRCaNbNC6D1HzUcIZhzte1wvc74lqOXeN2GmOH85B3coLcUix07xxw3P667dGaXhtWOAqXpZRKToosBqXlq3GuJFFbRNjJGKsJPMnYaaoar6YaT7NfvRBOhFaSCJFsfc5ZnuG5LH64+7FiYU3/iL7Trjx3/ei3i4VvH6NONEe3CSn7SHBmtK9/bPLs9blrl08M9RTahyO/ndhZeGRtZ/fQ+NnrF0/u7W4tdj7W012amDXcXvVDEabufOypluJTr7BOfZsbL/5qbRrKU34nEMKh6adndD97G1Sb3oiMW8foefIpQXEYLR9hCoFSVmUYeRu7jM7FtOHzVptGKaL3p7T03gNTKyjGszTkJ9I286o32/CCzkePnDErPTE/8jeNx+15QvY3EhzUB5XmkFH0uvtWU2Ir4nGAsAyvTlJalvq15E/p4s9oNgv+IhC+3yqGLDqvTBORM2jS39bZafoCU2x6/5Jc6x1aFjrp2i8JW4wGmmyjCNem4+LEkFeWkWhdx3r0dvNYf6F95yTb4mBMNqrPUfixvTNciFBMJStasuqnbw2pSaRR9OAvGmqNCGRSKHQWpwda1WdnpwYfeXzkXLQOFK1gBUGwOPEUzyqUZdEy0uKp0iNKcr0DUKGib8g7SHUE5MZeGOumbsk7v5qPGhYReLqYv0aVo5iUm/9OLiY7dsmdp5XKjkZnlGFIScGrTKdo/I2GztiRjtzAXQvv4KtkrpSi2BEbdIu8aPR014sNrPolgqCYzWrhFM3clhvvjQ30sKXTnoEX3hP7uA28dJiij/BM2d9LykhNw/Qz47yLjfcXC9+e4O9AKBVX/VANk096BE3S7BL2XJoAHM3tn4x1H+bqRzSrNyGPGZIgsz0+ySKEs5feglGLu+qrZ67BNg8o557RC8JgV/W1Oqp9xMzMceyAKWJlzEqk0wJewkov0xJoB1T9aAgyegSLZlmoOZvIKcYGF0+Rjk0WkcvRkMvvG8PmVjWxppOUxuJZUf8VcZRKSWcWjWhVwejCPEvPRCYuWwHNBnbVPmMlqtOJ5tdJ//0PwS32mCtRJ926GPz3P3ilkh84KZjH9p4Il45O7l1nPEG48UZf69pwKciebFQfUsNBQBvDV214JnwDiP7f2xWOdBRt2xv6Y7fwKVj0Vo6eD+tILduOXgsC2gXStZlekQv/PdP9SDjoGx1DnQxODT5S7DvyKVsV+/TotqJ89Kb2B+3+knILRwfyY2vw5SD5GEH5+G4vlBsRnsz516wyi7TEXuTM01G6PlJToXxktCO78jTgm4niMzRjR8dqC3qieE6ThZ4m87cma3ExjIY3lPIwpT8wg26fHx/q7WwtFjZE7yUYxPRDbx+hvG6fP3Fo70Dv451f6SiIyV4d4s1bDgWa6ttqOFYnpVUPusOwaoeI1F7APV+PLIoIfdvfImGvlzM0Pf30NCsh9XssTYTmVd5zPS6knKZ6RWsDUT50xlpZUTNUw1otlGyVoM5HuaCs5+lnMx4pVaCU8jBVxzToab7k2KTvaVDumZSb6iRxYYadW6t9P8mUVqEvSSyGkeyCcDwZjYVkWkq1c5L+z1tcRBUQMtsvsqCAzwYtUoMOmlwnffKm5DbZFszsoKdvM/8YiSH1UMS7cswtlUQEM0DP2sItC+FWpNUrlUdvwadHv1FcXZJ7ro2eoI77ajgIKNvV/WPjb07If9PnbwYBPTszXj2LljqZGDJHf0UnnRxe1dI7+LqS4ZsTp2nzrDF48W4ZBMHJ4VWtHavFFquvdBTEozdXd4qWu/iIbFRWJycHRNnZRI/SoyYd8eFAi6edjLVES8YPCII1oPOL6t9wgIjOyEqpUeLCSVUmy82JKi4/vgxQ0UIaG8iiiS2hEOWyc3Dk18mrU/kDTxAEwbnRbv4qvt4pjHtQbx+5eXJ43cquvpHpWXpap/izTlvPXImm+rYaVrNS7A2Dacdxx9Su+aqWsXUHEvkkYx7/AiPzHDaVDkzL+34td1oITHJyy6U1+xVoes50REZKPyTazmUtkzDXiIoosfOOzugNykpU1YPIyptB0gXeNBFwPiak4E85G+YZhel8rHGYx9b48JPir9Yc4mwYUBaQ6L5FOeRdMhou5F2N0cVEPpb6oSsER3dIZzR7LOVUNXtjfQk6SWNV8YG9XPTLdVpmk23B3P+jM3/4VaSE1EM16tv/xyGV1AhqmB66PT7yvjw1s6dLPC+7emRboX1oUln8ocHrq9E7z8ZDNH3UZvuQ+o4pSXkRnxzZ2NLx1Ft8ayqdphtrUaiRj3zuRqZ2Db7L85F/FXenk9JfaS/Ut5W1K3q6xx+9OXuvfjJWnWjjLxtD6a0cuborzUsIUVql20exteHD2S3jss2iTiSuuByd1wiXc2SRsbNYEqayRyWZW0yIFZRgjCs5sXXwD6Om9IfFcpk/C2PpqAp9x8jDDWc2Dsk/HX2E9JN8jqz4szFv6bkp7aiarYbVrCwWsd6uxNY8Mzzv9U9de6nRyFreWfj8pxRiBPV8jIvskEnkaLlCmTXl8/EokWqDuTJh5mvUlBVhq3CdmzosqGEz7+iYWkdIMaUF6TJDpPcvKkurnSdbeTrKRJekEXzdcplGhuJ1ElmoKDlPZN1LZd5RyICsXedfkrTXk4x1KcFE83aRl26nOK3aTwmt0YPbZlSBuJmR2TAizJBFyFAybRm33qFmXk+yddLMP9F60m8G+HqScqiCdb74pkZQwvTQbc3eGeUMe7zFXt65MNbdunbwpHqNrdC09LBdQcHc1HD3SjHYmVMC3Ru1rn3qlegbkuVPzl+MPuISzIw8Xmjt2X3yU9paEe7Ibu0ZpZ1G9B855aNDk5+wi2fHNj9S7D4Qvptza7K0trBh7+nwNbfF8uy5cMs5+ahyWymGG/bQjU1XUdbh08DwrTdnj9KGLZ7I/dfse2S2HPrdafSzrGs571DNO1Gjgno21pGrG1uR5IlsmYt0KUth0cRMIFL7AtEI7rvsPs/GOH0mcEe0zoaziN+8VP5QPjHYtaJ7aPwc2ym0WJ7Z11No3XaUfSZgdt/j6oYkY8D19BHSSZ1D71F2i9dPj/SuEIOyPhXpuQm319/l1Pz8/MhXYz7AQTko/ciiFZ7gk4dymVzIFhByASCMKi0JXW6Mz7IJOinZhWTOVBJh4TcelJaH6ZphvM5TqRELKtkyG3oGBiyZQjmodVdRUDhJ1ijDiGFbNIszF5VVSNdGYU2YbWaDspPcqiQL4/motwHESuUQsWSjor9/2S2itoH4arahk9heurBe0UZvnkrpEbIhTB/gkaUzhEykYOUxzBbh59lfVjVl8S9WJLEUWdpOK6rmB82skybbAuO5m73mJM4Iktmeu306tqnYaX64iORF9/7LkyXFCUi/h7cOl8c20evKhZZiZ/8bs6/08y5n6aQguPnu6Obwvej2tsLDPbvfZRPJ/2fv/X7jOrJ73+f8B3nM47wNGgTIh4BsBZKoDEgGpmQY7AEkO3CDBgTwgZAD3jRGmNugEgKEr0AFAie45DXgxviCGt2hxomkDIZp3TCMLmfk42jkyOZI4aEYH0knDMijDAkj6ZjwvlhVu6pW1a79q8kmm9TXENy1965atepTVau+u/buJrm6Q9/h7wztW998DsPc6MiAvHq6NLmo34oNdl/eqtAPDfR8b7Cn8zR9R5qs0ZRg4YCGI0XtxcmeyA8QkC6UP0DAgqCGF97DpY94++0BOc1kLAunHLvNYtalq+Fdb8Ka5JmfIlw6d1FRCyJa2YHbqt57wIKL97p7UgWIxPCnCqUvcipnaDYT/LCM8oT3vjKX+Cm8EgMspTqBPSVPEDTW714p96jxXDgxel1/k//F/HB3sXBisKeXfuY0ito7R7YXp87SF/gHe04MjXx0++pbagWy1y3bmhr2pK7oJ8q6ztfoty7tcf785ihNn96+UxPsNzI0q3D8JPasZ3CaNUlbooTKqWmLSUp+hrM1zKC2DazC8kAs5HzTwpPHbaPaQ5JThrfF46f2Tc9KkQhLmatGqSgPYuaas/Wlhyi3z4IVc0kYNHKT9bVlk87HhRflm/fT67A4yfyxSzIf7Av6SHYQTSXjubioGs7561IsoQYJOxUmCb419aSeljWOz67Km2d7OFlaRw4AvXJFa6Azwk/5ZpJLlRyI9rs2Q3DkIjVe12nLYZ1VJcIuSGOish/Y5xHXSfXTwcP/zbzH/ctysFZz//2yTNtLpD3Wgn983/PETWqpfUXe2NzafKVFT4ppyiy+FO3mk787ELGjoz8VjH57mbagdjY3traz1u9Wm3qsZricA/z/fHzLG0E5ad0JxvRQ9FJq/U1mkG470SqTrfhQ5RQPySTHAruMWGk4N/uyOhKW07OF2VXEt8OospXwqQvmWWmyjYcgkOM5OtTF+eTh6pkjYpDbj/MSGha51NjxTzp6Q3xrc2MnYfYYcWDujph9z2hhiz3LWK94Br+zASCeJJrtH1Za/RW/jIPN9KyZsM3MBe5BTFqPB799D58YQ+I0WdNttFrhoScNWUWSbLNrwrJfD9GlmKmXrpNYFWFSKacEhUE5tYhRotm15N1lJOORVnhPuuZ8x1ZB3a1K/dBAcrrYyqN7jZmWc8cpxa5TMmV+ObkP5PDo66T66UD/LsA/XfFA+6fxUCc1/bsAHqOHeaqZKHCY/qJuEAABEAABEDiqBI6HThJ/0K1+Ovj7N2nHyPn3928qnfR3sZtJcsPpiHQidNIR6Si4CQIgAAIgcOQJHAudJP/wrSOPnMMgoL+Pq19XiiaOTlc2XuV4qHd0mgVPQQAEQAAEQKDtCBwLnbT6f2Xi+s//5/HQSZkai0wgAAIgAAIgAAJ7JnAsdNK93uDz/919fdt5ofvXPwjqvdBJex4wMAACIAACIAACrxGBo6OT7v1hksqJPkfLdebeH75GfY6mggAIgAAIgAAIZCNwdHTS8h+3UCct/3E2XMgFAiAAAiAAAiDwGhE4OjrpN1Mt1Em/mXqN+hxNBQEQAAEQAAEQyEbg6Oikf/+ihTrp37/Ihgu5QAAEQAAEQAAEXiMCR0cnBUHQoi0lbCa9RgMeTQUBEAABEACBHASOlE4KguDhn+7zrtLDP81BC1lBAARAAARAAAReJwJHTSft767SnnaS6G/fJP+dmtdpIKGtIAACIAACIHAMCRxBnRQEwb9/Qc/glv84aOLHAu79IRX8zRQZ2dN/0El7wofCIAACIAACIND+BI6mTjpQrqSH+F9ITkhje+lAewaVgQAIgAAIgECLCUAnNQ0Y+0lNo0NBEAABEAABEDgaBKCTcvbTwrjaTyqX8H5STnjIDgIgAAIgAAJHiwB0Up7+Wq2VOsqzq6IIpfEedx56yAsCIAACIAACR40AdFKOHqtXiqWZdVVAvLdUWVSH+AQBEAABEAABEDhuBKCTcvSorZMWKx3FQqm2lsMAsoIACIAACIAACBwlAtBJeXqLXk4ar4sSpJlKZeikPPiQFwRAAARAAASOGAHopHwdtjZTDt/jriwGC+PQSfnwITcIgAAIgAAIHCkC0EnNd5f9GI7bEY/k8FSOI0EaBEAABEAABI4gAeikJjtNbCyFz+AcE1o/rc2U2XvfTi4cggAIgAAIgAAItDsB6KQmekj+Qrf6gYCIAeikCBKcAAEQAAEQAIEjSQA6KV+3he8npfwcAJ675aOK3CAAAiAAAiDQngSgk9qzX+AVCIAACIAACIDA4ROATjr8PoAHIAACIAACIAAC7UkAOqk9+wVegQAIgAAIgAAIHD4B6KTD7wN4AAIgAAIgAAIg0J4EoJPas1/gFQiAAAiAAAiAwOETgE46/D6AByAAAiAAAiAAAu1JADqpPfsFXoEACIAACIAACBw+Aeikw+8DeAACIAACIAACINCeBKCT2rNf4BUIgAAIgAAIgMDhE4BOOvw+gAcgAAIgAAIgAALtSQA6qT37BV6BAAiAAAiAAAgcPgHopMPvA3gAAiAAAiAAAiDQngSgk9qzX+AVCIAACIAACIDA4ROATjr8PoAHIAACIAACIAAC7UkAOqk9+wVegQAIgAAIgAAIHD4B6KTD7wN4AAIgAAIgAAIg0J4EoJPas1/gFQiAAAiAAAiAwOETgE46/D6AByAAAiAAAiAAAu1JADqpPfsFXoEACIAACIAACBw+Aeikw+8DeAACIAACIAACINCeBKCT2rNf4BUIgAAIgAAIgMDhE4BOOvw+gAcgAAIgAAIgAALtSQA6qT37BV6BAAiAAAiAAAgcPgHopMPvA3gAAiAAAiAAAiDQngSgk9qzX+AVCIAACIAACIDA4ROATjr8PoAHIAACIAACIAAC7UkAOqk9+wVegQAIgAAIgAAIHD4B6KTD7wN4cKQJ1CvFQmVRNGGx0lGsLORpzWqt1FGeXQ3WZsrKSJ7iyHvkCazPlmjMYAAc+Z482AbUK8XSzPrB1vn61gad9Pr2fUtbTnG/Y7yeq46F8YIQDbkKZclMUqZUW8uSVeXJvG4xbaREj7KR4dMUITsIfBmQtTALdbpvnDApvIfaaXj7ZsTCuKh0seK92kyFi5U884ha11GM+mavxDQ+Rbak/+e7SUhuWoglOVPzVzNP8OariC9pwZTQRMA0bFNDgd078VU1faUZ/vkGXtOuHXxB6KSDZ340anTmbVKI9C0torhvVUhofZpOasamqC6/Tgrv8hOcDS+xxY/c86FIMmJ0UhCs1krR4sx+kh1c2w8CcT3YWp0UhKuLvfJZS6ln9oVbmL5mp69wlnFrSWbjLeoPl0HEyvKBbPIMPs/ynONTw1dORAMjLBxEqZ5E/I/WYVES9mnrN/Y/hi42T/wF7o9NXkSGDCKVPLQCCAUxq3Pja/dcSR9F0ULQSVEmr/OZxs7mZmNfAKx9MlWtzj/aF1s5jERCgDXBshuKnYoiiu2zTiK3KBh57n2TPc6kkygux4bduCjJIloEqbYWsiVWwk7K/60Q30y0SoZhX91enq1OXr+3ZZ9t/dFuY2WhNlGdrFYnJ2YW1/ZnMsW6vX2/Vq3O1jesDI/mJqtzj/kpGrS+idBincRdyJAWA9UaJEFAHurx5k1YmsbUwgawOMkWe/uSK4P4ui5KsgzhJE1zieuq9NnniADTBCsl7GQRBxH/LTMxB2oK+wYJM6iyRTpC9hrl5JeENVacetNqAjUqQyx1YwW54YyTmHZlGD/SYfaCgdUE3hwrnags47xpv/PYT8rZJy8Wr1ZG+7uzTdp024+vDpzu6u6buJ+edZ9yhHOY5g+ffjK0xQRTWXV0tRATXk/geKHAZ465o8atAAAgAElEQVQOMVkio3uHFDIIA02itxxXJp3ECrhxil2yktQEFQjUAsPjnZU58IUtbsHOLY/Imibmy7DHc9vzY4Xu04X35jf3aChX8d2ns++eLnSXRyZrtZmpkdLpQvfF2Se5TOTKvHNrtNjVXRyes+Sgfzz7aEdz5qo+zKxGiKdshtmnS6UMZj6pdZn4hDvUmZP2JSaDhLXIOHczuHWK+W4t/24O9zhShZvBPSbn1Xx0r7nHZJzHJUpnLevaEsc2Lm+WpJO8uE7XK0LoZOxTVyel9UiSO+KO1DcXEgthPykRz2t08cVnd+8s3P0/Lu7P6vVwun9gunZtqOfK8oEwFFJGywt3XgkJpa9GHHJXCxH44u5XvAu8dTKxuKzcyu/6Q23JGHbJ8zAmZgiFbKlw6hSxVetCeRMmDRI66Qzl8TP06ST1zMWpSB/GW9NZ9pIgATHy8dxIx8Xai73YyVd2aWKw0Dtef6VL7dQrg4Vz04929Zl9TWzfHukYq308Vnh37jkzrMczGx56nMQn/J3L7MYlrXEl5ppep6XN1fX0V+hSZo0ZhxEv/PNFL8lhfuakfUmEDu1wTCIuGohbMntvww0+EX8D+0bOd52fS4wVPGOYzjqzCEhkMHgEBPGJbb5bv9X77i2r2B2UwSTUSWHxxC7wDMu9qZYsHSQcI5ISUals7hvdJh/tY+wnNdV/mcdQsvWlib6eieXg/lTPyckltUisfTzWPzBk/o3MrQUBnRQJaXBpcqh/Ukqr9drIhav3X969Uu7pLF66Qw8wGs8Wquf7Ch3Frt6LE+aRipicbDr5IkvSbLfipojXCTJFL0KcgFVjSsSnclZ+big2vT5b8ighciYMbSpCeSKdNEoESiU188MNLVWK736HAZSq435S2g6sKnpqIyrskg90UmUQwot1UEjAPhPb9CYubMwPd4ze2Ni68V7x7Y9ehgaezY3w4TcwVnsWBItT/QNTS6oKazQuTvWP3V75tDbyxunCW7MrQRBsfjY7OtTVUSycuDDy0VP3kdr27UudxZH5HWVMfL6Ye1svM2RwfuWXtZFzNIZ7zk/e/crk9Y9t4cOaGvY956eWjAgLNudGacOMGmvJwegQ5f1oqpRPtfbeC9aK6xmlvMaYtBhC8Z4I/8v88TENLVWvma1i6jmjtCD5U+bwTsCa7yTozUD1jUw3A2sCua1rV2atkR+dNVH3CrH3RZZ9Vm9SkmqMJymFHfngCxRCWJv7JVHNnkSJrYdMlyVscSmMCW3ck0s0bHxtd+tjA0aMtOYGtmu13Y6hk5rqkYxjKMX28sRJ+cSNElX51fIgCL7e2twQ/57MjXQPVhZoRXEiOAvxIkaUyqWJxZWNl5vb4iasc/DSzafbjcbz+9OlTjVw+YAWjjEjxtH46ceCUZpICsTyryOjtm61IoNO8nqorUUTItqq9rLLZMeZ8+Hi4QQ7aqMdjin622ekXSGnZmrii0VWPIqPv2RcSyIdhhhwy46sJi8B1uj0ZCggAqEk9F7LbiMcfhtPayOnT1UWt8PXwgwrqx8XxgsD5dK5y7WH62svdoLtxWpvsXRt+fnXjcaT+Uu9fXIAG2/uT/V0lGefmRMi9fT6W8X+a+JtoYXxQmex/+Js/YutzWfLsxfZVtNqrRQ3tk8O9pcm71KRhUpvkW3QkgoUT9xsOehTP1a7mIP70wuRCchqyJQUw9v0glsmMqRF/sSX+aITmTnJRmYQ7EUnOdGSKhWtWBhPUiqyeTqz21p1LJrgiqoEAaTKEZwM2VR299OGk2/ry7XV1LHrQNQIkfEEw2hGOuPFaN/vaQHNLNgxTQySaNhn+Y9qEjqpqZ5zZn5TNvg20tKVPhbZpTl6JhKuUmk6qTB6mxYz8V+9wheJYGmi7+yPngZsL1dlZLpHnfLdJupr+n5RJ/SlSELMOqMJ1HVLr8TkUXmDOLHFMtjJeINWvbyQVUSIJCanqJRfJIkbPgqyHmUTH3/tmKKGEOUXlXoLpq3QHgd4+xLTTDfQdo611xIEAb26pJ+OseXTVe106cLVh2FV1AotuaQCG7N/Uco2pTyk0R6uW04G8i18gS9ubIsb2ct31Y7syo8uGFnMtpGef3SR+xZlq/tCeRV+RnPqseGu0NbSYq9STrucOlIPqTjT2U5+56oY2MK3eF0lbmZEHuYnc9Jeid2RFhmusWHBtkN+R884reGHUfj6KvnQoYaNPisVcJpEiPjPymdIusUJeAJqx6IINWqohL+epQ75iHJCKOfG04718JBcYj0byeQ2wcmgApRz2j60Y5ocdXtQn7bxNjqCTmqqMzKNoRTLSxN9hdH552Lr6PncWIE9enNXqTSdxCT846sDxf6L9DUi+e/S+T6x/NgDOryB8Myi2KiUNut4a0X88kSNWOO8sE6LWedECn0xkqAwHXeDSPUyARQpSyfWZsoMo7AmiiT67C4eoYawQ54ya2fWQ4iaOV6PwZtYu7vL6G1X7EkSEBeu3pebl8tXz7FHb0EQvLo90hnuZZIFtnz6dJLua5I7Pecv6+FXvTjkkidTY7e0rg/9EyuH3FO165I7GWJDKG5sJ7lHe2bnppfkBu396bNMDkbZ0rj1jBPyTXViLM70C2670kuYHGIuyMfBvhlh/faSmH1CUcUMKmlWNnaWvlpVM8/UmJPWSiwc4Eu4N+3zLRJ5TKsiKW8tlXHjnikhBoyns8IcMV1pylOGPazobnHyXM+CZiZmskHpN+8RGr12nHGbk9j70Q1Cg0amdIByL1jHjLOYJqU9UbVMt9MBdFJTvZFtDCWaXp44Wez5nn4PabCnkz16ezE/3DlYvWfe4WDDkayyEO8EcTL79uRtetlc//v0pdyb4VHMMahcdayp07LG+Khk8lGKRIZvXYk1bhcPj6iNGWuU4TU+6uUwRZWTnzroMNRRN23pI6678c4UiixmYetEdX5iIuDGtiv2Dt7UGZ8iAdE9aF6D6z3N9lpe3niveKoqnrhJC2z5TNRJtEd1aqxmxt6dhbuLTy1R9KxWUvtDxrvdxUqn+j6aXRfTSXFjO0EnkT9dvXqWDZ3qNnIwsWeNa553kNnFHEm3XZmLUkG1kyTSvsmlrFEGdf+TsFKqbGrpVSOZzofrvbokLNs6IBwD1siMG400vHnkUY66nzRxtOf8omiyno/yivtCD88v0xGHPY+WMoaXqPHoewVWdQqmp6A4RZmNygnh0EnVcVaE11Ysklbv6CxWIskNX/wXN4fMsYzhl+aRKFWaWY+PfpZnR+4AOqmpLtu7Tro/1dN5md1Vixvx8FtvkVVK7ifJl2SFvyzE0+RhcZMWhv7Jz6KtsudVTFBjUdKyICZ2lmAXajh/AIqp1KopPIgNmpHMIicnEMmRT+S5iy5DHbXsiUSxkcIeMzybCDTh4mRva7nOMA+EuuKcrUjNMvqTNE7OXme/HvRwul/ttTyfGy30Tta5uqGBYR5skfO6anvM0C7pyDwvGqn/Ze3dYs/YAs9Dz/hU7c7eVWCeu8WObaeIcU/smV3/3Ljw6NqQloOJPauLRDjrK3kTNqiMpaktbPmkUmQnbsDb0cBeek2NbDrbYcEab/ySQaqs0JlMOonf1KnCnk/PVPLkipwSfMw6ba4704GgGRXi7Puy+GkMJKREpWb3iHLy6njaa8VkoP4ycVWPEJ3gxamUycx7h+diaXswsAtyCJl61ftJ0TNCANkt5XbctN0cflU4T9asMcNztHUaOqmp7rHXvCDYqV+5cHaC3X+nWRUP3cxLReGDNvHobe3DcqF3Sn/9LbQk3n69Ln5jZvPeVKlbDzh3MmzfmzzVWb76y/CnYhpPnj6X722YuUdFPOOVMph5aFoghnjGUOKJINoQ2bdClb5iJ8LbGmvS2jnCo3DupdukFVGv615T/KTbufyak/YE98j6ERaxBZDpNcpfqonHH/TXmuxsanPLcV423DmZSw6SgBjSLxUJF+mpFn3rTbwr7f6gF+Xvu/Rz2uBsfDE3MsB4mnElzISvWq/Lr7k1XjxdY189C1k8nD3bKd71Ft/OFN82KJZm6C06+o8MDlUXXoqLT2ff6yucD//mTIaxTQYk0jX5dtTAtPUjrkwOZtBJYqao/RXpXfP/d0ClG4qvXQ4Az5JDRdImjpUnYblll6iIEwEi4zz+Lkh4m+aVZyqlE7KQClyKidO5rC2hVea/KBgrPR0vZOZozOH+EwoHl2WFgEjxQdY4GfKK9mai9oXcFNs2Mn+0RVYV8oD4WPbD+9jISZp0Tjwxfx5ABmSPS06N8WHWNDN9I9Ax2h6H0En5+oGGAt+ZDIf74+vnioVzs1ZETjC8u1w9GflqNC1FxcrCYrXTriIcvuu1d0/Lqulr2DfHlNChIejMyefz4/RLmCcGT50odr1x+Zb6bpGahBGRJKZTdEaFT6CS5zxrpoATd/Mh4oszFVlZPYHT7znkIsFChm3GcxQ/gT2Z5f68g9SXTz5hdMMHi7+8kAqj2nmBgjkWZvDGkciocytVNaUFaJWP3mh2BERAr/wXSrX/u2oPvzBk79SvDMnh1/Xu7IN70/26K621iirY/nR2+ESRHur1ni6cKF/91P1lAJGnRmJLTqXuoZGZz8z2EhksD4+o6kpTdfYjmP6xbftAXUDu0cZV+B061fAgoId3snOJqlpWzfUwJdcGJgcjOfKfyNo7ZFlMyaRBKAdSxH8xVOLmoMflhOXWXLLxSiuRcU6t40u+VZlojrsSWzmkDogb2HZWfeQ4JvWHJKPHp8gsQh83Hg2bIkBFeOqqhAUxYv15qDhrvrBmrRRUNsygg4AVxPSQk7/sYHUi819lyxiW7bpio6vIxvw3NxshAcrAAWowMiG9snxmOQwcb3xjOds0CZ20Tx3T2Nn2LAf7ZFyZaWxubb7KWE1jeyM9s5r83gkgprodbpQjnk8y5UYQM6XFiuifRcqH9DVJywU+nz2uRE5RwcwNEaX9YY5aYdlR6ofV6ONAy55nzXO/Fy1xefuCVZCcdFaO5Mw5rzZebWX/cz00VtP+tg/l2dhxB7RuwtdxFjKN7ZyNo+xmKOolrQkrSUWcGaGUolpQ5cDOOlzjli4pSpTNUIxaS7Jx0YghfY6trNqf6Iwz49xU55/g2rCev7HRgFXN3aa0G1uUVVO7hhkzg+ycnvmoTLJPHgdizKrcBog6E/tJzeSswlFhQ5YnRTbynOdX28yeLnayxbrgu2APTivQ+bKrc7JbU3jqno3rR2WtPT+hk9qzX+AVCLyuBDyrwuuKAu0GARBoAwLQSW3QCXABBEBAE4BO0iiQAAEQaAMC0Elt0AlwAQRAQBNo7HgexumrSIAACIDAwRKATjpY3qgNBEAABEAABEDg6BCATjo6fQVPQQAEQAAEQAAEDpYAdNLB8kZtIAACIAACIAACR4cAdNLR6St4CgIgAAIgAAIgcLAEoJMOljdqAwEQAAEQAAEQODoEoJOOTl/BUxAAARAAARAAgYMlAJ10sLxRGwiAAAiAAAiAwNEhAJ10dPoKnoIACIAACIAACBwsAeikg+WN2kAABEAABEAABI4OAeiko9NX8BQEQAAEQAAEQOBgCUAnHSxv1AYCIAACIAACIHB0CEAnHZ2+gqcgAAIgAAIgAAIHSwA66WB5o7Z2JVCvFAuVxVZ5tzBeKNXWYq2vz5aKhQ7fv2SXVmuljmJlIQgWxv3FO8brsZXmvlCvFEsz6/mKpTQ8nzHkBgEQAIGDJwCddPDMUWM7ElibKSdKmT35nEVh2HkWK1IAJVQrRFIoXEgnRSQRZbBP0pny7GqC0aRLtodJOc016CTDAikQAIEjSQA6KXe3NZ4s372zcPf+08Zu7rLRAmufTFWr84+iF1p8pvHi8Y1rk9XqZLU6fePzrRbXtn5rcrI699iqZWPxenW2vmGdEwfRzRV7sTcl4syKdk3WbtxZqD98aboptkaySDopuqOTvJ1jPImmSOh4DLKTtA/E/rNViNRJHiNhKbGBZHZ3Mu4nRZUTc8BOeqr2Nof7483gnkzaV7NdwBEIgAAItAEB6KQ8nbD78tbYUNeJC8Ojo2dPFAsDk/VXeYp78j6+OnC6q7tv4r7nWutObS9M9ncW+98dv/rx3NXKRUpXF7dbV9/D6f7u010np5Z4Fb69DXr41SEf7ixW9M4H5Sx6NntizfaVxoRUqtjdxGv0C4s4Qcb9zp0mBZZBb8m2c1URPlAzwkIzISlpBEqptpZxP8mbLXODbCWXrRj2k7JxQi4QAIG2JQCdlKNrGqvz1ert53Ibaffp9VLx7HV7jySHMZH14XT/wHTt2lDPleW8RZvP/2J+uLNYmnlqLDyplTqLI/M75sy+ph5dG+q/Nnd1oK/K3//hqoWqE9tIWhPQVUu1kIzQV4V7mczuPr56TnWTW6PdSNIQzT+Tsm2xo4RK7RptFSL3k4KAc4ia0me8AoiXlR7tTbXYHrI2ukmzI1gqtfBpplstjkEABECgBQSgk5qH+ujaUJZ9goQKlib6eiaWg/tTPScnl9RTvLWPx/oHhsy/kbm1IKCTIiGtLU0O9U9KabVeG7lw9f7Lu1fKPZ3FS3caQRA0ni1Uz/cVOopdvRcn7rnP1B5dv1AYmHae9C1d6dMqZGly6NLNpw9mxmjPrLOvdGUhlIZBEOxuPZgZ6++m82dH51aoNpI4wgd1qXtoZI6JsGB54iRtmFFjuRzUa7ww4cogz8JPq6950pTNbBAEZFlu59g1StfN/5Ovmny5UsLnEn+iR+JPbR1ZssxWIUonBXoPSb6szbUjGTe7SuyJHtuU4vmFBVtr5mqM7WFsUQNctnQPNcbWgQsgAAIgcFAEoJOaJr1za7RIKqf5/0IBEYgl3+y1fL21uSH+PZkb6R6sLNA2j/OWMVuKwpW4NLG4svFyc1vsQHQOXrr5dLvReH5/utRpLcZBsHXjvWLBVKa8//nlQsfYLfHsjYx3Dg1fX1zZ2Fq7XxvuLZ69JrfNdurVwcL56aWvGo2vn954f7CnIp/WkQ+nesvDM8trG1sPflQudFysvVCWSQWKJ262HBQ7Jcq3iEZx2ittWQ+wspilYi9r76puitSiXBSfdFXJDutC8wehHjIP3QgUiRhzxhi3VYjWSUYMWc2X22/hM0pjJDnlpRpXhDL7tRd77yraEMLIxJm9ZxZXF86DAAiAQNsSgE5qtmuezJY6Llz/vNniQcC3kZau2HstZJV02KlQiKTopMLobf12Ub1S5Ns2SxN9Z3/Ed3eErop+u/vhdL966sREGPnx/KOLBSl0aAlkAmhjfrjj8l3aBiObppbdhUtMcJhtpN3l6kn26I2pFlsBUKWODyFl9tgo0eyFq78kobn2cGF27EJBK0VWY2jQ+oh7c1mu+nFXmWiwX6ISIskoBiM7otpCuBGKKiZN5F6RgmMEk35GOSu/qE9axHaDH7LtHDLFDq3W0wGvInJRdArbz/NkoFO2TpKtDje9YkrgNAiAAAi0MwHopKZ6Z/fp7Hm9y9KUhYCeQxVG55+LraPnc2MF9ugtCILt+bFC77h+T9xZ4ZiMcHTP46sDxf6L8ots9P9L5/vs3QvK3x/uDzHP5X3/MzrDjIsMdGn0xoZw6WT5En1FTv4bVdLK8UHvhQRiq6w4MvdS7JC9vDHKNBxTLfZWShDQwybP1g6DsDxxMsFssed78sHlheHq3INN1UxTY6zoSdcByljK58I4w0585Pf2WRNcAzYETkA8epth3/xfrZWE3LGL2AaZptQXEmqnPNTRRtjpUjqRVJ3OJMRWiFEAL+mHgyYPUiAAAiBwZAhAJ+Xvqt2Xt94fLJyvrag3ivKbCAWEWs6H+gcGezrZXgu9aj1YvWderHZWOCZlHI1CAuLtydv0ywX636cvuYf1arHw3rwWD/IS2VffR2PGxUWlkzbnRgvfuzyrzVJieYU2shwf2Bp/f6qns++Uft3qe31GDhrVQsrMEigxC7ZxLJtZ3mpKsxrdS3TstMKXpalz5LbaxXH6kduzITCG6jcLLESipCxC9vkGkptWDzelElKe8KpF2td86gjLeNSHiJ1Q5oqC5dlVMov9JB8lnAMBEDgaBKCT8vbTTr0yWDg3tbTHXwSglf6yfB9IeCDedgpfc355473iKfuL+rS+vjW7opw1isFd3en1o/7Jz1RG3+fiZE9H+foTdkl8KUw/rWPGKY957nZ/qqdj7Ian4c4Sa9Z42jN73zwTDLZvj3QoOchUC7XOPI1yrCk/Wf6MZlVJ9cksqFP8k+plbvBLe0jblSbrJEeUaHlBpXxvNdnSynbSt5+UoBSF2LI2k0Sl0TNCNpnOsiuNHlHzLSM6S9go38ahzoMECIAACBw6AeikXF0gRFLv+N1n6lXrjS3xM4Y79SsXzk7k+Aki8dCNCQj5oE08elv7sFzondJffwv9I40SipvNe1Olbr2iu6pi+97kqc7y1V+GX3NrPHlqvq0W2tq59f7pQu/lG0/E19XEG9n8GR8tmW9M1l+Ir859URs+WSx9KP9axfrs+eKp9+fX5NfcGi9XnskdL8cHrZPE0zHr5waYHOQCgqWp9uieB2XQe06ZzTp9y2pxrshDRyB68+Q+SZX6hQIzRcRsJaQZ6sdhdMbZztE6iTSHo128Okk+VHX9kbW7Tmrj2s+1mXLogNxninaTzhomPD6HVwyWxYrrj2sFxyAAAiBwiASgk/LAvzfp3PGrX9x5fP1csXBu1vmyfaxpeqM58ntF9Fp0sbKwWO20nnQo0bBee/e0rL1/7PbKzTG1Ljoahep8Pj9OX90/MXjqRLHrjcu3xFtHljO79DsCXeqRSs/5ybtfmetCqYyODEg3TpcmFzf1E8ZXn11/r6/QcfrUwGBXZ1/p2mdCMjk+qDWeNq7C79Bp6/TwrnO8vht5CqYf8Tirr1BI6scnhZlcZnXF6c/dxItZTu28eJNpoUIcEZNuSjEkLOrBmUChN5nkm2RKOVEXqCEhrMfoJO8vj3Ob2rXIfpLTy+53C3TBMCE7NK7h0EkuLxyDAAi0KQHopH3qmMbOttxl2Sd7XjONza3NVxmraWxvpGVu7NDr1V+7VeltFaoucpVyi18uMH8PxDWwT8dKOXlX8X2qwzJDymD/dRJVQUiVKrUT7i6OckjqpMhei5EXoVmlk+RbQaSodF3skrKa91N1gfQ5s0EhDbW8i6kUz91iwOA0CIBAexGATmqv/mgHb7ROagdn4AMIgAAIgAAIHCIB6KRDhN+mVUMntWnHwC0QAAEQAIEDJwCddODI277Cxqu0B3Zt3wQ4CAIgAAIgAAL7QgA6aV8wwggIgAAIgAAIgMAxJACddAw7FU0CARAAARAAARDYFwLQSfuCEUZAAARAAARAAASOIQHopGPYqWgSCIAACIAACIDAvhCATtoXjDACAiAAAiAAAiBwDAlAJx3DTkWTQAAEQAAEQAAE9oUAdNK+YIQREAABEAABEACBY0gAOukYdiqaBAIgAAIgAAIgsC8EoJP2BSOMgAAIgAAIgAAIHEMC0EnHsFPRJBAAARAAARAAgX0hAJ20LxhhBAReUwLffvvtf32z+5+Nb/DvOBH4r292v/3229d0TKPZIGATgE6yeeAIBEAgM4Fvv/32OIkDtMUhsBeptDZTLpRqa2ws4Q9sMxhIHiUC0ElHqbfa0FeKhpXFPTpGAdQOqXs0mLH4gdUbXTMyepgt2/psqVhZyJZX5dqXjsNOkiMsjtnhf32zq8aL/sw62OqVYmlmXRcLgiBeJ5HNQkfKP8cat3zg6cVKh9u6A/HhwOqlHmkh8NVaqWO8fiDI9qUS6KR9wXgMjOysLC4sPdkJW9JoNDK1KWvQTDBGC3ZHeXbVZBFncswikT8hyFrGTTUycLdIn1EgMPWSh8kVLYwXmg8czfQCubRngXvMZAGaEyXA5wuls65wixUa/7SuJwggJe4jq/LCuD1fIhmSVJfr8n4fkzNR9/LMJmEhgUxsrGihTrJjlAf4vmKkhqje31fDrTEGnZSba+Orx/U7C3fvP93OJiUSKtj8fP5qdbJanaxem3+0mZDxAC7xibFY7SwWqjG7RBQok2KfI3pSXCd94Jsw4vwepENYbfKOUfLVFM+TLzehk2KDo11TOn/ZO6FKSxORrCvzy6bosoozx4xAEATpQygydO1Fl01G/xjjwUdkzqaTsm14pGg1I+P8vtmzT+oz3y0NBZOOYh615FoWx8lKKPmq12DWk3aXRXpEm8kaf/h2VJYuyHFjrH05sAR0Uh7Uu09vjAwVugffHh17u/d0ofvi7JM8xe28z2+OdnUOvV2Zrn08Xbk41NVZvv6FyHFv0r5ZsYu16ohPjJ2lmcnZxXBvae3D2I2H6NZ6Lu9k/E0IdmGAzha/PFWLKZ1w19I+OskOUp6mJJ6ivktoprcs1dg0WGUxnyb4t5+c/+TSzL81/8b3L+5//8z9pXyV5n3B/OkHXZ+82fWzM797+8PPddl//fH5T97s+mTg927+8KY+2a6Jv156k5rw098/82A1yiovQ9XV8lPuEtnnPEc8mJjLNN38Qy6SP10nRYqYerKkqHj+MCtKsX3iSE0yQ+7JqO2IiJegGNpAJ2lfrYRQQv7OtfKZA7eLzZU2TEEn5eqUnfrH82vhNtLOjZG4aZ/F5uOrA8W3P3qps24+Wd+WB4czgGLjTuyCGv+oKG22Uzvl7VeG1b350JAqg6QP4obSPCPTPbKnRM79pFjImZygvstAMggCc2NXKh24TvqXv+z5f77/Z//StE56dfNv/+D3/vZvNpoUKKsf3M6scv7nh2e4TgprrI/sSSflcaDJNhq2nz94x6eTfAy//KEvZ2iKD8BkoWM0kNwMFqsmm2Js51JuSJtlNZQXZmvHt2Nt31BlH/O8BTItqjO1RzN4z8i5kyBiVClqfnPxJDXWmfmbX+Qp92I+KQSZfUFCZAOPKUanI25T9EsFlVFzJyIU1+MAACAASURBVNR7cJegk5pn/ejaUOG9+WYfl9GzLa6TpB9Lk0P9vacLnX2nBob6B6aWaBBO9Y/dXvm0NvLG6cJbsytBEOxuPZgZ6+8uFjr7zo7OrUjdtttYuTM1fK6PYs2JcvXnSoE9mxt5a3ppc3HiPF3qOT+19CrYltY6+0qTy6E4C/jEWK+NDI18vB4ElDh1oljoHuwfGOofmWPfXhFzo1Q2oY3mmAhAFOMSJ4nauc22tHs7aH22lBaJMkQrJqSU5yZSeOvNfLIddZLVxXQ/nXupcJsf3a5o4zN5VE5LdFIeB1qlk4yQ0j0Vo6giOklMqBJ74ZrWUTWX2VhSU0nrJDXMuMyybwz4yBRjzL1XjGQQoaa5AGILAndIe4+pSGpY85bUJ1drpbTYwsKRLuYkmCJR5DOrGceUe2hjiQJ38+tjb7dajxqkbvZpX7N87MMjS+3R/iegk5pk2ng2P3KyODyn5Eh+M4+uXSh0Do1cX1QbVGSi8WrrwbULhbemH2xsbW7skARaGC8MlEvnLtcerq+92AmCnXp1sHB+eumrRuPrpzfeH+ypLJLWeXW7+u7UjYfrmxtbK3NjPZ2jN14In2g6DZ4qjc7eX9/8Yv5Sb7Hn3IXSxdrSs621O+OnOvrUa0h8Yph0Y3PrxvvFwvvzmxtbm5v6hSzKULC+8RHe6KRNWp2ttpf3+ETYStZJLKDEd40nMIVTOlHnxRs0V3LqJB5rjJGYFGVOCzqejrDXHsFwr83Ua61KrH5w+0//7L9dOvPJm9/96Zkz/7Ak937CJ0GfDHzn5jsf/E+1VH/5w56lD39wlx5yfeeTS9efq/NRiRA+9nqz69Yf/E69zur64czaX57/5PtdPz3T9Xf1cJ/p1a8+WPh+18/e7PrZQM/Ch0uvyKxwYOD3bv7Bd+nx2Ztdv/jxk8Y3//n16o//YeQMPWUb+O6dD/5a5AyN70Un/cdXN//uHelA190/v7kR70Djm88fvPPWP3659ICIdd16588kBNOE759/8KuwXf/rV9frw+T8rYGuhZ88+I9v/rOx+sHtSyOL3++69ebIp3/51s/O/N4d86zQVT9ehvLkT3//d386QJY/efNPnrq9EI7BcFVmky6cKeyMzCqGWV091eUDm6dp+Cn9FFg3acKKPVY9GcQeRjM6yZ6YMTOMndbNnNnrNy3Ybg2zr5NUUQSmvhomPGEtjAYGplsm43GTOol48jCidoky6EKxEZXa5IzutzYbdFJuvmsfj9GWT8eF6r3mRZKodefBR+MlsS1Uqsw9UBtT9ngVOqnjwtWHyk8alxdrUgMFQbAxP9xx+a777V3arAqDCOW/cF29R7Xyowu0KRXmN3rIjkT8fPTbvEIksXsjvWx71mbltViVubSiCd9MmAu/cZNc1vVQeeF+kuesIeYyQVNViHSqLmFBX5ixo57bp6amMMWXkMhFubOdEFCovekw7bVH9FqCTZ8XkXNKsujFdfWD22eGH2/Q+f/49Q8+GfjBmr4k13VLJ/3O7b988DVl2Hh06fd+/pOvogrJOfPlD22d9Ad/9ODL34Z1hZY3fj3y3aVfScd+++LLJ6Qn5L/Ids5/fPmL/y5cbXzz4Ffv9Px/v1Y5v/nPveiktQ+++zdhW367+eXnRn5FHBA66Tu33hn5InRDOLD6wd3hP/sfX4v0q5t/++af/LPw/99+9Yt/1ScHzv/TK6GTzox8+eo/v/zh79z98ZPGl3/2Vwavq5M0SYshWY7NKYpQn4spwGZ3eLfjXdfrFRpUNOBz7idZA9geq3Z0kqMwLYC4FsKxmzoT1RgXMYTuRtQcoRnNBYHKmOFTRL/Esi7hOKMenSSz8ipEOv1WygLufvmXms96PM4f09E6B9WeWbRRZm8E1ubaIwGdlL8fvt7afPb47sx4qXtweO5p/vJ2CfG87O2BYqGzLN8Kd4eOPT+358cKJ8uX5Lfk6P+j/XomN14+ulObGL3YPzDYpTd7aAaqqS6/umLGJZ8McWlXJ63NlNn8ERFTGIxb6cV6zMJN2Pq0MGdDYkeixsR5SDWWyvSlPNNSZoAlRU7rp/DYxT0lRagykdHtU7K9WGFhN46edMJXnLtHfedEPX5ZpRlzWkXKfGCoPPk+jbAIl+HVD26bpXrp/ptnPuWvEltXaXXXm0PbPzt/88//Wq/lcQlehHZTTF03678/8qXQE6/qI3/1/T+q/8X13/z6yY5USPL/Hpnynztf/uLXH/7J3/3w/O0B40xjbzrpP7784G8Gzix88MGvlx78u1Q2sQ58/uCd7yzab6b/64dnbv7+77B/muFvN3/91//tL0b+7k//6Gd/IN4oUgRCLOpQ0ItVPxZDciw2p7AjNIoJILS9HcYWNpwio4ZGrNZJcXufZhaLSR2XTZ1nYSd8JyZ+zPNoZjlnPQ+yrugD5YwTPew4rHOnJwSxeFfDttD7gjpoxxol32wOsVlzXiBiTN/4AC6Mswyh+Qw8tSMKrOpQuvksjVeyCTJt5VAS0EnNY9/+5HKh8/It9YJP84bolaOn10vhV/HdRdGen5tzo4XvXZ69s3DX/Fte2Q6C1fnh3tOlK/OPnu00+D72fusk1kxraiWv9KyUTNKcSYwdkRLqvjY6V1lW4VIY4ESaaRGWLUy2TCdZZMJvVtthV1Q9Xle/GqXXlaiT8jVJhxXl5+EmI0xx2yoKjtdJqLH1z1dx6rlknfSLpTNv/aO9U8KUjaWTtn7y1k8/+EWcPNLnrTXekgVGJ4nMv/1fJICGb79J2y1h8YhO+ucPuu5+cPN/vKIdKcvy3nSSdODfV5d+8+Mf3H3zjz79MtYBr0b51w/P/OwvlnSTVeLJr0e6Fn689G8kvJSyUQRaq5PYKBDjRw3FpCnMxrMeZjQpYtZ4nUfV5e4GRcvSGeWJKqU/7ZipTyf+1iXP5UvH2/TlDs/JeRrrp4ppIRY5PY18jBpumU6yejaI28ArVRbZK6rkXladFCcWZZPt2Bht9qGfgU7K2QX8CdeT2bMd5dlnOS2o7M4vOdLCOXp7293ykc/dzM5EcH+qp2PsxitlRX0uTfQVxvRPMrOwQgPRLIc0b82gZNm4tLLS7n6SqtB1rNU6SUacmDgrnRL3K1aUoQYm7Ja3SidRUDDMozqJ6rUziNt01suGsmiC6TK6EHVbGOSPNU352JS7FJmMyprVBHOZpZQC0Ns2qx/cfvNP/rvYRHn1N8O3Rq5bvwKg1nW59n/5w9/5+U++Es/FHvzqne8u2dsqSh9YVVhqxrKmddKTtaXP1TbSxq8v/e7/q99nWvqTnw5zfz5/8E7Pr4SI+Y+NX/zDO9Z+EomVD5bMMzu9IXRpxjxH0622E89/9YtNtY209kHXnQ/pXSj65zrAFA+3sPrBnT848yvxPLHxzW//dVUWv1n//eEvRLavV2d+cSZ1P+nJp+90/UP4/DGeIRn86h9H3D0tBp/1thMKMuok9diO9ktiRlRUgriDk0eq0CMapdZkV56KpTc2ULiWVanUz6iTKUVk8IlpsiwbVQ9SN3jbRUVapZMiIcUBLkKrHYVkC+wFJY4IWUsSi3Hl2uY8dFKOrti+N1m6WAtfJGq8vFsZLJybfUQGdupXLpydEO9TZ7PXuD/V312u3nnaEMKr8XC21KneCv/55ULn2C2thNz5uT57vnjqffXzBI2XK8/oh45IJ43Mb5K1xtrNy/2d6tZtzzqJXmk6N/2IC0TZxqYjDhVPCrIuQhk74oKsdiZmR1qs+v5oFYkObs1NHYuYYkc6Fk3EVU9bRFR1IpFsuHNSqFgn6NQrYRiSatK/fvDGCMuOkfC67tYMb2JaCzAtrvRm8Z/8w3DXJwPfvfXOD57wzSTP+0k9f/vB+dvyxeQfyxeVIga5gHB2ffw66at/+cnI3QH1GrX1dvbGl39Ob3x/8v2ev/oL2rt6tfSD22e+87Pv99z98x//5i/P6IeA1JBXf/0P73yH3m4e/oC9YP7gHy91iVeeR75USohJCun8b/+1/mfyRfJPBrr+yno/3XXA7AzZzaT3uN/87i16sfrMwodL2+Lq85+c/9mZ737y/TN/++EvHv5pqk5SrXuz628+fMCdtLSmsEwPCs98h6r7/vDDr5wu4KMm6+aBvNnjUyBxCnsUjx6EYfXOsi3OCpuOHsp4N+WU4m2MTbtxODaj+WVOd+ZaReLjUqwoaZVOiso1fqssrrK7a6sV2VyCTnKgHe/D3Zd3r5S76Iv3fV0dxa7S5N2vZIMfXz9XVJopI4LG2p3J0gn1tl1n3/D1z8IneLvLEwP0VfxT3aM3NtxtG7L+6rPr7/UVOk6fGhjs6uwrXfuMvof2ZH64t1g4MXjqRF9pcrH2fl6dFCxNDBa65TtSdlR6MT/cTZZ7esXvFOj2+eKUvpiWyKCTwthKiPwreliHUBipz9c80sSzMZPmdup1f4wTOomexItH8rFvRInQqYYEPVbLKO9cmJ6FhzmespboJapJnWTeGXJWXPcwumDz5Rzp9iDABo78YW7/mOTZQqEQ6iQ5PeUUDtOWjqdpHrGpB2Fo145IpjIx3fgD6ERposrJUt7tW5Ul+plBJ4V3KeRPonEZ2biOdKvzh5FsosS1lXIsZFBEOArglXH5pxciV22TYaBOarIkkxjGbZttdoT9pPwdstugL8m/0l+SFxYaO839GZPG5tbmxpbcVWKuNLY3tja/Zieiya8jBYVjzbkh27Dt8URcibWsAh8PVTKdErDcpZ23T8uF9Hklpmh6NvmsKhKYqKIUP7lf6WkKB5FazP1ldD1IN+nPwSJyqo5kFjJENP0ToHEqjZkLXOljv1sduWrvmkAntYcSSu4m3t2UDocQV/Nhmq+m4USQWxHRGSHPi5/Msb8XomrTOslUF9FSKm+Tn9oHEa/SYwjlj5MCWq7FZTA+ipmbni1mx50q4pyN3SZTFMB9bVeBPXN4tCOSt7M0pcjgyVxLk63cczHopD0jhAEQeF0JJC+xuHoMCLyuQxvtBgFDADrJsEAKBEAgF4H/+mb3GEgBNCGOwH99E30tMdcAQWYQOA4EoJOOQy+iDSBwKAS+/fbbuCUW548BgW+//fZQxhUqBYG2IgCd1FbdAWdA4IgR+Pbbb7GrdAwkkdOE//pmFyLpiE1FuNsyAtBJLUMLwyAAAiAAAiAAAkecAHTSEe9AuA8CIAACIAACINAyAtBJLUMLwyAAAiAAAiAAAkecAHTSEe9AuA8CIAACIAACINAyAtBJLUMLwyAAAiAAAiAAAkecAHTSEe9AuA8CIAACIAACINAyAtBJLUMLwyAAAiAAAiAAAkecAHRSO3Wg/qtGOZxarOzfXw3LUS2yggAIgAAIgMBrQAA6qZ06GTqpnXoDvoAACIAACIAAdNKhjQH6Y/XiT1Wn/D/8a9vxf2zZNeL9W82H1kxUDAIgAAIgAAJHlwB0Ujv1HfaT2qk34AsIgAAIgAAIQCe10xjIrJPWZsrhLlSpXML7Se3Uh/AFBEAABEDgOBGATmqn3syokxbGCx3jdek4pfGgrZ06Eb6AAAiAAAgcIwLQSYfXmau1kvtqUfSNJaWHjJvrs6ViZUEf03tLpZl1fYwECIAACIAACIDAfhGATtovkvthJ9N+kq2TpNgK3/XeDx9gAwRAAARAAARAQBGATlIk2uEzk04K6OWkUm2NHCbNVCqVC9BJ7dB98AEEQAAEQODYEYBOOtwujXzbPxRAKV7p3xQozayTbIJOSgGGyyAAAiAAAiDQDAHopGao7U8Z8ciMvWkUBOaNpehrSXF12o/heC5tDSqKY0EaBEAABEAABDITgE7KjGrfM0afsq3WSuF+ktxnSv8iG20s+begjH6qV/h73/veDBgEARAAARAAgWNLADrp8Lo2sp/EXjwSXlGGBKkktVTczhN00uH1LGoGARAAARA4LgSgkw63J+33k/w7Qx4P5ftJKT8HgOduHnI4BQIgAAIgAAI5CEAn5YCFrCAAAiAAAiAAAq8VAeik16q70VgQAAEQAAEQAIEcBKCTcsBCVhAAARAAARAAgdeKAHTSa9XdaCwIgAAIgAAIgEAOAtBJOWAhKwiAAAiAAAiAwGtFADrptepuNBYEQAAEQAAEQCAHAeikHLCQFQRAAARAAARA4LUiAJ30WnU3GgsCIAACIAACIJCDAHRSDljICgIgAAIgAAIg8FoRgE56rbobjQUBEAABEAABEMhBADopByxkBQEQAAEQAAEQeK0IQCe9Vt2NxoIACIAACIAACOQgAJ2UAxayggAIgAAIgAAIvFYEoJNeq+5uz8auz5aKhY5iaWa9Pf2DVyAAAiAAAq8tAeik17br26bhC+OVBXKmXhmvt41Tx8+ReqVYqCyKdi1WOoqSedZmrtZKHeXZ1WBtpqyMZC2KfCCw7wTYYJa26V4LN1r7zhkGJQHoJIyEwybg00mROGicTLhEq3jH6yW2MgsXpo2U6DFMU1OmCNnBgpQK7NhmWBhv5RRbrAg5nkaPVJEt9BN0Eo3YQto/21pa/a27TnidprWuMtsyzfFMVVsxZ2Fc3jjVKyosLIy78SE6ZhbGC6Xamqx/tVbSaduj9jmCTmqfvjhcT3ZWFheWnuyETjQajRh3hBZJjzsUmMToJ1mTFqRkBj67EsRQ/CXx/C7cMonxvtnTshXcw2YtecrtQd5FFwyPfTrFQhVVlzcwGZ0UBN64xuzHeIDTx4IAHwn73iC+fCYYJx/G62Jdj48ttP0p/mN3COLYWubpjJshCBJUl7S5n/93ImRlIVhbPYw3EATPLHqRA9QPAZROWp8tOXeqBqYJ3WFHhxK2MrMeaqb95LqftqCTmqX59dbmxlZjt9niotzm5/NXq5PV6mT12vyjzT2Z2nNhM5qDYLHaWSxU5TOa5gxza8kWokGK8psZFSkde4mWah0cI8X244QQNMWW1ELOFzPdqacsD373VBQLVwX/6hKKJ+o7fwZb71ohNeMK13QvbC/PViev39tq2kCTBXcbKwu1CTFJJ2YW1+LuHpq07hbbvl+rVmfrG9b5R3OT1bnH1il5EI4Z01lxOt5n9vENGXmq07U7C3fvP91mTYutMRAq2R4GWcetpwF0ylEJnoEXufPxRYCEgONGGL7MC6fcDFInWcM7xnm6Z/DQMD2im8O6xju/0gIXVeTojzifmj2fWycp5mJLSUSYWrjZvFor6V6zIoPaLwyHblqrm23KvpeDTmoK6e7T2fP+BSm7uec3R7s6h96uTNc+nq5cHOrqLF//QpS+N5n7dj97rbE51aCnDDtLM5Ozi+He0tqHKa+kRMOW0BMZZ3U0SJEHUZva8ZhL3ujjBKz9mpaiLh0ItGd7ToQ6LLNlpn4S66YIqNpOEYq6JrJaaAvUOneR4BZ0RpYga3n3qFjx1OT2/Fih+3ThvfkDvZvYfTr77ulCd3lkslabmRopnS50X5x9kups0xl2bo0Wu7qLw3OWHPQMeLGkRfuRcnoenXjN0rzrvyhu0qpjb/daTWM1Uja92OuEOzyabjEvSI3KEjS8EYOHL27Us10UGflRg9Ezjs3kQwEt8ywWe71qesYaVgojNoPvgprs7Fq8HTGokns2DFDhkCjPLtRKpfGK2EAKYxEppNpsKWyOnV8NpMoiNZmHC/XwjvnZXknopGb6Y2Wm3PXuxbf12tOMjcdXB4pvf/RSF918sr4tD5wxpHO0NhEbaCJhxfWDRVVxKcN8MyYosydGuDZNAb+EIif5xBP5xSzNEnmZ9f1JikDpW2DESpPsEpVld5/xDnmCYJjZabhYPiVk08vx3erTSfRswtNN2rl4azrLXhK00o98PDfScbH2Yi928pVdmhgs9I7XX+lSO/XKYOHc9KO97SJrc25i+/ZIx1jt47HCu3PP2TV3Loh7cb2euVo5Ovv8Zh0pQIQL79+WIcitkTkjn1JlGp9WqdQDMzIjWa0ZIca2nCBUREs3J8E8TJ6MoQXNU9SeMtojHvITlrf8QmyaOjRpcomCzqy0225pMu58hCoNj5j4I0ZOiNEy6DrOh8faTLmysF5fWNfjcG2mzOC7ZcUO3HjdXuNaHD0iPuQ/AZ2Un9mTWql79Maif4HPbI6ebXGdJAsuTQ71954udPadGhjqH5haotuhqf6x2yuf1kbeOF14a3YlCILdrQczY/3dxUJn39nRuRW5Yb7bWLkzNXyujwb6iXL150qBPZsbeWt6aXNx4jxd6jk/tfQq2JbWOvtKk8uhOLMeya/XRoZGPl4PAkqcOlEsdA/2Dwz1j8x5nyLrGUJNEJMtaZ7YgGiGRPRN7v2kGMUQZ9x2Ie1Ihg+fk2klfdcT4pQvuzq3rm/R1BkRjktlszyQhzp6slAollUZiDkQSttKTi0V2ohahJRllcEjVclaYmxVbjf1uTE/3DF6Y2Prxnt8yixP0Bwx/yYWxWSRs0bUs/bxmBm0GeeRdnD79qXO4si8emNPnn8x97besJEz69lC9Z3Bro5i1xtjs5+azI1nC1Ux47p6L07ox4XChzV1SU5GXeHm3ChtmFFjLTnIlyU5v3RH+N+ksadDjFkaP8yO2F9Ug9yqUfsXJiJLr5uhmWMxMsv8GRb5Fg5dftsQih4RYbgnPE3jk4UgX0utsepmEFowVbj4m5mIzl8k836Smo80bZV7FE9UWpm3JqM9GNyNHFWEPkWgC4eEIs9HiMorukACXK1V6MdcFiuVxVAehS8vLlb4WLLijAxNYT/qEMT6S9XTTp/QSTl7g564nS59uC5GlTtAc9l6dO1CoXNo5Lr10kPj1daDaxcKb00/2Nja3NghCbQwXhgol85drj1cX3uxEwQ79epg4fz00leNxtdPb7w/2FNZJK3z6nb13akbD9c3N7ZW5sZ6OkdvyDtvGv2Dp0qjs/fXN7+Yv9Rb7Dl3oXSxtvRsa+3O+KmOPvUaEg80Jt3Y3LrxfrHw/vzmxtbmJnuFwTTVZM4rkmSU966vCeHGvURT2t8Rbk7jc57UKr1jSKbEbI+bz1nrakonCU3D20jM7V+cCuNOxD06X5qpid0gfqOZ+bmbuvNja49lR6LM2vw84HXecKUPAkqYvZbGNs2Rrc2Nl0uTFwrnayu71uvqgXy2qOJ11nmka70/1dNRnn2mj2Xi6fW3iv3XxNtCYl3pKk2KSff0bvVCoXPsltx8Wq2VOgcv3Xy63Wg8vz9d6lR9tzBeODnYX5q8+8XW5rOFSm+x58qyqoBUoHji5shBS5VGOFP/RhYz3kFxZt2CS1f69GPNSC3KR/oUY8/SGfxqU+lwVTbiXgx4z+t6UgGoocgij3Wbt2edRD2ruixXgxxREimr2sUVT1xaORDCKVcqnltKf09Z/hMlPUIUuohnjk4Kr0fjjIgbIhJWFsKYU+gol0rjs3SnNK6e0o5XKqH/Vo1NRT+frwd9DjopH3F64vbePO2KW2MxnxGVe+fBR+MlsS1Uqsw9UG9e0FzSwT38ptKFqw9VIaqX3W7S3eflu+6DANqsCucG5b9wXb1UsfKjC7QpFeaPCzT8vBWmlRP8UwdcneBXE9PxDP3zXxizLiUFJvInohviXkSNRKuYlYBqj8ZQckPFtcQWi2Fj1oPkvOFVoqR6k06J4MVGiHDJkU3KcPjgny+c4SW55Kh8/JPs68Cqb0D1sPQWtDqFGwvTHgc8ufynmG6g7Rw2+GX+h9NnO8vha0P2eNA+U0a6lGce2aaUa+L5lLqZtlbT3eXqyfDVonqFC6BgaaLv7I+eKh/MbKXJqPuRbSM9/+gik4N8AkYw+mcQ68FYszQ7Lt0UQvOL5drkxVMdg9V74X5Ycm/q8aY3A2RCjpm4q3ZmNlmIMxtvYrSLzNFpEn6XSi29PEzxdFQnseo8b+ZFApefqhoCHgvhpWRupryT8o80J5N7D0CXqaDVNF1GIaITbBZExo8u4NdJ4WVqVzhQRVAtSUlkd5B6x6heYb3J7jDVABCl1N2XqCC6Wc7daos0dFKebngyW7L2afxjNI/FIBDPy94eKBZUrGfDWliyZxG90HqyfCn8rspktTrar6dK4+WjO7WJ0Yv9A/QgIJQI9py3jfPgEpfmYdrXMtu+L0fcOarRu5mU+NwtRv1EK4kPItG8ezpDFSnaoSFyUsWFaMKOLyl1C1NMtNmP/8VVEcISY7QnPtJIsJ1UmtLOrCMadbT8MrZn2CfWziN1Sms9l2mlv3D1vtw6Wr56jj96C4Ldx1fPFUszQoWEK4fBa4327PNIOkH5x26px9LKMTFo5R6sO/LpUs/EchDQq4fqFWl6UfrS+b5wnNs+cPdoq+zc9JLcIbs/fZbJQcNWdoFyxV4C2Vn2Rfd4szRyunrDp5Zvj07ffWZ2i3WNlLAHSXio5R2vtpn0YoW9LiPHJOktl61lWokA0Rde9/h8JFMxrWDnzY1B+j0wobPyh96RP77zlvOeA3tUeDKEp+yJKdoVW53PJh9vnlqSDYoC0kI9fMgugg9jaA+VMEqozhLlqQquk8IeLM0sroU/4uDxqx1OQSfl6AWKGvJNnYGh/u+J132+J9/jyWHEn3X36fVS+FV8dzTbI54C3/cuz95ZuGv+La9sB8Hq/HDv6dKV+UfPdhp8F5qGplnYbOM0TNXqGJdO0UnEpKmgSZ4wx/xYomeJhmlO9Lo6I+Ywkxfq/D5/ilZohhmM60iRIa98jhknJZ0nIHpt8xm2I6zIQZ77+USWrrB/dVDz/LhLvDXPF458HsaeowGvJ92AeHvPPHoL6FXr8+oH6/LopNh5pB15Vit19E3c18cisbtY6VTfR7NnluwOoZOWJ04W3568zWbowt1PxfuC9lwmaCFb2jPTqqV/YOhUt5GDpmfdwcPnLPPTOJZgNm6xJzumRmZVJ5nb+tx+JPjUNk3wWDZLrwES3xyTJzQVGavRsp75ov2Ib35Md+iSMYnMIZTsa2FkIMSYjZyONtPOQqCMffuaPAojAwfIx+luTgAAIABJREFU0lbc0MUtP3VfUF+TeNXN0fnbMwGdlKNfGq/kTa34/y+nz3ZcuPrLrc2vc1jgWZ1fcqTZMkrfN3HnoR1bA3ptYuyG+Q5OaHJpoq8wJv78B51gM5aGphEWtnGWjRex0olBM31q8RabNDWWeWUupKRoqses7rwktSvTbxHxQrnTspacU11HirTqqKf4bXE0vz0wEtc2T9xnAc42rTeQxGmeTfRauFtjb2v5HgqEVgUlrqQzExAGaKU/e539etDD6X6913J/6pR+9UdWR0zMgy1rtNu44uZR6DV9vKy9W+wZW+A7SrSbq2u3Z1ZgnruRz/2TnzFTKmn7YNwTe2bXP1fZguDRtSH96I31rN2PtjVd2ORPMpu0ahoL2ihLkNtsE4hd2UuSx6KM+0miOoJQLNEXGsw+IvfDQFZn6Yx1hxBFYTujCtKnqC5udY9Y5iVj0nlCaHK/xFQgT4tpaLU6kj2zJ7yZ5JKa3aEksucFZbD2nPh+kvLB+9O16mI7fEInNdsL1mjYqV+5cHZCvE+dzV7j/lR/d7l656n8pcrGw9kS3aeKm86fXzYvhEZukUkDnS+een8+/Mm7xsuVZ/RWAemkkflNevGosXbzcn+n2uSw/HREGA8HcemA3qLwfhdazCu1HZWt2SrQxAW1JCuiOj0n43MKLRUTNONL5boigo76wfFcJTO9nyRbmqojbUGT6Ia9voqsPNjxsrYAMqOC8pdqs+qbRHY2z1tTZDOmy3hs5VV70rTSD5mX8yiH+kGN7cVqr5oyuiTl77v0c5oRjS/mRgZMEBcrHF9K/fNIW6LEw9mzncXSteXn9EhKvpHNnvFR6/qGP3xMU3h3q35lqNA7WReqavve5KnO8tVfhj+D1Hjy9Ll8I9BWNhLpmnw/fWD6Ea+byUG+Opq0YBtdsMWyFDaT9sxizUbFgane1GLOsZTdCnZhL0kaadHmeC1aWxQpIcUMYG0qMvJ9KHx6SLBNdDKmU3TVbkJOkGT5wsroAcPOZUhmrCWz8wygCCwzao9fQJM3wPotJauzqAropAxddnyyUJfrfZrH188VC+dmrUiX0tTG2p3J0gmltTv7hq9/Ft657i5PDNADvlPdozc2fHfqrz67/l5foeP0qYHBrs6+0rXPKIw/mR/uLRZODJ460VeaXKy9n1cniUcY3fJ9WDu4vJgf7ibLPb3idwqoXZQhZbfDbX5YpIm9Vhme0quT4SB5D8b1KtexaUKKXFOe2DdSqq/jNBwrlWnBEPmz6dTsOknl1M6Im0XqgvCuMcyg4yAnqHtKNVxPEJ4rfBKXxXN6o9lZ6eUtQan29x+671cJaDukV8T9a9e7sw/uTferm92ITgoC7zyyPaVf0BhQHdc9NDKjJmmoAoeGR8pd8nZ5YKz2hXnF5/n8OP1yB83HYtcbl2/J783ZCkMte7RxFX6HztROD+8kIqJqllIzCJ1BouBrLZhs1icOVO12jeqs/qRWxPWszpQ7IfzXzicVZ0uvvCmSzsi0invSgA1cnmPLvDwRg0JPAb0dYnoh3j1ZSo+62IyqH7PY1EZ8zdEXPQnKT6PXGSqenOquJktODdAeJ6pFYcQIRwjrLHnj5NFJaiL4/WqHs9hP2qdeaOzwH/7PbrSxSU/xIn//RHznOfmJXvQPp+w2Nje2mnNDOEyVRjwRVyzLYj6kBwLFQM3VLOuiKiM+VcEMm09hiMwyya0qsh3QNJaxMldQy2Y8fB0kezizzKrYpEO5TlgdpNQPK6uDHTtHotzTTeqbLConX5zUubyfeSN+Hvv0fNz/GxY+K9F5FMklJqn4kQ5+iVZEsRg0dsKf8OBXKS1m8Ssjntzr+3OsxoDV4/tj2m9FN9x/eQ9nzZRX2lSNZz615dIrZ2V0uOrZWpqhHz/kBaVnZuSb6jLps+wN0z6IuBHRlLLeZoKJZyL7vQqblqddQuFFcUXthwD5wzJRVvaFantYtdJJzigNI3YYVzMquagrB3UGOumgSKMeEACB40SgdXLhOFFCW0Dg6BOATjr6fYgWgAAIHDwB6KSDZ44aQeAwCEAnHQZ11AkCIHDUCYiH0f7n1Ee9afAfBECAEYBOYjCQBAEQAAEQAAEQAAFGADqJwUASBEAABEAABEAABBgB6CQGA0kQAAEQAAEQAAEQYASgkxgMJEEABEAABEAABECAEYBOYjCQBAEQAAEQAAEQAAFGADqJwUASBEAABEAABEAABBgB6CQGA0kQAAEQAAEQAAEQYASgkxgMJEEABEAABEAABECAEYBOYjCOZzLyJ4Hod4Tz/N2f44kFrQIBEAABEACBdALQSemMDiRHRM2k1xrzZ67DgvR3B8UfNYxYbp1OWhhXf1U+3XuVI+KeuoBPEAABEAABEDh0AtBJh94FwoFUhUHixv0b2vqPLVsJ9WfD1Z/FlkLE/fvMrAjfWyJ1Ff0T3FkZpbbCYwg6yQMFp0AABEAABNqEAHTSoXVEvZKmeyqLxrmMm0BcqYRFIkIkyZTehTI1x6XS/ZfCLmxFglBzOJRnV+PqxHkQAAEQAAEQOFAC0EkHittfWZJw8ZcQZ5OfuwVBQKJH7BvZyiOpulSbCf4EAVdpiRnZxYiMY9eQBAEQAAEQAIHDJQCddLj8QzUT86iLVAu7pHWPswFjDk1mEkPW+0lx2z+mCJHYm2rJrJPomaDcbSqVSx22jDv0DoEDIAACIAACIKAIQCcpEof0SYqBtILROvTy9cK4lBG2iHFczLj3k0v65Mrs+JN5P4lap16KojR0UoQkToAACIAACLQHAeikQ+2HUA8p0RAEaqPFnDH+iS0i9v61kVbmpHqJ25QyqQzvHlEVmVVLFn+0Hop1w9kzM/mQAgEQAAEQAIFDJwCddHhdIESS+Oq+8MHIDp9I8riZuJ8UKjCflmJ7V0JgserSdJL6Dp3HGzqV6bmbLddkq/kb6zG2cRoEQAAEQAAEDp4AdNLBM5c1LlbYXovcRiLNlKZUmLuJOonlC4JAvJxUnl1Ne6yWUntajZl0ktgzC/e9SDOVSuUCdJLdXzgCARAAARBoEwLQSW3QEfwdnTil0tz+kNzj6Sian3/kUsZTV5KQEq9S1dYsYKSczFM/XpGVzT3QL5WXZtZT9qjcojgGARAAARAAgYMjAJ10cKxjahJ7KjPr4VWPdvGXI6lRGa+EX2rz5JF7VO6TNbm3VKmJnwwoz66ur1k/VmQ7w606TwkDufUlv1Kn8pHzUjaxZ3nqYsyn/RiOZ9LWsNvEsSANAiAAAiBwgASgkw4Qtr+qeKHgzy+/vV9Uz6poRyf6tThSUfLZFqkNV7WI7Rz3ZFhbVA+Fj+1sSeR9G2m1VgofqMl9pvRXwo2fbmMNlnolUrWbGccgAAIgAAIg0BIC0EktwZrLaJJqcQypp2/m7W+RQW4dRdUSXWQ6ycomTMUXsZ+meXd0xH4P94Ts8y/cUYYEqSS1VIxcEz+SKY1DJzmjAIcgAAIgAAIHRgA66cBQJ1akBJD1ro94hhUKkTBDnKog4+GDNqNU3JeHoqpISLQEKZPoM120qzBVpxQU9Xq2waxiQocREK9Ks7LiAARAAARAAARaQgA6qSVYYRQEQAAEQAAEQOAYEIBOOgadiCaAAAiAAAiAAAi0hAB0UkuwwigIgAAIgAAIgMAxIACddAw6EU0AARAAARAAARBoCQHopJZghVEQAAEQAAEQAIFjQAA66Rh0IpoAAiAAAiAAAiDQEgLQSS3BCqMgAAIgAAIgAALHgAB00jHoRDQBBEAABEAABECgJQSgk1qCFUZBAARAAARAAASOAQHopGPQiWgCCIAACIAACIBASwhAJ7UEK4yCAAiAAAiAAAgcAwLQScegE9EEEAABEAABEACBlhCATmoJ1iNjlP7WbNLf1j0yDYGjIAACIAACINACAtBJLYB6NEwuVjrKs6tBvVKsLBwNj+ElCIAACLQRgYXxQqm2xhxamykXKovsBJLHgQB00nHoxYQ21CtFz7xdGC90jM/OlEsz60FkqidYy3eJNqv2S4QtVjqK5C3+8xMIVa//Ip0lgAX1TypjiunqTMHFa+UvCEmtjVNBe3nQl5A4BAKt2BW2bWbr8dRBKNmsz5bMUOQj0BOpLJoZ7Vtl6KCJECciZD1iKTyh4UQst04n1Sv5A2DEvbgG4XwyAeikZD5H/mqCTqrr2d6SVoqF1rq12oPWobBFu1/7+R81PyZem/P7XWlSAxxpEvHNgmkbaiog8pieKwrHr5q0BELO2n3T+qOWTGTqSrbTnGHyWm6wweyT1PZ4o8ysrhhieexzE3Zd/EqYpvFspnxk3rFLamwrOHLeUXSKKcXnLPnffDxJbYWnYU2FBY+d1/4UdFLOIfD11uYG+/eqkbM8zx5/X0Wzbn9eG0rSSdyXfU6LpnniY9hkFW4y1spibiQe5TSVsUaRrRXiLE/9Ji9FWHchoZ6N0LDOsBjtrgSiaxJ0kpvf3m2iq57ODYJArR/G9X1OrX0yVa3OP9pnq+nmGi8e37g2Wa1OVqvTNz7fSi+wpxzrtyYnq3OPLRsbi9ers/UN65w6yLXREg07/lDjLsyuGogs+VrHiJxa93hHi21c6iTPNNdGqKU57HtMWVPDnk18Iiiknk/uc1gkIkSSTGn/PbadU+n+y+aEfNyuiY8M/mnr1I5DlwB0kksk+ZimAV+c2FKUXDDXVaplnwb0YegkOcn9wVdwkBkicTaGkRAEXmtkp3U6SfS1t94YR1t2mggkjIcc8ddykcd9nc7yvlr8+KQesdY2q8K9Hzy+OnC6q7tv4v7eTeWwsL0w2d9Z7H93/OrHc1crFyldXdzOYSBn1ofT/d2nu05OLfFy1MtxU8bSSTpGRTtCamsxZVgRsuwbYFIEyKs66OlxGL2LMPmdWeNRz9ITHkvJW0t2MA8lhzz2NTmi0USUptY5rdAmRUJj0UDE6aTqUm3aNThHeoY655MOLZ5JGXEtmQB0UjIf92rSNHDzNn9MtdjTL6et6C1j/B1GbPDNWafMHhdzI8aojcmRSBYRt0rRiE8XRV3+S5HqmjgRVSfR4M4DfTPhOItbKc2kvo4Ri1xHWkOCoJFZsxLoKKx0ktSyetiM1+03nFjD+eIdWduyNDB7nofT/QPTtWtDPVeWsxfaa84X88OdxdLMU2PnSa3UWRyZ3zFn9jX16NpQ/7W5qwN9Vf5CMPUXR82rJOwl/dKPP3SIAaAv2b0fBPR9Djvm6AHAKrV9oCJcgiyMFyo1+2ld6GQ0bOrxJnIoec29suuibHnshxVHjYQXhDXOk3Lq0e5NGA4mdoVCRLNyCpoiof+av3Yjc8ImllDMzPRSaY/rSEItr9cl6KR8/V2vFPuv2fvh+Qxkyu0GoEyF/Jn8pvZ2Z+OvSYZa741pXIHoeQqFbHEQIilGBMhIZ1b6qLG9nUnQH8JwQgjeW8V2aRH1OBP7spDUZR7iw/tyEfRj0YnOsiSmQC3Ujx3c7erkkajU+pqPytVanbQ00dczsRzcn+o5Obm0G9a59vFY/8CQ+TcytxYEdFIkZKalyaH+SSmt1msjF67ef3n3Srmns3jpDj03bzxbqJ7vK3QUu3ovTtxzn6k9un6hMDDtPOlbutKnVcXS5NClm08fzIydPVEsdPaVriw8V74Fu1sPZsb6u+n82dG5lfApvfRBXeoeGpljIixYnjhJG2bUWC4HY8ebWhfjB4lHBnkigB7wctUvz67SGWuQ2M9VXfVDoqFc8roR2diwV32lk0iLq+EX9TCPfdHvokUl/gSAwgWFRJodqiI1dq3PaO3WZXUQaZe64PvMlTliwCYWuaxO8IBP6T0oM2USnwF0Ur5BUK8Uz15bWLqzcPfO4qMXe3k5KaFeHbAS8mS9xKeNKZMxCpgCKSlxg0XvVM3uaSeMwmWpsii/ZyttijBNQCKbT+KkNyinOJvtsri/tBcJu2DsumVn29uRgBCvBakfLTK6I2K/qrM3f2RpqsUbf1vLJBQQgVASZq9FvzL4ZG6ke7CyQNs8jodsFoRrZ2licWXj5ea22FfrHLx08+l2o/H8/nSp01k+t268VyyYyhS+n18udIzdEs/eyHjn0PD1xZWNrbX7teHe4tnwVmqnXh0snJ9e+qrR+PrpjfcHeyryaR35cKq3PDyzvLax9eBH5ULHxdoLZZlUoHjiZstBsf/n+CZvFeJ2E5XBcOfVKuvwMd1qT6jktZlRFQbEaPRPmUjAsS1rnURkpAXy0HaG9pPinupG7IfSsIPveImIYZ0xiKi6lP2kRM408uPnqajHy9x4YKey+OPy4a9wSWuExep3uxIcZSUAnZSVlMi3dWuk2PXGaKU6WR0td3UMDt9sxTfVddSwfKOolDaTo7PCjWXSZEJYSanCmXXkKl+qc8UCq3nOzr/l4fraqlj5ZF0yekaW5Ob4OD7oQxGnEgNfxAFdVib2wR+C4NzQs0qcq+SP1Rcsa/iGtR4/lQXG0+5xtc7pnvXYjO3lNCZU0Fn8bC+TjphuWLpi77VQsZ1bo8VToRBJ0UmF0dv67aJ6pci3bZYm+s7+iO/uCF0V/UGKh9P9agVyptjzjy4WpNAhGkwAbcwPd1y+S1tNZNPUsrtwifWy2UbaXa6eZI/eomxpADjz0c8vit3xOSwW3fCInlE1iAli157gD12yZlN0dtjyyAgmVWHkSZm54NlaFvZNjcJbMZIzDr+Iw7y2qPN6ZrkJVh354L27CE37msxqtZUlu8CTNEjcVqsZzfMhnY8AdFI+XoHeUQ+CtQ8vFjrH6+xMTltx2dnmc1yWzOe9ATFtxmawThPSE3eatiwCmR12/V6w9ZvFIH/eps+K1iU8tCLD0XWr6eq8BaUP4qmBL9ItVrwBMY9XxJwzpLImyHqdkidjezmldv8NQEJF/NLSRF9hdP65+Lbp87mxAnv0FgTB9vxYoXe8/ios4XjIZoGjex5fHSj2X5RfZKP/XzrfZzERmsbzqF1qgmdUHTMuaqdLozc2hEsny5foK3Ly36iSVo4PHMvyxMniyNxL8aXalzdGmYZz2fJSnJMnHVli/WUdaGTIHhKUQavq6JKfoC0iest2ifsjot+Mq6vImez2rcf3RFuqNE8DPbTEqYS63CLkPAmgSBudjCm1p9VoE3Ns60M2tMSAKan9OZ0DiSYIQCc1AU0VcSOXOr/HzxaZNV6JwMEXSHNpr6mUWBBjXtyfZRFJYXnKHw3TMcbznxZ8Uu23tJsoaKqdJJFOEm2UQdGL84rOy50h+n8ovOzM1npv5zf2Bc34Xk6S+PGlsnQRCYie7+n3kAZ7Otley4v54c7B6j3zYrVTF2saW0ioWjL79uTtu/QkXf379CV3qF4tFt6b3+Sn5HM99X00Zlxkou4gnbQ5N1r43uVZbZYSyyu0keX4wFTC/amezr5T+nWr7/UZOWh3lqNgbO/cI3eJJQ89gthtCJkhV30y3a2CjslDj1mPlBTikg1pRkCy9X6PNY997R81Ss1lZ1RYedjsMFowetIOm2Scuco5e+pKElLOkBCuiYnPnWHEtO/RhNBt5Ln3DbNofpxJJwCdlM4oNgftvVNA3Of/YqLYftVCE1gvq/tlVNnxRAd1KeZTzmp/ePUVoYDijfK+zE2cE/6owJpU3lm3krLmu+bpIBExY6KkHWHjvDJrjL3y6cGmE9JZk9+zcxbfy7YzvN2iCXzF5YsKz+hPk4C4LN8HEhnoKZt6XvbyxnvFU/YX9cnDt2ZXlC2mABwP6fWj/snPVEbf5+JkT0f5+hN2affx1XO6dnc/yTx3uz/V0zF2Q21xsfKOD0Yl0J7Z++aZYLB9e6RDyUG3Z5MkKauLkkTDLPBO7Sqvaz88n6+blDHrkyy7YksqDC4C9NgQ45+/V2QZ8xz47IfZ7EbFj1vHquiRil9NiqzEMHTegA1/9b4yI+5JSrW11XX+J00SdqAFDSsGCgjRM6JSq0bHc/uQmm8Z0ZdDyJF+0RmQ4ASgkziNlPT2wmRpbH5Nvr3deHr9PN1oPqdCO/UrF85O7M9PqmSezCneei/L6aFDkjfPXk7mcj6MldmnvVhr9d3hXvz0ls3njx2CvQbzn5Tx1xfaxGLAVjttm4qkd6iJmG5+FTHVjpQ0bPLn0knhm8WOPxKsc1IsGxk8F/6Ih25MQMgHbeLR29qH5ULvlP76W8iFNEoobjbvTZW69bpLzeeKc/ve5KnO8tVfhl9zazx5ar6tFtraufX+6ULv5RtPxMwXb2TzZ3zUujcm6+JbHY0vasMni6UP5WuL67Pni6fe1xHj5cozuePl+KB1knjoZv3cAJODkfGWYy6zsuRt9DaAMlhYwqZH3ojX57MmhGV73IpbEet9ak1AP1yjM7ybYqvz2Gd56apvNrEsbpILekrb84JyG9+oC9zwJVrnngwrERPB8UfkjzgZladr8s9Mhc8ffZ3otsT46V4xWKzH9242HCsC0EmKRJbPxvrdK+WujmLXCfoWcf9I7UF4s/j4+rli4dys8+XheJMUKPm9VHI6U7yIr0xekWuVb9qnlcxzPYtOUp5kmeph3apINGblcS4urwy1tFPthDCrgPIhseNi4qNlKO5ABOikvo5ZEoRjSZ5ThaaN5L+SLDJGF+nr3E7z7fzOsEnpZbes1ihuy8VKn+Z5EAT0RnPk94rotehiZWGx2mn3SCgC1mvvnpbTqn/s9srNMbWeORqFXHo+P05f3T8xeOpEseuNy7fEW0eWr7v0OwJd6ilMz/nJu1+Z68S/NDoyIN04XZpc3NTvLL767Pp7fYWO06cGBrs6+0rXPhNSy/GBeoF6hDauwu/Qaev08E6+BElUI+M/ilo5KdrO2Mp7jOjPdigLsQOPMjA72rPUhKox1rKxoAhwXSIcUwPVZDWpTPbFCM82K9UEdxorY3WEvPCD6SQrmzAVX8TqIz0ZTcvCLUALuzNm3G8qWIW1lopruOlT6CSXnPcYOsmLJfFkY4fesvzaztPY2W7RrwTY9eQ7UkGQgmbcnMlnMSV30gqqnYnezsZbFUtpq5xXkdEfquKd2v8rYq31/iKRXRcx9MVftWZEBXe40pjIKA2GCsleh+RJsU64+S03knrZyph64Eb/1AK5MjQ2tzaz/mWhxvZGWmbvxGfvcVN1TliQ7opfLmho8ZSrDa3LrMaMPQai9SkRE73iPxMOLSbH/fnYWVlFZM32D8Lc9vU0j8yOUBKFGZIipJRBbItL0VM2o7NS+Jkn1jEgImlXkUFuSgOST9Qfy3wYV80tk3UVBw4B6CQHCA5BAARAIAcBWmWTltgcppAVBECgDQlAJ7Vhp8AlEACBI0MAOunIdBUcBYGmCEAnNYUNhUAABEBAEGi8SntgB1AgAAJHmQB00lHuPfgOAiAAAiAAAiDQSgLQSa2kC9sgAAIgAAIgAAJHmQB00lHuPfgOAiAAAiAAAiDQSgLQSa2kC9sgAAIgAAIgAAJHmQB00lHuPfgOAiAAAiAAAiDQSgLQSa2kC9sgAAIgAAIgAAJHmQB00lHuPfgOAiAAAiAAAiDQSgLQSa2kC9sgAAIgAAIgAAJHmQB00lHuPfgOAiAAAiAAAiDQSgLQSa2kC9sgAAIgAAIgAAJHmQB00lHuPfgOAiAAAiAAAiDQSgLQSa2kC9sgAAIgAAIgAAJHmQB00lHuPfgOAiAAAiAAAiDQSgLQSa2kC9sgAAIgAAIgAAJHmQB00lHuPfgOAiAAAiAAAiDQSgLQSa2kC9sgAAIgAAIgAAJHmQB00lHuPfgOAiAAAiAAAiDQSgLQSa2kC9sgAAIgAAIgAAJHmQB00lHuPfgOAiAAAiAAAiDQSgLQSa2kC9sgAAIgAAIgAAJHmQB00lHuPfgOAiAAAiAAAiDQSgLQSa2kC9sgAAIgAAIgAAJHmQB00lHuPfgOAiAAAiAAAiDQSgLQSa2kC9sgAAIgAAIHSWBhvNBRLHSM1w+yUtR1rAlAJx3r7j1OjVsYL5Rqa8epRWjLkSVQrxQLlUXm/vpsqViaWWdnkDwUAuuzFRElVmsVdMf+98BipaNYWRB2SY/mE6NrM2URw2myhEb238OWWIROaglWMrpaKzUxjOhOqDy72jKvbMM0cKnGIpcg9YoYxAvjYiVYny2VZ1dpeoQ5TcLrZxNzIMsakyWP3Tb3qAnHXBP7clyvYEHdF5CtMLJYyTT7omNp7+PTaU60CidDtkOxuXI4axIFwINfDn06iTzxBisZpWMuEeCM4yFbXxyDXEwbKdGTo1WmCNlJwK5t7tMs0PaaTUAnNUsutVx+naRM0uAIRYl1z6qu5/0UsTKicqgK7x2wTyfpKhcryeIvvdVeyaXaa0SYtXMu9Jy6dxHx19OclN2mxCkXjyiOkiaSNwGdlJfYweXPuGcpB3ncOAzHcJZlIKFlicM1oVwQ0F4Xm0eVhWBt9TA2ugSfNImWPRoIyZXCnDdchYvwljWmO8hgzKUgCDKOh8TuONiLOyuLC0tPdsJKG43GvlbPtlFpfHqXj4QKjU4KgrWZcobizc+CBDeauASdlBFa2nyOLtI0A525Gk5jX+yIuXGR63eCWoos8BkGX8r8T9JJvsAhRAyPUJG0BSempU4/WPQIvg+aU0Ye0tTi60RCOs2m6HQ//PzjQTlLuPw2RY7MK0GmjlaVRj+379eq1dn6RvRKi898/bQ+M1WtTlarU7ML6/sbx6Our30yVa3OP7IuPL5RnbzxeXjKURWe0RLpLLZaaLvNLBu6MEskj14WT0wZb5H4tV8WtOaXsbWfKTGS06ZYtgopynnb7hbnK7G5Rp7EAIlcamI8bH4+f5XG82T12vyjTVPtYaT4OFysdhYLVf50WHkkusYz1Jm8llftIMNCd2Td0dbCIlmrkN3qHcP+ML4/I0qRyPgJnZQRVEy2cLjwSchXUD4I1DynAaTSxiobguZkYiociGSKL71ynqcMJp/c0ZX5dVJ0YkTWj2ZZyd8JAAAgAElEQVS3qfnc1l7ohL6qE/pSrgQVT8HC7Qm8OfLLsp7xwI1SmneWICbCgSUl3SJhNg/waM6MZ3ZujRa7uovDc1sZC+xPtie1t7uLXaWxiZm52cmxUnex693ayu7+2PZZeXx14HRXd9/EfX4xRnb7JyYvKNPe4nscnN5aeFSJZog/Q4MwtWz+gCP3V9zYFW+nuRlEpRznCbi9YMe2fe86yZjONh6e3xzt6hx6uzJd+3i6cnGoq7N8/QuysfZh4u2QqWZ/U3wc7izNTM4uhntLGfwRK1d8kOFs1a1CfFD10eMWsjU73n628vuVCzqpeZI0VhKWNzlQ6P/OJPdFFt+oSvJMrMd6FXcf5YhK+VUt9pMSaobE6iTWWHuxDz1VkyfqOA13vokixVwWZ2jrWziWf44JN4y8K5ey6yQqFdWy0XZZZ1LGg8orGlIuqVs33U3qevQzsk7kHS1Rk9u3RzrGah+PFd6dex692qIzu8sTvcVTlcVtbf/VYqW3ePbaY31inxMPp/sHpmvXhnquLDPLeYWOxZ+6L5zRYlSrfnQGc3RdlwWtbGxCMfdEci9dnEknOSuQ3RYVCoQrPF5RNqtpCX6KKBS21zLottU6plKWTso4raQRfwiK2DQ1xl6KtNSU4ePh8dWB4tsfvdQXN5+sy+FN3Z291br8XhOxbqf5wxslnCAyPAZShnC9M9CoOn8Ec4sLm4n356bpzQVtU37/U9BJ+880tEgDhbYKIsOIxx1V+2qtlBA0VS5umZn1zY3klT5xvMbqJGdJcKKAiM4l9syL4qmCkBgyfP57miyjp5iujifq0IrgznsJwhMGzanAHPpDrbm+t1QYAqyVINki90cHO1cZJ5uIXN2cGy28N7+5MT/ccbH2Ql1+NjcyMNRv/o3VngVrH4/1j8zprxkuTQ71T4aaY2ly6NL80wczY/3dxbM/ekpWNj+bHR3q6igWTlwY+eip80xt+5PLhY6xW0YlUYnnH10sdI7X5ZbS4lT/2PzKL2sj5/oKHcWe85N3v1K+BY21O5OlE8VCx+lT70zV1dMN4cN6eKmzrzS5zM0vTfT1TCwH96d6Tk4umV0rGkLOSCCwJSNew2mr4jUbV+HwE2f4uOVpekPIFPEYCRtFldqaQLeWvxlDA0CNcJ1w/DcFw12f1AHmzCOVn6aJSiujetTRCWoOWz4TIgmfcQpCktuyOipl7Iu2m0PlUdynp2cpq69RoYmYS9nHQ7XT0knC7HptZOjUiWKhe5Bmk5w+NLZvr3xaG3njdOGt2ZUgCHa35NwpdPadHZ1bkbOl8XLpo/G3e08XOopdb4zNfqreNHo2N/LW9NLm4sR5OTWmll4F29KaNez5OCQ3Rj5eDwKfPzbC1CATDkJapKwqIi85qM4Sva+Ha3hrYXVuhs4SRtLHjN2WVhxBJ7WCKtkUQdANx3TBGiuqdrVrogvyEeYMFD6mRXnvgPOpMVUbj8L6nE7E6iSm5KzQGTbK/qZeGBndmKsd5g30pdV8owIypntN8UmrWxAmrOVKTO9EuaYrspcl1mq3gnzH5Kq1xmQp7o4W1a25hLVb0daN9+QTN0qYu+HdxubGlvj3tDZyWm78iAXD/BwDH3v1SrG/VD77/tyjZ+vPXwXB9mK1t1i6tvz860bjyfyl3r7KgorywoGlib7CeWMqdOrJ7NmOoasPxdHCeKGz2H9xtv7F1uaz5dmLg4Vz04+EvqGnBr2Xb3yx02i8XLomv11MReqVYk/vUKm6sLKxtXZn/FRHH3sfY3nipHziRgl2/v9v73x/qzyyPL//koVkXmFHgiBFELQkUsv3RfBKcYgUiRcoGVlyhCaWIyEhBQGimRe4V2p3WoHtGWezCr3d63a2vYhlJtlMOtMwLF6WuHsI09mGhrU3iayAntWpn+dUnXp+GP+4hm+E4rr1VJ069alTVd9bz3PvzeaLi9UYcnby5oNlw97HFY89npY6yfVT/8N58hLtnnJ1i4w2fWQMk8zy08dPzImJiDE0rftDQeirm3kUViSPIhhgCWWTs1OAiUhW3CXJPTcQ5IxP5wWVHKob/GTXhf8svyShWsdDVVVfnj40MDhy5OzCbfa2YPXe/YtvDQ+8NUuz6Z65MDc18OJY7+VjM18s3f56papW5icPDrxy7vIfV1e/Xbz41sEhe876xfSR8RmK/2+WLp8YG9h7yul76sLBPb2j01eW7l2ffXPv8NDLh3pvzFz+Kgl7HocxrfjDMZDxGPzx8YmwyFiw5803swhlTE2EYOAmk23Ox4lfvsrPyPuS1pgJmOQNuWhmk15AJ7UEXQ4I3YDd2nnw+XIh+HyG1Ua98wtOmycbs1lu2AbPQs1a0FeBWodFrDM/TLKok5I3tSF8jYfxDbSTNWxpTltIXpOrrHpy1fR3jq/UvEBdXTnlzIgkbLkluzhmBeyWma0FtXi5WZem8mwQlRJqlt2Y+aU8h19tlWbHSHSck916W54dH9g7Nf+AjFFzjAnfRyntdYwryUzRkdW4/aIV5xSvG/2kO4B+qaUhYFPm6wujO4zQebQwMciFztXjuw+dvUk2yGZsZfHsj1ggsWOky+/uY7fepE4y4x7H1043CnXmiXN3abpHmT6ueOzxdCgQe1lMJV2ODXkmxZrlC7rNrHxejHI0nRG7TEZYSGRrEW/EkIxg2SUaNRZU7Eo0zlrh1+vSeoCVxJC1lC+eBIHBr4sHa2Ll059O9XYNDwzu601c+NSfdKbOkNlD7v2Ac4kd5dKUPPbLeORpLH/FFj1yw8V8VVU3/uYQHUq58jz2SmkzU8KKLSnmS0qSE3eEdNSoOXWICzopuFes6CeXdbFp0ZYd2bhX0Emt2HadtGYhGJMi3TekaBQKGnpTWIhjcW5ME0as4AXf/GZgpn27d5w24n0Ei+9PSj8ixyaS/YIl1jv39IZ3wF8p/w2TRynipmi+nLmydXX5PQKafj2x5fPGaLwkVX6V27H5BeaiEn/RtXyoK1eNkP1ECVIwL5+7bI+Orpx7id96q6rqwcdHBg+Go6DEc77683RV0YPhQ68cMx9kM5/9eWMk2Qup/NGP+X0x6obZhyY/MT2iWOWxTSFET5p/cW7/jpHD9iNF9P9jvd1udZY+iGCg46ujs3dMN+9cGB+It954ZIrvuaDO2j2yGG/kpx8Uaq40s8q6X45d2mVzNZvjsk7TK9WmUkmqHDMQ+p6X324z1pLYSFuoN5iWdq/lgBYKqdnUa13kifVT1jUjnoRcfNkyHsjko9Ubl06Nvjg8MDg2HRQ8X8/loNBbkd1jb8aQPro/OP/t4mV6JPzQ/hfoFpsbERmQkjwP+1K6Tif5eJZo8lc1O1d8C+2HQBYOTZDnEwvSf9kSA0W1you2rLaxr6CT2vCl4CuuILkBO9KFxc4GiqzEF255xb1iDqRm+cRgdeW8YhdMUgaxvOp1T1udxGpTowFUoVOmTGl3kfl+ytW9Iyx03ztFtO0cnlgo3W1scY9D7ijy1oNvqu5vWCbqCmnX1lxRM2bz6F7bzr3xOaQ9u9itt+ruxdeH90zGR62TFY1vYzxdVWR2z/jMLy/NxX8Li1wV0b2z3acuJ57RZDl60X49AVsiTSmvk66cGtrxxvGPmOVLc5+ax6qkDzwYrh7fPTz0QujmwaF4IlWITGrdh1zt9ImDQsXstlqwmXQ2e6mtBuZMJWyxtZ5k9iiDmKTv+9WCbFWJ4k8tqWY2ddnM9A7LphfN3ao418iZ4vtM1X3KJALFWq3jIZp/tHi25z6KLyMzfa6L3qu8cGyaT5ZLV28sV8tXTr20i+7i3aC7dYywDAM5K3nYl9IbqJP08WJPkljO7p2DiYo40SK7mGqzaMfSm5KCTmqDWSwoTRX8nkoBEd+ahFrqyhiuFhLeJl3m6XT6herpLA0XbKJOJ/l32LlOim8a9NMv2Sib5Enr8qWZ81MTdbfeap7E5OuCtJu9ittbdsll0MroTwjCRkXXJPPuOmlNg04NGzjZMz3S/27G6YT/0Fn/7UHmAYuRcOvtzoWjA3tPzDN1Q8btY6emUT7EPF1VFZ3fHJllVaWXVVWZ+2hv/oo/tESnUKH19Nwu3Hcjn0eOf5YZtJogjhQLhiunhgaPsWfGzXGX+9SbGpmsbp0uJx9EIJmYoXe92mRXPOZZfCeO+SLYug1uR6mRjGB0oTlFuIoKw1bvrpPIn1YKT/pnt94YBvJq+RWxDco4LdY2HpJvcqQumEPTlC2NNdsOSPqPXzS3tlnL9GbDfSSCclmgUh+9iE+XBe5qKV2nk4hDG+zKrkHNqTpJzBGxYFKnfOT49+QMQZKUdpKLm/cSOqkVazOj9IBI6sfDiYJOivNHKO7EjHiZLB/RQmElogJ8Tgpj5oUS8b5QeHwq0Ulmctr3BO5emK8R/naPaZpmfoqadGmxk8tEaFG8U2G5edKMIFun8hKyCc48X0fax4Nvx6wObRYjX8H/pYpNN3HalHH26I3si+fE9y7SXS3zqMStmd7gQflVQxV9WGzHmH0Y6N4np+g5DD9GMQ6tbVP9zV+4r45c/XrxdroNVF+ePTQwOHbyyl16tNU+ke3vU5AN2ktGJufs1cXp18Nz3+6hV/fwx6PVGzfdJ7GlD3GTMDfdxD0+c6fDfuqNcGWLe3HF9wMR/6ZxbqRSw4yLtSll40fdpOmSJ9xSKEfbZkHg1eMlLZUHtlYqy2vZiimWcc6s+YzmVcuXZH/NotE8QVgNnzTN5WHgL4utPWSmidUrp/bvGpu8tLhqHhVa/WK6Nzh8+AIFJz1CxJ7eS98DVEvTrwzveWvWPf29evfGVyv2UHb/ic9pdjy6/+nZN3aGQJWrkxy4GPZyPeT5mT+iK+0WEGXXKM0aKYCi89alGf/rQLKYcIlemGlSu2hnVTYoAzqpPVgKpnjekKXTzYyCQxtjs3wYO9pV4Q5FFZVM91efH2aRr2Unf/OSrUS8M5Es02bijU3fsi1OTbsfQNDnlQnr+KbHO6X99RBSaHbLYfuEqxxnWmLNTrz6n2Wwzjc5ljZh39bbQVdHqmM82MOPLGxCRKUoQkcdK9UHX4i4NXWQyt6deXV4f/p9RXSLqnd+aX4yCW9rcGnmVfqU8sCOYfpg8y/GwzYsNQpZX/5s+rD9OPTe5weeGzv5GfsIkPN0hT4LPegaEp98djpp7PCREdvczl78/H/16O6HE/SNA0MvHBwafH7/+Mf2qwqkDz4YHl2d3D18ZJYfXFUVHUrZfZEGLt+/zdyphexhM51kY8CCcvFQGkczOzzhdEZ70+nJJeX7Se3r2hBKLdggjyo2WKxLUNi06rIz4hShQk9pxcRtzlkp6cyuxZNsbVTMiyw3m5reSTrsjS6Fr6swozO47/DZz92R6tezh3cNDzx3cGivudeco37w+dnX99H3XLx4cOfgvt5pkkfLC6deGhzeuffg0HMjR3768ckfedRydaJYigHgw9708/LxgwO77DNSIr9K/BFQ3GOCDcGg7BrUhDLEvmSIeTMpaIK42eEK+HsXiTP00sZzmzVNqbzuWdBJ647UG6TIbpxmvrD965ehsHeGPUmWy1/ZqMoVVVLSLeX+i/KSqzY689CU881VUjPDfJNrulnZ3Qxx61TeCnMmXzflMkFFGStlonpjbqLmwssXEH+db8L5GuOi7ga/CCuOiQ2FnlQM6+zN6r379x7kokdvhQrbz0Lr1+mhV/q8dG4w7CXfFiysrtz75v5yW0dKzZfzWVDFOWiil4eB1Ul2RHJVFEYqv1Ru+MmuWLdbBrloStzjE1eSF45MlwXNzCbOLTHpXhrLzcVcab/QdV1a3b5LU7vDuLSLBzobvUdfqGFPlWI3TZw3hOu3WUUT5KmpaLQxtbqce2IrNfkTQldfZLz6YR7QcORjNz+hL1CipGUb1V606txYSzxHI+ubgk5aX56wBgIgsFYCtHR22YnX2g7qgQAIgEB7AtBJ7VmhJAiAwEYSgE7aSLqwDQIgsDYC0Elr44ZaIAAC602A7jisbNxdtfV2F/ZAAASeCQLQSc/EMKOTIAACIAACIAACayAAnbQGaKgCAiAAAiAAAiDwTBCATnomhhmdBAEQAAEQAAEQWAMB6KQ1QEMVEAABEAABEACBZ4IAdNIzMczoJAiAAAiAAAiAwBoIQCetARqqgAAIgAAIgAAIPBMEoJOeiWFGJ0EABEAABEAABNZAADppDdD6u4r9/Vr60QB8tfETj1Tz7xA9cRMwAAJ9Q8D9jLfyCxV94+KWOgI+W4p/yxqHTtoy9KWG2a9slorYfP23dSr/U5qt7dS3Yq52VV1dy1Mjpe60cK9QpCsBrbzzyq2PhYaQ3Z8E/C/Ipm8Y5EDHHz1MftONvxQ/TbXxvaWfuCr8vlXDD/m5nyRLu5y5XPhlNzdz88lIlLpA6Fo+c7CcwYaP/OTD5NPF7vufMCsW8M125dNtBWNd8A22/7sWFVvoTvtGn+2S0Entxt+tPuqc7PLDii1aaz2F8rXM/gzt1LRdZG/N9LRfGWzhQl6k46r39Oikyu1YWY8atqscIXI2g4AQPeIXT9mPosgplsZ2plHSAuY3mBs32tjbzKC/lAVVeJPjq/jtjW2NdYFnlqmJORO0DcfJ3rL3hf6aVqYnzIJmj6Xj1QyCuVR+/9ChPHXW/Niw+v9cnLHhK66B89FzliLgpPbqGLriXflUZuxaSknhNjnjuq/8fCzz3idZMPisxr9adxoroYAnAJ3kSazlL60Fhbd95lJ58g+UFYxfIhsdEpMtlKZZx42bpcHPwzAhlQTbVJqcp37FfaJ+mYtNO6/I7ZhZg6jb+9cAwCyCRbPKSsTWqdwxpbxtiS3Wsel1TC1fmZmcnJ7/Zh1NtjP17eL8+VOTkycmJ09Nzy1t9K+I3P7o1OTk7JfCtWsXJ09c/CeRZV/kkZZvoqFaOkDrp5PYDC0GM3OMyrDJFRx072rkju4mtWsivtWhKWmNlPZ4B8efQpmXcZKyVm1S3ThNd7wFWUUtX92em7LKQxa2okGZO+XymQGzcKnc2MiW+GsdFwZretqJT8kBsZJkvaBaJkLkDkIeptBqVyfWihu1Nku3rZU2VFVWXjOb+Qpce17AV3UW/9nIbsMM6KS1DpqZdZ2jwcWZEqPBD7YKu/coFH9B+ph2eUTGtCtDU6XJMTk/Q9s1iU5vYshJbamqsb/+993CYlTXKrvWqTwVzpY/ZuxJkysfHh3euWv48IX7T2qpU/2bM6O7hnf2xo+fvzB9Yry3a3jnqzM3HnUy0anwtZMvPr9z177jV3gtLYDtxDERnm2T+mxixYzx9dNJqWXuu5LWFQYV1KaJNe4WAX6o4xccTSdRNNI6kEgcA00sBW79EXuhW0BsXWqF8TSNxhWGv/3wbZGrbVYntbyCy2SRn8wNX8yIv+D81Ly6aGhUDepkwhpo3ivXQlc+3jHztzzQolgQkcqCIxf/tJp73WkpdnWafLMd7zK/onMmSDZyMYxNbVUKOmlN5CmquuoAc84RFpRys2bdGev5JUksc7xWsqKZJcMGq1i5eBWXpn1IhLW6sqQVm2YaL9/KoKkQF6axnnuPxQ09SbqLw9ROp/LKGvckvqZ1lz8+smN85ufjA69euJNe27DXj64e3zu8Z2JhObTwYGFi7/BLp6+FjHVOfHFu/4vnZk6PDL17lVlOdZLZHcOumZGnEApXo5lUzbA5Ky+Z9wx+uumaQLzxSN2LTaopNhdqzwbEeqLulzYz1UlhBiVbvnPGqIF8sWI0TMHYqdS+tcN6kZTXnyzsWt55S3+ali9aSP3yZXsXlFNICJjmPqn+1tGMiCxsPenKh2q1X0AWJnb4pyNYxymZcksum5etdZKZOIZJb0zIX2nVFAszqO38cjbIYcm2tXvSi75+BZ3UeXj0daSzmUIFt+qFqC0Usw8TyOXPLqOmQlz18vrc/1CFLT3mMYWmbUN588pbajPb3aLge5rPN25wDWnmQ1wvWL/8UutNdyufrSbezLr8vXfh6MDrs/e+mT28442Zr73Jry4ceXFkf/w3PvNVdfvn4/uPXLjti1w+MbL/hNMcl0+MvDm7+On58f27hl/6m0Uqcu/z6aMjO3cMDzx36MhPF5N7assfHRvYMf5hVElU485P3xgYnJq3R0oLp/aPz974+5kjL+8b2DE89MqJX/7RN1yt3r50ovfc8MCO5/f8u1Pz91y+8WHJXRrc1ztxlZu/fHzf0PGr1ZVTQ7tPXI6nVjJ6aUb4ICGr8qpph8bXvgMxUZRrHXqzwXY+Ee2ZwTApfN+SFttvh8ZAzbbBQs615aZ/2O/NQbK0wOavUwkmksnJvOPuhMlg4QEfiflORiZUmAPXexHLq8pG+lxVXNzUKCHqEffTeyf+8qbFBeWFRTQ1XwgMertrmCdvRzvzoaa1IdDfGFMI9XqaPmsjtjK2Sr+TDSKdRKxGeimJdiqZ0/D1xXj5caHMhKcvv13/Qid1Grn2M6GTWVvYT+l2VbPV3ESzf0/JFlNpLl2a/aIfn4SQ5cUrX1hkFhaIdNXOVl65dNp3pemNg7ShLq/5PYs29bqVV1aTNo20K3P/4uv2jhslRn9619V6tHrvm/vm3+LMkeftwU+yhPFxn58Y3t8be+mtC19+tXTnQVUtL0zuHe6dvnrn29XVm7Nv7t03MbfC/bl8fN/AKzNBcrlLN6df2jFy8gvzam5qYHB4/xvT89fv3/vq6vQbBwdePvel0Te3//3YwN5jF6+vrK7evXzaqxYzxEN7R3qTcze+uX/70tSeHfsmF0KbV4/vtnfcKMHyOVuxEFNNdRdPo9oWkzsu7QduZ/ILuvWEN0c52cySBfK2QofURM2uVjRFLfK5QC4x5/mlrM1Wu5QkQDZYTsZcYcLLK4OSMWwoTx4QjUzq+QWNd9O5qpaPFsambykd4XZYOi3JaLhSLCctzJ7siaucnYlm4GQckr10fJknMthKWGI3LbFccpGTTKyQWU2AZn0hqrEXzrFSoCaxHYp1W0tZ7/s1CZ3UemTM2454J97XszOBRaS9kISpL138S+Vrl7+kZhbfyVrGdgVeM1+/8hxePklTYf0dkiwYJozMTl6xpcevHW2MJ1YKL6XxQiGW3bF8tpwxU5RMVpDkav1LdoxExznZrbfl2fGBvVPzD8hKMiKJTgo6xpVkpujIanyOO8Lrxny6A+gX3CSovr4wusMInUcLE4Nc6Fw9vvvQ2Ztkg2zGVhbP/ogt1uwY6fK7+9itN8Y2D6TEB+doouDNbKK9hK34rKIc66TuOuukuvmV9850h6qYjZCvKsFOMkyhsHKYFHfTZB9lhP1IcyZkU8xEZTXj5e2bHLYNdy1vmEtpaP2izvJBNLmi6SeZaL7v2d9OfGywyYelaGRD7OXWKIfh4u3nhflVk27VZTkE5I+2v+QRyKYJazidI/aSGAiTlecwI9s4CZ3UavDMdE3WGlYxi61soWGFtWTX8uq76jYx2qaMd5BmbLr49qYmWhyMt7rLLk+GybFesjp7R9byV5/YZUtrKO/Vg2KUFqnCOqiUTrJIwbx87rI9Orpy7iV+662qqgcfHxk8GI6CksjhmyhPVxU9GD70yjHzQbYT9P83RuReaDTN0Y/5fTFyzKywk58YH9M4pwihJ82/OLd/x8hh+oic/Xest9vBkT4ILHR8dXT2junmnQvjA/HWG9sqsi1BGvTkxLbktKP5fPtM/EwDc17MAruF5KEuc6JkkVtLwt87FP9SAe1QhEpIU74OheLExNgAPVOixJhOwFfWnxaKV02KofBX5Lbqc91fzU/B8InKU9NJKHJ7OWHWtLZGmYFjs8/Yl6OZLGtxcG3DXfgw9yLDZIyyGGARzrtK6RYLUTYpUhvmdeIYra55HGamEs+dZQqAIPtCa7G/IetpTUAnNY9s+TtCQt0kuDsHEJv5wWZdQovmVo22bYhWCmWNtrumtqhR63L1KctK1jOazHYJm1h4ojMYZpOSYv7XrEq+Wtfy6gdtvDH+KEzIa52ge20798bnkPbsYrfeqrsXXx/eMxkftWarIbXAA4Onq4rM7hmf+eWlufhvYZGrIrp3tvvU5cRRioSjF+3XE6T7B4ElnXTl1NCON45/xCxfmvvUPFYlfaAg8RvY1eO7h4deCN08OBRPpNh4iXFxh47priYFt4FPa7oPdT83mfP+kulqJgIadjVR3htPoLGXyQAZ9/hMSaeJbd35kN6/IDJ+lrF9S2xjYh1IWyfH+CgER+s6IgfRVhGtBCs20an8/IS2znCLAjhdIPuegwmG4IzrhRjf+qmqXO3ER3Cz7SrM0zAODvN+mjSLUnaNj7vpuzjtYwVlMoDqnV9yESULyHWy3fyKFsq9iGWekhR0UpeBpCD2U1RoczFbWr2lk83qQSzLxFdiWQzZiQ8hXySUOSyu2xddJwBNY7//WQthYrPVXGlIZMnVjV/y1tqtDin/dJHilm1a9re5PNXSNgNjjUZH0Og2uHTT7dBZ9u1BX54eCbfe7lw4OrD3xDxTN2T8R9M3fJ+4VzxdVRWd3xyZZVV9nfDX3Ed781f8oSU6hQqtp/ov3Hcjn0eOfxYMxYT0gTi7OLlyamjwGHtm3Bx3uU+90XA7MST3yEL0MrMGvq2bhhPbgfil3GY2Xsyf5BBIuhe7zVM8nKg8mxHGW3FfyRtkPvjgp5XH6b/sYIAREBs/z/c+MQ4+q3SyZa4nPts63s9oIaS6lvcVqct+dRWLSWyLumPKiJtcIcZ4glmgWoq2du1mVzvxib6ROd8FXfv6jtb8NR0UO4s70BX+U6OBQ401finrpr2Y+6+ssVSX8YxmA/CYlaX4XMsubpsM6KTWQ0UhFdc4ChEfUjQ9fNqasxNGBHdDO2Y1lEZKNVh0xujPfShUp4bUoGflo1mWWU7KyWbK0QdfzRfokSn9aEraM8TS9cUWCTOtxcGeqcF3puSwQTbqXnUtb13jCEIAAB55SURBVKuZ1Sohacc9ybSPbWaZqisV3XR78Zz43kW6q2U+9XZrpjd4UH7VUGXOcsbsw0D3PjnV2xWfQmBxYtoy1d/8hfvqyNWvF2+bJ5y4H1+ePTQwOHbyyl36KJx9IntwbNo8aUTFaAsZmZyzVxenXw/Pfa/MTx4ceOXcp/Zjbo9Wb9x0z55LH+KCa266iXt89NCVu/XGdUmsYlqPE9C7bQLMTRxKh0kXwsaXjH/ZJWbfX6dBFHsV9ye5M9JiNrHZkVq2l0wg2RbD4Upa0vtWEuisPINAlhNivL/xnZUcJtaYOHxamu45a+tX3rcl1Ak5GYag3BbVpY6b0Q+J7MCMAfGtsb/J1Y58BGEKhmQjoIZEGdZymjS99k/rx4vJ6mQNuoA3LaZDHKuGFDHUNxfWXxqCJFrc6WOhrqbhQpMhYcI7zMqQvb0S0EmtxysNd7vK2EhVN3h7yZ8/+bdK+nsm4wVFc1Ys5LiNViwo7qTUlMlDvNA1E7jh4zNqIVp0wnt6tYTIpJ4KHaA5WZ4qdoEo+h92tXY6iawlbdnuBJI+EZVcl/K859kQ64uRVRjFDjKLd2deHd6ffl8R3aLqnV+an0zCwxpcmnn1eduj/eMf3/jFeM0Gs/zZ9OHnhgd2Hdy/9/mB58ZOfpZ8M0BVVSv0PQKDrqGd/3Z8+jN2vGRW0sNHRmxzO3vx8//Vo7sfTtA3Dgy9cHBo8Pn94x/bz83JTc4vyo+uTu4ePjLLLFdVRYdSduCIKhuRADkBaMOmtAGE+26Mrk+GiEpPyEwBipY6nZQEmHdDzlzpv/dcbkXJ1s6qmO1f+OBdLx1k0qRO4znrSFQVzpxbCsTX68eW0vvXS7fnmk4yxKbeonxoLFkxbHese6U5ZVHYq6J6Ej/JeIUmbUJcZSNirjbyiWdIyvPm4ZsC+MgmzZuXPsLVnhofuAXNSR9ginVrXN2hbGnfeiqSfGCrXoWGiHxxDtpS5HCu/4KF7ZCATuoySnHaxB2LR3AXW1tc1sRu6IU6zcL8CcV8Qpk5flJ1PBB2bhS2BM/Ie6K064v0/V+pGNbZ3dV79+89yEWP3goVvldb2H4BQW4w7EbfFiysrtz75v5yrW3dp265Ph5qwyaKoWCczV87bcP5TSjijiisZbsHUEiLbYaCtrZpbi093og2U7O8Vk0TMpA8CqnS/DsBP2HVzzrx9vohLchYz9V1yfka3zUFcRYsiNFJlibGxENb3zWcL631luMbY+FwPhhylFsvg9a+eAeb21ZyfHMNXsWasSPZZDGFaAi6uxHtb3kKOmnLhwAOgMA2IUD7kFAM28RvuAkCIAACaycAnbR2dqgJAs8WAeikZ2u80VsQAAEiAJ2EOAABEGhHgG6rrWz4XbV2vqAUCIAACGwOAeikzeGMVkAABEAABEAABLYfAeik7Tdm8BgEQAAEQAAEQGBzCEAnbQ5ntAICIAACIAACILD9CEAnbb8xg8cgAAIgAAIgAAKbQwA6aXM4oxUQAAEQAAEQAIHtRwA6afuNGTwGARAAARAAARDYHALQSZvDGa2AAAiAAAiAAAhsPwLQSdtvzOAxCIAACIAACIDA5hCATtoczm1aoV/VSX4PyPxUEH4pog29FmXC70C1KIsiIAACIAACIIDv4+4cA/43DtMfaJS/W9n8y4sDO7TfBUx/F0JRTp09DhXKKoGcr/ltRffroWmXg2GfoF5znSd/sNOXqvnLfqa0/KOJaSupPWbE/BpodLvQTTFY5H9qwf9wZg0icqLJsdTRjXqt/P5rXVOd3M4KE6tIOLRT9IHK94HuX4sbWd9Db5EAARB4qgngPKlxeGl9jL+/zX9CmW0SuU4SO32qUcimKxB+49r/eHVsK8uJKoQ13dQBv747H/xLtlUUBIQxTMWMq+SnsiPG1lORVxV1krGpdjN08PatpWiZp5jbPDtNM+DUu4ykyantTkX+x0FkBtO23GsPVr1cO8qxFbVux0zhdmPdljydnayPt5Zum67xLqjA3ci2b64JeDG6GrtcWSncVa5lfW/TEMqAAAhsfwLQSR3GUIohu9q6vVZeoiWV7xxVuuhnBTp4YYoyg7RhaDogOOA2TldlYcK9oScfBozsI+fVwxK7u4dL9LKoLaiViame5klwL8ig2F3aOIs2bTF13w02KRE89Hb5cNw+P2ZQJIdzS9M9026iYAiIJTMjjscicHO1tpvBN6W/3kPzl1yyQyCy6YW5VNNK1uVggfc9ZPJEV56lAGNnoqwjxNNIkEiMNV7SSXnhPIeZqRIVKy8lr5r7azk7pOs4vokjeAkCILAtCUAndRi2dAdie7y8REttkCnUQLroZwUavFiYkGJCNtdQ2RW2Ptya6cUtlra33vklKhAznTW3Oyb51GXZNVs87I7BF6c/Su/aqemJiUx4Ua0a2ZRyCK3JhMDrdFIYArdVe50ka/pXYbP0/ofqvkT2l6o0CSNWyZDsUN5WdVRrEFUyNrzeSsbROdKSZ3C7po9mQOdMqGvyrnd+KdVb3CU2lVxjDcDFEAf/2iZcDLQtbsrV9L2THRQGARDYZgSgkzoMmNyBGs6TwqFCKRGFlNv82LGQ3ULiVpHsZ2vaJKI11mWTOZ/oJLOFq+c0tqbZ8PhWTf4kSitsirGbrNnq1tJt2wq7j2mr1EgHKsDKM3vGgXAp33TZw0PpINrTI7e1h045g7FFlZ5VwL5ur71OohH3Cox1oz5JznBtUShtVO9YONhbB56xIcJSYzAUND7M3K4S0cZueKU8g2Uv7JjY0loM5UObXRLtdVKcm2MdxreLLygLAiDQ5wSgkxoHSFm43R0Hth/L3ZcWcaEPtF0hFpBXwx7DTqEUnaRtHlpfrBxhuw7t0HKfiC2a2xmkkMLtJ1HRKDm3VRssRppQ9eTml9EBE/R8z0xyEiZdJFBm77eQSTpwZ0Rhskl7VdCdBDD0LogkayG4zT0MmT4Rh4C3ZG0KRZINqC1PJb20MrXaDErUXrzR9Uq7fd17VWO2NU9mw4yXp+cGQoAyZRmW+Qmpq+iSEYgy5qs4as5z9pSViY20FfKkDW3mPEsGN1iekmQdsZG29hYV68gCARDYHgSgk9qPU1QGrg5bRml3j1t1tq2mu4IsIK9GoRDzE52UvGzTBbPD8c3GbJPTt6hubLFgiW1aWQkL4fwUO+pwe5it1WicCogvRMhcdQ/eDotbckVBYKqHzXhigeQmbe32/IauSnlky1v5NTY9RzcW43bo6uoHORKLsRNjIANFGVYORqmX6ku1UttM1vHGKjRqLXk6W3aY5EiZSwYRQ6r1MdyrpXY1nSTGyIISUi8Tl9RKHKaG/uouBcFtEqI5a6/7+Db4gcsgAALbkQB0UttRo5XavJOOq3OtTorFGp9PCptxeKduBc066iTfBNvP4lNTqZTxheVGInd3f47iDgyiq/Fjbn6bSaQJ1yWJTfkyaA6zqTPPw7an7G3mEG4sbsYTU3Sgdd5KJWmfq8a2USDK+Q7aTONVjU1LNSuQyURrjSiJEBIt5y8M1UAsv85zOvGkisY4eV7wik0EYkKP81tVGj404JsPcRIS7t7l2PQtMu5GmV+1VakJa9O+btJJuQXvAv1NrfFrMd1tfGM9pEAABJ4qAtBJ7YaTNrmpaTo0oo9BudWcbQ+028VdKmzkcmMOMsgk4sYv1/SoWmJ+coAkXxrf5uv6Yba3iamBHj22Etv1VWKLPif5KzeM5KJ5GVxlzrBa0uHMACvpr0W28oFrozZMF9Sd0hb22/PclBuU6BXbjF1TYrCENIk+eK+Sv9Gs+RKBnvI4vK1hRDbf5qUhZsdeaBwRWb/5RJCV78ST6pHzTt4VdFLy6TPilkS+U7RxmoSA4drLccjHKD9hUkc/9FK1EK621UnmJNKNGoVoeXyZaSRBAASeNgLQSS1G1Kz7E3PhoVS/W7B9NG4AZC+TBXFXsM3JdVxejXtkzE8M8pfemZp+WDv2/+Lzbv6owO9qTCWIfUjomGxTp5aDcTpnIpfEWZS7+ZUc/0QIwb7EmHXJD4S5IDyURbvqJOuYIOlcckMgLvG2yGFLz/YxOy6ytzVzbcqNZAFTbE7Wiq8CwJjVJtWKZ6tgEw6QWf08KRZzYFPJ4k5tc4xsrpme1SJSQpTKi5gUp1NFWG3Gt1gZF0AABJ4KAtBJjcNI+7Hd59JdnK3d4lK+TIddwbVGq3bcO6m8XMTtPhFr8b0q0WHJpbw7vkC0JvYMp/+ynYl2LH9CFrc3e7rg82NjZHxqwn4jkc/ltdxTULGi9YG9WT9vv1jS5Mdi3pb5y12yz/owYcdLqjpJEo4Pnns+/mDDfo9A4rwTgryRLJ1WyQqY8wnvhuhj8MHWIQiFruVGKUeEn15EyW3Hk/tWckxqViO/ZEhbJRpNRYdjWBoPzVzI+07lZYhK51nvTOtxctGVOIV9OcoxHiba3V/X/pbH11uTHmo2kAcCILD9CEAnNYwZXxzj4p5V4peUFTzZDMyWHJdyeTXfEmrPG+qEhTjMkK3wHmgt+iMiU45BkDtisKIZZ7VCOZsw+wrbVGRJ0yPt7b4sltjkL/2+Fb7FMSpXMh7JU6WweTsRYJ+4Ym2Fe3l1eyox1HyObjFVLW9mKXfNjLVOUilFGtstp1gfy4Wa77uZ8WKjyZ7+8YLVmOdhRmmrFBkW0+uxiQl/KTiliidFDxmS/l1NqM38CXnBMRtszaiNb/qd04DRf6NpaAUJEACBp4EAdFKHUYyLe1YpXmLrfiyVygi5W8urZIrvOmQl7OXOZFia7WtSZsmJVL5byFaib8XPu8VGY3MlI1p+rMUbU97cy18IMYXVbclk1okV30703OU06KRIb2LOPb7DnI854YDNN2T/2r22ybE0MKyTVtKpGzBTe9ngsu/Cjr6oYRACQ6pDqtWap3lEyflgXDUaJVhOsSRXTcWJOT4oIv6NG2YI0rC3d+XoUn7CZLqdIcotUDkqJrof48HSowKFJsK96eL4hlCBTrI08X8QeMoIQCd1GFBa0MXtErcE2w3DLsT6WhlkRNxC2LKbXY1runknTfaTDSBUae9+uQr1K9p377DjLqht0qlLmvGwfzT62L6k/Rob1bcILZOV4oYX646pwvdvszEbFHHzpvKqjqFuuWJpVBR6HEefK7NC4c3J1lyyeBnPjq6QzZSYH+IQXWmBpI2g+cryJalR/zK0a8k3tB5stRtfL9fiJAoGkAABENj2BKCTtv0QogPNBNLzg+YaKAECIAACIAACVVVBJyEMQAAEQAAEQAAEQEAnAJ2kc0EuCIAACIAACIAACEAnIQZAAARAAARAAARAQCcAnaRzQS4IgAAIgAAIgAAIQCchBkAABEAABEAABEBAJwCdpHNBLgiAAAiAAAiAAAhAJyEGQAAEQAAEQAAEQEAnAJ2kc0EuCIAACIAACIAACEAnIQZAAARAAARAAARAQCcAnaRzQS4IgAAIgAAIgAAIQCchBkAABEAABEAABEBAJwCdpHNBLgiAAAiAAAiAAAhAJyEGQAAEQAAEQAAEQEAnAJ2kc0EuCIAACIAACIAACEAnIQZAAARAAARAAARAQCcAnaRzQS4IgAAIgAAIgAAIQCchBkAABEAABEAABEBAJwCdpHNBLgiAAAiAAAiAAAhAJyEGQAAEQAAEQAAEQEAnAJ2kc0EuCIAACIAACIAACEAnIQZAAARAAARAAARAQCcAnaRzQS4IgAAIgAAIgAAIQCchBkAABEAABEAABEBAJwCdpHNBLgiAAAiAAAiAAAhAJyEGQAAEQAAEQAAEQEAnAJ2kc0EuCIAACIAACIAACEAnIQZAAARAAARAAARAQCcAnaRzQS4IgAAIgAAIgAAIQCchBkAABEAABEAABEBAJwCdpHNBLgiAAAiAAAiAAAhAJyEGQAAEQAAEQAAEQEAnAJ2kc0EuCIAACIAACIAACEAnIQZAAARAAARAAARAQCcAnaRzQS4IgAAIgAAIgAAIQCchBkAABEAABEAABEBAJwCdpHNBLgiAAAiAAAiAAAhAJyEGQAAEQAAEQAAEQEAnAJ2kc0EuCIAACIAACIAACEAnIQZAAARAAARAAARAQCcAnaRzQS4IgAAIgAAIgAAIQCchBkAABEAABEAABEBAJwCdpHNBLgiAAAiAAAiAAAhAJyEGQAAEQAAEQAAEQEAnAJ2kc0EuCIAACIAACIAACEAnIQZAAARAAARAAARAQCcAnaRzQS4IgAAIgAAIgAAIQCchBkAABEAABEAABEBAJwCdpHNBLgiAAAiAAAiAAAhAJyEGQAAEQAAEQAAEQEAnAJ2kc0EuCIAACIAACIAACEAnIQZAAARAAARAAARAQCcAnaRzQS4IgAAIgAAIgAAIQCchBkAABEAABEAABEBAJwCdpHNBLgiAAAiAAAiAAAhAJyEGQAAEQAAEQAAEQEAnAJ2kc0EuCIAACIAACIAACEAnIQZAAARAAARAAARAQCcAnaRzQS4IgAAIgAAIgAAIQCchBkAABEAABEAABEBAJwCdpHNBLgiAAAiAAAiAAAhAJyEGQAAEQAAEQAAEQEAnAJ2kc0EuCIAACIAACIAACEAnIQZAAARAAARAAARAQCcAnaRzQS4IgAAIgAAIgAAIQCchBkAABEAABEAABEBAJwCdpHNBLgiAAAiAAAiAAAhAJyEGQAAEQAAEQAAEQEAnAJ2kc0EuCIAACIAACIAACEAnIQZAAARAAARAAARAQCcAnaRzQS4IgAAIgAAIgAAIQCchBkAABEAABEAABEBAJwCdpHNBLgiAAAiAAAiAAAj0hU56fO36D6fPPB57rTpwoNq3D/9AAARAAARAAASedQIHDjwee43kwbXrWyjXtl4nEYLR0e/f/2Dl+s2HD1YeLn+HfyAAAiAAAiAAAs86gQcrK9dvfv/+B49HR384fWarpNIW66RHb7+9+t5JyKNnfTJAHIMACIAACIBAicCDldX3Tj56++0tkUpbqZN+OH2GRFKJC/JBAARAAARAAARAwBBYfe/klpwqbZlOenzt+uPRUZwkQSaCAAiAAAiAAAg0E3iw8nh0dPOfVdoynfTD6TPfv/9BMxfoaBAAARAAARAAARBY/u779z/Y/COlLdNJj8deowe3MfAgAAIgAAIgAAIg0ILAyvWb9NH4zf1vy3RSdeAAbrpBJoIACIAACIAACLQl8GCFvj9oc//bOp20b19bLi00JkyBAAiAAAiAAAg89QToO6U29z/oJHxdEwiAAAiAAAiAwPYgAJ1E4zSwY/ipV8ToIAiAAAiAAAiAQFcC0EnQSdtD0XeNbJQHARAAARAAgScnAJ0EnfQM6qTPf/Luj39y5RnsOLoMAiAAAk8zgX+++Yff/f7Wn+8vP7k8ChagkyhinuH7bksfnvnxyY+WQkD0R4K8aqNjFmZ+/M677N+ZT260egYfOulpXij7I4ZBGARAYAsIvH/x1z+78Kuf/4f/snDld3/8+s/rshpAJ9FAbpJOWvzk5LszHy6uR+hcmX3n3dmFVpqgvrkN1UkkR97Ju7z4yUkSNEsfninQIFCde3fjo5l3oJPWISTqAwZXQQAEQKB/Cfzswq/4v0u//u/X/+cf/vJ/v30SwQSdROPtdZLd19n5BD+rePfH2TbcsfyV2WAhPQjxDbU82qHqbTVBfUCrOon3qyBlOuzH1ASd+jCHF2bMcdGV2XdmPrfhSyrHQ9ATrLoa8fU6qQRctvXkna2njasgAAIgAAIbSICLpJD+xYef/MPnN77580N172jMhE6iAfM6qTB4dHijnYuUtEKhPG3kXhY0DkxtAdIxdYpKObgq3cnikigIRHeWQ9pifRw2YMkrfzfNScbPf5KfNi2rmYWhYUNglFbLUyjqdXpfT4HW3GjtMKE6CIAACIDAphII2ihP/Pzir+cXPr/9h3/tum5DJ9EQ1uikric35fLqyU1DAOlnJPpNN6GEMokjxYdTck4YpYrBio813fzqGn95+czzgMicS5V1G1VUVFeozhPQSZwG0iAAAiDwlBD4u//021whJTkfXbr8+3++/ZeH/y/fgNQc6CQKjhqdpFJbU6bQMS0t3Fj83N20ivqgrLfYfb2HyelIUfRoioF0UrkVdoRT0wtzulN76KXaIQE3c9LepzO34ejYjJw3ki5CyKe0UVH5KZHaSgLHllEz1erIBAEQAAEQ6EsCf/rzw3/8p//1m9/+j4uz84k8Sl5e+NvfXPmHa//6zV9qNjJ7CTpp03SSPNHpFGFeKNDBj36YZHWDED0LM1GmlG/5iSohXMqnYrlA0XNuLC49pDto9siq9NyPbN11kxV2514sp8TNqJyfzLS7s6kyhE4qsUU+CIAACGxDAnfu3vvy2v/+5L/949/+x/+aiKTw8v2Lv/7Dv/yfsPepCegkrpO6Hvl0Kv8EOskEqD2heaf2yETooagGavyUSiU2lD7oE1qXDz6HR5pqb+FZwZQ9iC3UmBFJ7KGrRo0l9Jm7W9dO67jCybSnummv1TmDTBAAARAAgf4n0FIn/fFOw9cHQCdFnURSINvLa0KhY3mpk6KIEft9TXP2XljDE+WqUKhrK9NJmyUXSKzEx4nkdwSQw/YwLHMvETf2Jeu1roFErYLNOkrtxwglQQAEQAAEtozA3T/9xd53u/B3vwmHRmqC7rv9/e/v/gn33fhv/O7bV1Ih5vmkmkMXdci7luc6qWtd98CQ/fSZURjtP4lGbbFzmqQvBdEghEVS5clfkktMJEmDJHrCh9HauGesxUeXGqoQPVUN86e7Nrb7sr9oCwRAAARAYJ0IND6W9LMLv8Jz3FwZyXQf6SSumdrsmkYK8N3dnLjo+72MtqIscMUaVEVJWa4938igmi/JlAdCze4pHSQ4hUeaDDf1830dTwfbjBrKgAAIgAAIbCoB9ejIZuJ7AaQkUl816KTv7CM46iaqyoKO5UnreOPJEUhtGBlhoRwIiXMX1QKJjCYtRZ4oxqXYUrvfOdMppIbm+OPnjU2QSNIeKjJDk0mlEknT2U7tNjqGAiAAAiAAAptPQNVJ+J5JVRNpmU06yYyo0RbuU1rpQ8r+oRkuSjqUT3Zis8enTUjJYo13f7i4nSKxEaxLinXUSd4ZjR4n6dKt/TFw4u221FRix7wsSzTjpFexqanNn+poEQRAAARAYA0EEp2E3y3RxFBNXiudtJF7ZIcnYMyBk3ZS0hA3TpRkRym1usdqCP2DbGUh0uCJ+QYma7Oz/mDSKvHK6Ugq0KKP4QZcoTyXqlKhbmQY1I5FE1U4BgIgAAIgUCSA38GtEUEtLm25TsIGCQIgAAIgAAIgsGEE/vnmH373+1t/vr+8ju858b0AJEs35fu4i/p3HYcTpkAABEAABEAABNaRAHQSdBIEHAiAAAiAAAiAgE4AOknnso5SFKZAAARAAAQCgbf+6q8Hdgy/9Vd//XD5u5r0f/71b0MVJEBgCwlAJ0EngQAIgAAIgAAIgIBO4FnSSQcOPHywsoWaFE2DAAiAAAiAAAhsJwIPVqoDB1p8Umw9i/yb9TTWxdbjsddWrt/cTsOzYZ8IAAQQAAEQAAEQAIFGAivXbz4ee62L1liHslumk344feb79z9ohIICIAACIAACIAACIPBw+bvv3//gh9Nn1kH7dDGxZTrp8bXrj0dHcesNoQ8CIAACIAACINBM4MHK49HRx9eudxE561B2y3RSVVU/nD6z+t7JZjS44QUCIAACIAACIPBsE1h97+TmHyZVVbWVOqmqqkdvv01SCQ90P9vRD60MAiAAAiAAAkUCD1ZW3zv56O231+F0qLuJLdZJ9lTp8ejo9+9/QI91QzBBMIEACIAACIAACCx/9/DBysr1m9+//8Hj0dEtOUmymmrrdVJVVY+vXf/h9Bl6iP3AAfpqBPwDARAAARAAARB4xgkcOPB47DWSB5v+TBI/deoLncQdQhoEQAAEQAAEQAAE+oQAdFKfDATcAAEQAAEQAAEQ6DsC0El9NyRwCARAAARAAARAoE8IQCf1yUDADRAAARAAARAAgb4jAJ3Ud0MCh0AABEAABEAABPqEAHRSnwwE3AABEAABEAABEOg7AtBJfTckcAgEQAAEQAAEQKBPCEAn9clAwA0QAAEQAAEQAIG+IwCd1HdDAodAAARAAARAAAT6hAB0Up8MBNwAARAAARAAARDoOwLQSX03JHAIBEAABEAABECgTwhAJ/XJQMANEAABEAABEACBviMAndR3QwKHQAAEQAAEQAAE+oQAdFKfDATcAAEQAAEQAAEQ6DsC0El9NyRwCARAAARAAARAoE8IQCf1yUDADRAAARAAARAAgb4jAJ3Ud0MCh0AABEAABEAABPqEAHRSnwwE3AABEAABEAABEOg7AtBJfTckcAgEQAAEQAAEQKBPCEAn9clAwA0QAAEQAAEQAIG+I/D/AXvZXhpeNQ3cAAAAAElFTkSuQmCC;" vertex="1" parent="1">
                    <mxGeometry x="852" y="179" width="122.41" height="129" as="geometry"/>
                </mxCell>
                <mxCell id="53" value="過去の似た問い合わせをベクトル検索" style="edgeStyle=none;html=1;verticalAlign=bottom;exitX=0.029;exitY=0.821;exitDx=0;exitDy=0;exitPerimeter=0;fontColor=#FF0000;fontStyle=1;entryX=0.984;entryY=0.813;entryDx=0;entryDy=0;entryPerimeter=0;" edge="1" parent="1" source="42" target="31">
                    <mxGeometry relative="1" as="geometry">
                        <mxPoint x="778.03" y="225.00800000000004" as="sourcePoint"/>
                        <mxPoint x="597" y="262" as="targetPoint"/>
                    </mxGeometry>
                </mxCell>
            </root>
        </mxGraphModel>
    </diagram>
</mxfile>